CenturySchL-Ital.ufo
<glyph name="exclam" format="1">
  <advance width="333"/>
  <unicode hex="0021"/>
  <outline>
    <contour>
      <point x="140" y="182" type="curve"/>
      <point x="104" y="192" type="line"/>
      <point x="153" y="376"/>
      <point x="174" y="494"/>
      <point x="183" y="626" type="curve" smooth="yes"/>
      <point x="188" y="696"/>
      <point x="216" y="737"/>
      <point x="257" y="737" type="curve" smooth="yes"/>
      <point x="292" y="737"/>
      <point x="316" y="713"/>
      <point x="316" y="679" type="curve" smooth="yes"/>
      <point x="316" y="649"/>
      <point x="315" y="647"/>
      <point x="266" y="543" type="curve"/>
      <point x="218" y="437"/>
      <point x="185" y="344"/>
    </contour>
    <contour>
      <point x="92" y="109" type="curve" smooth="yes"/>
      <point x="126" y="109"/>
      <point x="154" y="81"/>
      <point x="154" y="47" type="curve" smooth="yes"/>
      <point x="154" y="12"/>
      <point x="126" y="-15"/>
      <point x="91" y="-15" type="curve" smooth="yes"/>
      <point x="58" y="-15"/>
      <point x="30" y="13"/>
      <point x="30" y="47" type="curve" smooth="yes"/>
      <point x="30" y="81"/>
      <point x="58" y="109"/>
    </contour>
  </outline>
</glyph>
<glyph name="quotedbl" format="1">
  <advance width="400"/>
  <unicode hex="0022"/>
  <outline>
    <contour>
      <point x="100" y="520" type="line"/>
      <point x="156" y="695" type="line" smooth="yes"/>
      <point x="164" y="721"/>
      <point x="176" y="732"/>
      <point x="198" y="732" type="curve" smooth="yes"/>
      <point x="222" y="732"/>
      <point x="243" y="712"/>
      <point x="243" y="689" type="curve" smooth="yes"/>
      <point x="243" y="680"/>
      <point x="239" y="670"/>
      <point x="230" y="657" type="curve" smooth="yes"/>
      <point x="120" y="510" type="line"/>
    </contour>
    <contour>
      <point x="252" y="520" type="line"/>
      <point x="308" y="695" type="line" smooth="yes"/>
      <point x="316" y="721"/>
      <point x="328" y="732"/>
      <point x="350" y="732" type="curve" smooth="yes"/>
      <point x="374" y="732"/>
      <point x="395" y="712"/>
      <point x="395" y="689" type="curve" smooth="yes"/>
      <point x="395" y="680"/>
      <point x="391" y="669"/>
      <point x="382" y="657" type="curve" smooth="yes"/>
      <point x="272" y="510" type="line"/>
    </contour>
  </outline>
</glyph>
<glyph name="parenleft" format="1">
  <advance width="333"/>
  <unicode hex="0028"/>
  <outline>
    <contour>
      <point x="389" y="736" type="curve"/>
      <point x="399" y="713" type="line"/>
      <point x="315" y="669"/>
      <point x="271" y="629"/>
      <point x="232" y="563" type="curve" smooth="yes"/>
      <point x="163" y="444"/>
      <point x="119" y="274"/>
      <point x="119" y="122" type="curve" smooth="yes"/>
      <point x="119" y="34"/>
      <point x="133" y="-22"/>
      <point x="177" y="-108" type="curve"/>
      <point x="156" y="-123" type="line"/>
      <point x="78" y="-26"/>
      <point x="40" y="85"/>
      <point x="40" y="213" type="curve" smooth="yes"/>
      <point x="40" y="440"/>
      <point x="187" y="661"/>
    </contour>
  </outline>
</glyph>
<glyph name="parenright" format="1">
  <advance width="333"/>
  <unicode hex="0029"/>
  <outline>
    <contour>
      <point x="-83" y="-123" type="curve"/>
      <point x="-93" y="-100" type="line"/>
      <point x="-9" y="-55"/>
      <point x="35" y="-16"/>
      <point x="73" y="50" type="curve" smooth="yes"/>
      <point x="143" y="170"/>
      <point x="186" y="339"/>
      <point x="186" y="492" type="curve" smooth="yes"/>
      <point x="186" y="579"/>
      <point x="172" y="635"/>
      <point x="129" y="721" type="curve"/>
      <point x="150" y="736" type="line"/>
      <point x="227" y="640"/>
      <point x="265" y="529"/>
      <point x="265" y="400" type="curve" smooth="yes"/>
      <point x="265" y="174"/>
      <point x="118" y="-47"/>
    </contour>
  </outline>
</glyph>
<glyph name="plus" format="1">
  <advance width="606"/>
  <unicode hex="002B"/>
  <outline>
    <contour>
      <point x="249" y="213" type="line"/>
      <point x="37" y="213" type="line"/>
      <point x="37" y="293" type="line"/>
      <point x="249" y="293" type="line"/>
      <point x="249" y="505" type="line"/>
      <point x="329" y="505" type="line"/>
      <point x="329" y="293" type="line"/>
      <point x="540" y="293" type="line"/>
      <point x="540" y="213" type="line"/>
      <point x="329" y="213" type="line"/>
      <point x="329" y="2" type="line"/>
      <point x="249" y="2" type="line"/>
    </contour>
  </outline>
</glyph>
<glyph name="hyphen" format="1">
  <advance width="333"/>
  <unicode hex="002D"/>
  <outline>
    <contour>
      <point x="54" y="278" type="line"/>
      <point x="259" y="278" type="line"/>
      <point x="237" y="195" type="line"/>
      <point x="32" y="195" type="line"/>
    </contour>
  </outline>
</glyph>
<glyph name="slash" format="1">
  <advance width="606"/>
  <unicode hex="002F"/>
  <outline>
    <contour>
      <point x="408" y="722" type="line"/>
      <point x="466" y="722" type="line"/>
      <point x="198" y="-108" type="line"/>
      <point x="140" y="-108" type="line"/>
    </contour>
  </outline>
</glyph>
<glyph name="one" format="1">
  <advance width="556"/>
  <unicode hex="0031"/>
  <outline>
    <contour>
      <point x="459" y="708" type="line"/>
      <point x="302" y="123" type="line"/>
      <point x="293" y="82"/>
      <point x="293" y="82"/>
      <point x="293" y="74" type="curve" smooth="yes"/>
      <point x="293" y="52"/>
      <point x="307" y="47"/>
      <point x="372" y="47" type="curve" smooth="yes"/>
      <point x="426" y="47" type="line"/>
      <point x="420" y="0" type="line"/>
      <point x="50" y="0" type="line"/>
      <point x="55" y="47" type="line"/>
      <point x="98" y="47" type="line" smooth="yes"/>
      <point x="148" y="47"/>
      <point x="171" y="51"/>
      <point x="182" y="61" type="curve" smooth="yes"/>
      <point x="190" y="69"/>
      <point x="191" y="70"/>
      <point x="205" y="123" type="curve" smooth="yes"/>
      <point x="312" y="523" type="line" smooth="yes"/>
      <point x="322" y="559"/>
      <point x="322" y="559"/>
      <point x="322" y="568" type="curve" smooth="yes"/>
      <point x="322" y="586"/>
      <point x="315" y="588"/>
      <point x="254" y="588" type="curve" smooth="yes"/>
      <point x="185" y="588" type="line"/>
      <point x="197" y="632" type="line"/>
      <point x="269" y="632"/>
      <point x="376" y="667"/>
      <point x="430" y="708" type="curve"/>
    </contour>
  </outline>
</glyph>
<glyph name="four" format="1">
  <advance width="556"/>
  <unicode hex="0034"/>
  <outline>
    <contour>
      <point x="512" y="708" type="line"/>
      <point x="386" y="238" type="line"/>
      <point x="500" y="238" type="line"/>
      <point x="486" y="184" type="line"/>
      <point x="372" y="184" type="line"/>
      <point x="355" y="123" type="line" smooth="yes"/>
      <point x="348" y="98"/>
      <point x="345" y="82"/>
      <point x="345" y="74" type="curve" smooth="yes"/>
      <point x="345" y="52"/>
      <point x="359" y="47"/>
      <point x="425" y="47" type="curve" smooth="yes"/>
      <point x="443" y="47" type="line"/>
      <point x="438" y="0" type="line"/>
      <point x="127" y="0" type="line"/>
      <point x="133" y="47" type="line"/>
      <point x="151" y="47" type="line" smooth="yes"/>
      <point x="200" y="47"/>
      <point x="224" y="51"/>
      <point x="235" y="61" type="curve" smooth="yes"/>
      <point x="243" y="68"/>
      <point x="243" y="70"/>
      <point x="258" y="123" type="curve"/>
      <point x="274" y="184" type="line"/>
      <point x="-8" y="184" type="line"/>
      <point x="-8" y="226" type="line"/>
      <point x="458" y="708" type="line"/>
    </contour>
    <contour>
      <point x="289" y="238" type="line"/>
      <point x="374" y="556" type="line"/>
      <point x="65" y="238" type="line"/>
    </contour>
  </outline>
</glyph>
<glyph name="five" format="1">
  <advance width="556"/>
  <unicode hex="0035"/>
  <outline>
    <contour>
      <point x="112" y="383" type="curve"/>
      <point x="203" y="704" type="line"/>
      <point x="275" y="685"/>
      <point x="349" y="675"/>
      <point x="408" y="675" type="curve" smooth="yes"/>
      <point x="448" y="675"/>
      <point x="482" y="683"/>
      <point x="522" y="700" type="curve" smooth="yes"/>
      <point x="528" y="703"/>
      <point x="531" y="704"/>
      <point x="532" y="704" type="curve" smooth="yes"/>
      <point x="536" y="704"/>
      <point x="540" y="698"/>
      <point x="540" y="692" type="curve" smooth="yes"/>
      <point x="540" y="679"/>
      <point x="530" y="662"/>
      <point x="512" y="642" type="curve" smooth="yes"/>
      <point x="480" y="607"/>
      <point x="421" y="586"/>
      <point x="355" y="586" type="curve" smooth="yes"/>
      <point x="320" y="586"/>
      <point x="278" y="591"/>
      <point x="224" y="602" type="curve"/>
      <point x="168" y="413" type="line"/>
      <point x="218" y="437"/>
      <point x="250" y="446"/>
      <point x="294" y="446" type="curve" smooth="yes"/>
      <point x="403" y="446"/>
      <point x="480" y="374"/>
      <point x="480" y="274" type="curve" smooth="yes"/>
      <point x="480" y="115"/>
      <point x="348" y="-15"/>
      <point x="187" y="-15" type="curve" smooth="yes"/>
      <point x="81" y="-15"/>
      <point x="4" y="49"/>
      <point x="4" y="137" type="curve" smooth="yes"/>
      <point x="4" y="185"/>
      <point x="37" y="222"/>
      <point x="81" y="222" type="curve" smooth="yes"/>
      <point x="116" y="222"/>
      <point x="141" y="198"/>
      <point x="141" y="166" type="curve" smooth="yes"/>
      <point x="141" y="145"/>
      <point x="132" y="127"/>
      <point x="115" y="115" type="curve" smooth="yes"/>
      <point x="109" y="110"/>
      <point x="109" y="110"/>
      <point x="83" y="98" type="curve" smooth="yes"/>
      <point x="78" y="95"/>
      <point x="77" y="93"/>
      <point x="77" y="87" type="curve" smooth="yes"/>
      <point x="77" y="54"/>
      <point x="126" y="26"/>
      <point x="184" y="26" type="curve" smooth="yes"/>
      <point x="287" y="26"/>
      <point x="371" y="132"/>
      <point x="371" y="262" type="curve" smooth="yes"/>
      <point x="371" y="345"/>
      <point x="329" y="391"/>
      <point x="255" y="391" type="curve" smooth="yes"/>
      <point x="216" y="391"/>
      <point x="183" y="379"/>
      <point x="152" y="355" type="curve"/>
      <point x="149" y="318"/>
      <point x="134" y="299"/>
      <point x="108" y="299" type="curve" smooth="yes"/>
      <point x="88" y="299"/>
      <point x="72" y="314"/>
      <point x="72" y="333" type="curve" smooth="yes"/>
      <point x="72" y="352"/>
      <point x="81" y="363"/>
    </contour>
  </outline>
</glyph>
<glyph name="seven" format="1">
  <advance width="556"/>
  <unicode hex="0037"/>
  <outline>
    <contour>
      <point x="561" y="704" type="curve"/>
      <point x="561" y="674" type="line"/>
      <point x="467" y="528" type="line"/>
      <point x="328" y="303"/>
      <point x="298" y="238"/>
      <point x="248" y="50" type="curve" smooth="yes"/>
      <point x="235" y="3"/>
      <point x="216" y="-15"/>
      <point x="180" y="-15" type="curve" smooth="yes"/>
      <point x="144" y="-15"/>
      <point x="122" y="7"/>
      <point x="122" y="43" type="curve" smooth="yes"/>
      <point x="122" y="78"/>
      <point x="140" y="122"/>
      <point x="184" y="193" type="curve" smooth="yes"/>
      <point x="233" y="273"/>
      <point x="233" y="273"/>
      <point x="361" y="453" type="curve"/>
      <point x="470" y="609" type="line"/>
      <point x="301" y="609" type="line" smooth="yes"/>
      <point x="196" y="609"/>
      <point x="178" y="600"/>
      <point x="130" y="521" type="curve" smooth="yes"/>
      <point x="106" y="481" type="line"/>
      <point x="69" y="493" type="line"/>
      <point x="166" y="704" type="line"/>
      <point x="191" y="703" type="line"/>
      <point x="292" y="697" type="line" smooth="yes"/>
      <point x="328" y="695"/>
      <point x="360" y="694"/>
      <point x="387" y="694" type="curve" smooth="yes"/>
      <point x="442" y="694"/>
      <point x="509" y="698"/>
    </contour>
  </outline>
</glyph>
<glyph name="eight" format="1">
  <advance width="556"/>
  <unicode hex="0038"/>
  <outline>
    <contour>
      <point x="376" y="370" type="curve"/>
      <point x="413" y="346"/>
      <point x="431" y="331"/>
      <point x="446" y="311" type="curve" smooth="yes"/>
      <point x="468" y="281"/>
      <point x="480" y="246"/>
      <point x="480" y="209" type="curve" smooth="yes"/>
      <point x="480" y="79"/>
      <point x="369" y="-15"/>
      <point x="216" y="-15" type="curve" smooth="yes"/>
      <point x="88" y="-15"/>
      <point x="8" y="46"/>
      <point x="8" y="142" type="curve" smooth="yes"/>
      <point x="8" y="233"/>
      <point x="71" y="306"/>
      <point x="189" y="351" type="curve"/>
      <point x="135" y="390"/>
      <point x="114" y="429"/>
      <point x="114" y="490" type="curve" smooth="yes"/>
      <point x="114" y="610"/>
      <point x="214" y="704"/>
      <point x="343" y="704" type="curve" smooth="yes"/>
      <point x="450" y="704"/>
      <point x="527" y="639"/>
      <point x="527" y="548" type="curve" smooth="yes"/>
      <point x="527" y="497"/>
      <point x="504" y="451"/>
      <point x="461" y="418" type="curve" smooth="yes"/>
      <point x="443" y="404"/>
      <point x="422" y="392"/>
    </contour>
    <contour>
      <point x="333" y="393" type="curve"/>
      <point x="338" y="396"/>
      <point x="345" y="399"/>
      <point x="349" y="400" type="curve" smooth="yes"/>
      <point x="410" y="428"/>
      <point x="452" y="491"/>
      <point x="452" y="554" type="curve" smooth="yes"/>
      <point x="452" y="616"/>
      <point x="403" y="661"/>
      <point x="335" y="661" type="curve" smooth="yes"/>
      <point x="257" y="661"/>
      <point x="194" y="606"/>
      <point x="194" y="538" type="curve" smooth="yes"/>
      <point x="194" y="481"/>
      <point x="232" y="442"/>
    </contour>
    <contour>
      <point x="227" y="324" type="curve"/>
      <point x="216" y="319"/>
      <point x="210" y="317"/>
      <point x="208" y="316" type="curve" smooth="yes"/>
      <point x="134" y="284"/>
      <point x="89" y="222"/>
      <point x="89" y="154" type="curve" smooth="yes"/>
      <point x="89" y="77"/>
      <point x="142" y="29"/>
      <point x="227" y="29" type="curve" smooth="yes"/>
      <point x="321" y="29"/>
      <point x="393" y="88"/>
      <point x="393" y="164" type="curve" smooth="yes"/>
      <point x="393" y="208"/>
      <point x="366" y="249"/>
      <point x="316" y="279" type="curve" smooth="yes"/>
      <point x="291" y="294"/>
      <point x="274" y="302"/>
    </contour>
  </outline>
</glyph>
<glyph name="colon" format="1">
  <advance width="278"/>
  <unicode hex="003A"/>
  <outline>
    <contour>
      <point x="104" y="109" type="curve" smooth="yes"/>
      <point x="138" y="109"/>
      <point x="166" y="81"/>
      <point x="166" y="47" type="curve" smooth="yes"/>
      <point x="166" y="12"/>
      <point x="138" y="-15"/>
      <point x="103" y="-15" type="curve" smooth="yes"/>
      <point x="70" y="-15"/>
      <point x="42" y="13"/>
      <point x="42" y="47" type="curve" smooth="yes"/>
      <point x="42" y="81"/>
      <point x="70" y="109"/>
    </contour>
    <contour>
      <point x="192" y="463" type="curve" smooth="yes"/>
      <point x="226" y="463"/>
      <point x="254" y="435"/>
      <point x="254" y="401" type="curve" smooth="yes"/>
      <point x="254" y="366"/>
      <point x="226" y="339"/>
      <point x="191" y="339" type="curve" smooth="yes"/>
      <point x="158" y="339"/>
      <point x="130" y="367"/>
      <point x="130" y="401" type="curve" smooth="yes"/>
      <point x="130" y="435"/>
      <point x="158" y="463"/>
    </contour>
  </outline>
</glyph>
<glyph name="semicolon" format="1">
  <advance width="278"/>
  <unicode hex="003B"/>
  <outline>
    <contour>
      <point x="-1" y="-167" type="curve"/>
      <point x="-14" y="-135" type="line"/>
      <point x="61" y="-101"/>
      <point x="104" y="-57"/>
      <point x="113" y="-5" type="curve"/>
      <point x="106" y="-6"/>
      <point x="100" y="-6"/>
      <point x="96" y="-6" type="curve" smooth="yes"/>
      <point x="62" y="-6"/>
      <point x="40" y="15"/>
      <point x="40" y="47" type="curve" smooth="yes"/>
      <point x="40" y="82"/>
      <point x="70" y="109"/>
      <point x="107" y="109" type="curve" smooth="yes"/>
      <point x="147" y="109"/>
      <point x="176" y="75"/>
      <point x="176" y="29" type="curve" smooth="yes"/>
      <point x="176" y="-48"/>
      <point x="108" y="-124"/>
    </contour>
    <contour>
      <point x="199" y="463" type="curve" smooth="yes"/>
      <point x="233" y="463"/>
      <point x="261" y="435"/>
      <point x="261" y="401" type="curve" smooth="yes"/>
      <point x="261" y="366"/>
      <point x="233" y="339"/>
      <point x="198" y="339" type="curve" smooth="yes"/>
      <point x="165" y="339"/>
      <point x="137" y="367"/>
      <point x="137" y="401" type="curve" smooth="yes"/>
      <point x="137" y="435"/>
      <point x="165" y="463"/>
    </contour>
  </outline>
</glyph>
<glyph name="equal" format="1">
  <advance width="606"/>
  <unicode hex="003D"/>
  <outline>
    <contour>
      <point x="540" y="192" type="line"/>
      <point x="540" y="112" type="line"/>
      <point x="36" y="112" type="line"/>
      <point x="36" y="192" type="line"/>
    </contour>
    <contour>
      <point x="540" y="394" type="line"/>
      <point x="540" y="314" type="line"/>
      <point x="36" y="314" type="line"/>
      <point x="36" y="394" type="line"/>
    </contour>
  </outline>
</glyph>
<glyph name="greater" format="1">
  <advance width="606"/>
  <unicode hex="003E"/>
  <outline>
    <contour>
      <point x="53" y="438" type="line"/>
      <point x="53" y="523" type="line"/>
      <point x="562" y="291" type="line"/>
      <point x="562" y="215" type="line"/>
      <point x="53" y="-17" type="line"/>
      <point x="53" y="68" type="line"/>
      <point x="451" y="253" type="line"/>
    </contour>
  </outline>
</glyph>
<glyph name="at" format="1">
  <advance width="747"/>
  <unicode hex="0040"/>
  <outline>
    <contour>
      <point x="641" y="188" type="curve"/>
      <point x="702" y="188" type="line"/>
      <point x="683" y="144"/>
      <point x="653" y="105"/>
      <point x="610" y="66" type="curve"/>
      <point x="550" y="14"/>
      <point x="475" y="-14"/>
      <point x="393" y="-14" type="curve" smooth="yes"/>
      <point x="187" y="-14"/>
      <point x="28" y="147"/>
      <point x="28" y="356" type="curve" smooth="yes"/>
      <point x="28" y="464"/>
      <point x="67" y="563"/>
      <point x="137" y="632" type="curve" smooth="yes"/>
      <point x="203" y="697"/>
      <point x="299" y="736"/>
      <point x="393" y="736" type="curve" smooth="yes"/>
      <point x="578" y="736"/>
      <point x="728" y="601"/>
      <point x="728" y="435" type="curve" smooth="yes"/>
      <point x="728" y="343"/>
      <point x="683" y="253"/>
      <point x="610" y="198" type="curve" smooth="yes"/>
      <point x="567" y="165"/>
      <point x="521" y="147"/>
      <point x="481" y="147" type="curve" smooth="yes"/>
      <point x="440" y="147"/>
      <point x="412" y="173"/>
      <point x="412" y="212" type="curve" smooth="yes"/>
      <point x="412" y="219"/>
      <point x="412" y="224"/>
      <point x="413" y="232" type="curve"/>
      <point x="374" y="174"/>
      <point x="345" y="153"/>
      <point x="305" y="153" type="curve" smooth="yes"/>
      <point x="272" y="153"/>
      <point x="236" y="171"/>
      <point x="213" y="198" type="curve" smooth="yes"/>
      <point x="191" y="224"/>
      <point x="180" y="260"/>
      <point x="180" y="302" type="curve" smooth="yes"/>
      <point x="180" y="363"/>
      <point x="203" y="424"/>
      <point x="244" y="471" type="curve"/>
      <point x="283" y="514"/>
      <point x="337" y="543"/>
      <point x="381" y="543" type="curve" smooth="yes"/>
      <point x="419" y="543"/>
      <point x="447" y="519"/>
      <point x="459" y="478" type="curve"/>
      <point x="475" y="534" type="line"/>
      <point x="563" y="534" type="line"/>
      <point x="490" y="245" type="line" smooth="yes"/>
      <point x="487" y="233"/>
      <point x="486" y="223"/>
      <point x="486" y="215" type="curve" smooth="yes"/>
      <point x="486" y="201"/>
      <point x="497" y="191"/>
      <point x="513" y="191" type="curve" smooth="yes"/>
      <point x="541" y="191"/>
      <point x="582" y="219"/>
      <point x="616" y="260" type="curve"/>
      <point x="652" y="306"/>
      <point x="676" y="373"/>
      <point x="676" y="429" type="curve" smooth="yes"/>
      <point x="676" y="496"/>
      <point x="643" y="567"/>
      <point x="587" y="616" type="curve" smooth="yes"/>
      <point x="535" y="662"/>
      <point x="473" y="685"/>
      <point x="399" y="685" type="curve" smooth="yes"/>
      <point x="216" y="685"/>
      <point x="84" y="549"/>
      <point x="84" y="361" type="curve" smooth="yes"/>
      <point x="84" y="173"/>
      <point x="217" y="37"/>
      <point x="401" y="37" type="curve" smooth="yes"/>
      <point x="502" y="37"/>
      <point x="585" y="89"/>
    </contour>
    <contour>
      <point x="395" y="502" type="curve" smooth="yes"/>
      <point x="372" y="502"/>
      <point x="349" y="487"/>
      <point x="332" y="460" type="curve" smooth="yes"/>
      <point x="295" y="403"/>
      <point x="270" y="327"/>
      <point x="270" y="271" type="curve" smooth="yes"/>
      <point x="270" y="222"/>
      <point x="288" y="193"/>
      <point x="318" y="193" type="curve" smooth="yes"/>
      <point x="349" y="193"/>
      <point x="380" y="225"/>
      <point x="404" y="280" type="curve" smooth="yes"/>
      <point x="425" y="327"/>
      <point x="440" y="391"/>
      <point x="440" y="430" type="curve" smooth="yes"/>
      <point x="440" y="474"/>
      <point x="423" y="502"/>
    </contour>
  </outline>
</glyph>
<glyph name="A" format="1">
  <advance width="704"/>
  <unicode hex="0041"/>
  <outline>
    <contour>
      <point x="442" y="737" type="line"/>
      <point x="567" y="108" type="line" smooth="yes"/>
      <point x="577" y="56"/>
      <point x="588" y="47"/>
      <point x="643" y="47" type="curve" smooth="yes"/>
      <point x="668" y="47" type="line"/>
      <point x="663" y="0" type="line"/>
      <point x="362" y="0" type="line"/>
      <point x="367" y="47" type="line"/>
      <point x="383" y="47" type="line" smooth="yes"/>
      <point x="440" y="47"/>
      <point x="455" y="54"/>
      <point x="455" y="83" type="curve" smooth="yes"/>
      <point x="455" y="90"/>
      <point x="453" y="103"/>
      <point x="451" y="115" type="curve" smooth="yes"/>
      <point x="428" y="238" type="line"/>
      <point x="173" y="238" type="line"/>
      <point x="118" y="142" type="line" smooth="yes"/>
      <point x="106" y="122"/>
      <point x="100" y="102"/>
      <point x="100" y="87" type="curve" smooth="yes"/>
      <point x="100" y="57"/>
      <point x="117" y="47"/>
      <point x="169" y="47" type="curve" smooth="yes"/>
      <point x="193" y="47" type="line"/>
      <point x="187" y="0" type="line"/>
      <point x="-82" y="0" type="line"/>
      <point x="-77" y="47" type="line"/>
      <point x="-23" y="47"/>
      <point x="18" y="80"/>
      <point x="71" y="168" type="curve"/>
      <point x="401" y="737" type="line"/>
    </contour>
    <contour>
      <point x="420" y="285" type="line"/>
      <point x="363" y="572" type="line"/>
      <point x="200" y="285" type="line"/>
    </contour>
  </outline>
</glyph>
<glyph name="F" format="1">
  <advance width="667"/>
  <unicode hex="0046"/>
  <outline>
    <contour>
      <point x="698" y="722" type="line"/>
      <point x="659" y="481" type="line"/>
      <point x="614" y="481" type="line"/>
      <point x="614" y="516" type="line" smooth="yes"/>
      <point x="614" y="585"/>
      <point x="605" y="617"/>
      <point x="577" y="642" type="curve" smooth="yes"/>
      <point x="552" y="664"/>
      <point x="518" y="675"/>
      <point x="475" y="675" type="curve" smooth="yes"/>
      <point x="423" y="675" type="line" smooth="yes"/>
      <point x="348" y="675"/>
      <point x="340" y="670"/>
      <point x="323" y="606" type="curve" smooth="yes"/>
      <point x="268" y="401" type="line"/>
      <point x="291" y="401" type="line" smooth="yes"/>
      <point x="388" y="401"/>
      <point x="440" y="438"/>
      <point x="469" y="526" type="curve"/>
      <point x="514" y="520" type="line"/>
      <point x="425" y="186" type="line"/>
      <point x="380" y="194" type="line"/>
      <point x="387" y="226"/>
      <point x="389" y="241"/>
      <point x="389" y="263" type="curve" smooth="yes"/>
      <point x="389" y="324"/>
      <point x="352" y="354"/>
      <point x="278" y="354" type="curve" smooth="yes"/>
      <point x="256" y="354" type="line"/>
      <point x="194" y="123" type="line" smooth="yes"/>
      <point x="184" y="82"/>
      <point x="184" y="82"/>
      <point x="184" y="74" type="curve" smooth="yes"/>
      <point x="184" y="52"/>
      <point x="198" y="47"/>
      <point x="263" y="47" type="curve" smooth="yes"/>
      <point x="289" y="47" type="line"/>
      <point x="284" y="0" type="line"/>
      <point x="-34" y="0" type="line"/>
      <point x="-29" y="47" type="line"/>
      <point x="-24" y="47" type="line" smooth="yes"/>
      <point x="25" y="47"/>
      <point x="48" y="51"/>
      <point x="59" y="61" type="curve" smooth="yes"/>
      <point x="67" y="69"/>
      <point x="68" y="70"/>
      <point x="82" y="123" type="curve" smooth="yes"/>
      <point x="210" y="599" type="line" smooth="yes"/>
      <point x="215" y="619"/>
      <point x="219" y="640"/>
      <point x="219" y="648" type="curve" smooth="yes"/>
      <point x="219" y="670"/>
      <point x="205" y="675"/>
      <point x="140" y="675" type="curve" smooth="yes"/>
      <point x="114" y="675" type="line"/>
      <point x="120" y="722" type="line"/>
    </contour>
  </outline>
</glyph>
<glyph name="G" format="1">
  <advance width="778"/>
  <unicode hex="0047"/>
  <outline>
    <contour>
      <point x="739" y="715" type="line"/>
      <point x="684" y="434" type="line"/>
      <point x="642" y="441" type="line"/>
      <point x="641" y="510"/>
      <point x="635" y="550"/>
      <point x="618" y="588" type="curve" smooth="yes"/>
      <point x="589" y="655"/>
      <point x="532" y="694"/>
      <point x="463" y="694" type="curve" smooth="yes"/>
      <point x="373" y="694"/>
      <point x="297" y="637"/>
      <point x="238" y="525" type="curve" smooth="yes"/>
      <point x="191" y="435"/>
      <point x="161" y="318"/>
      <point x="161" y="222" type="curve" smooth="yes"/>
      <point x="161" y="101"/>
      <point x="228" y="28"/>
      <point x="339" y="28" type="curve" smooth="yes"/>
      <point x="435" y="28"/>
      <point x="501" y="80"/>
      <point x="527" y="178" type="curve"/>
      <point x="536" y="209" type="line" smooth="yes"/>
      <point x="541" y="229"/>
      <point x="545" y="250"/>
      <point x="545" y="258" type="curve" smooth="yes"/>
      <point x="545" y="280"/>
      <point x="531" y="285"/>
      <point x="466" y="285" type="curve" smooth="yes"/>
      <point x="433" y="285" type="line"/>
      <point x="438" y="332" type="line"/>
      <point x="763" y="332" type="line"/>
      <point x="757" y="285" type="line"/>
      <point x="753" y="285" type="line" smooth="yes"/>
      <point x="704" y="285"/>
      <point x="681" y="281"/>
      <point x="670" y="271" type="curve" smooth="yes"/>
      <point x="661" y="264"/>
      <point x="661" y="263"/>
      <point x="647" y="209" type="curve" smooth="yes"/>
      <point x="587" y="-14" type="line"/>
      <point x="543" y="-14" type="line"/>
      <point x="531" y="67" type="line"/>
      <point x="469" y="8"/>
      <point x="409" y="-15"/>
      <point x="314" y="-15" type="curve" smooth="yes"/>
      <point x="142" y="-15"/>
      <point x="39" y="92"/>
      <point x="39" y="273" type="curve" smooth="yes"/>
      <point x="39" y="399"/>
      <point x="92" y="522"/>
      <point x="188" y="618" type="curve" smooth="yes"/>
      <point x="267" y="697"/>
      <point x="357" y="737"/>
      <point x="455" y="737" type="curve" smooth="yes"/>
      <point x="536" y="737"/>
      <point x="591" y="712"/>
      <point x="643" y="653" type="curve"/>
      <point x="705" y="715" type="line"/>
    </contour>
  </outline>
</glyph>
<glyph name="I" format="1">
  <advance width="407"/>
  <unicode hex="0049"/>
  <outline>
    <contour>
      <point x="283" y="47" type="line"/>
      <point x="277" y="0" type="line"/>
      <point x="-33" y="0" type="line"/>
      <point x="-28" y="47" type="line"/>
      <point x="31" y="48"/>
      <point x="44" y="50"/>
      <point x="56" y="61" type="curve" smooth="yes"/>
      <point x="65" y="70"/>
      <point x="66" y="73"/>
      <point x="79" y="123" type="curve" smooth="yes"/>
      <point x="207" y="599" type="line" smooth="yes"/>
      <point x="214" y="626"/>
      <point x="217" y="640"/>
      <point x="217" y="648" type="curve" smooth="yes"/>
      <point x="217" y="670"/>
      <point x="203" y="675"/>
      <point x="137" y="675" type="curve" smooth="yes"/>
      <point x="115" y="675" type="line"/>
      <point x="121" y="722" type="line"/>
      <point x="431" y="722" type="line"/>
      <point x="426" y="675" type="line"/>
      <point x="368" y="674"/>
      <point x="354" y="672"/>
      <point x="342" y="661" type="curve" smooth="yes"/>
      <point x="333" y="652"/>
      <point x="333" y="651"/>
      <point x="319" y="599" type="curve" smooth="yes"/>
      <point x="191" y="123" type="line" smooth="yes"/>
      <point x="182" y="89"/>
      <point x="181" y="84"/>
      <point x="181" y="75" type="curve" smooth="yes"/>
      <point x="181" y="52"/>
      <point x="195" y="47"/>
      <point x="261" y="47" type="curve" smooth="yes"/>
    </contour>
  </outline>
</glyph>
<glyph name="K" format="1">
  <advance width="741"/>
  <unicode hex="004B"/>
  <outline>
    <contour>
      <point x="247" y="342" type="line"/>
      <point x="535" y="582" type="line" smooth="yes"/>
      <point x="573" y="613"/>
      <point x="589" y="633"/>
      <point x="589" y="650" type="curve" smooth="yes"/>
      <point x="589" y="669"/>
      <point x="575" y="675"/>
      <point x="530" y="675" type="curve" smooth="yes"/>
      <point x="508" y="675" type="line"/>
      <point x="514" y="722" type="line"/>
      <point x="814" y="722" type="line"/>
      <point x="809" y="675" type="line"/>
      <point x="729" y="669"/>
      <point x="687" y="649"/>
      <point x="608" y="577" type="curve"/>
      <point x="420" y="420" type="line"/>
      <point x="572" y="105" type="line" smooth="yes"/>
      <point x="600" y="47"/>
      <point x="600" y="47"/>
      <point x="666" y="47" type="curve" smooth="yes"/>
      <point x="697" y="47" type="line"/>
      <point x="691" y="0" type="line"/>
      <point x="364" y="0" type="line"/>
      <point x="369" y="47" type="line"/>
      <point x="402" y="47" type="line" smooth="yes"/>
      <point x="455" y="47"/>
      <point x="470" y="51"/>
      <point x="470" y="65" type="curve" smooth="yes"/>
      <point x="470" y="71"/>
      <point x="470" y="71"/>
      <point x="454" y="104" type="curve" smooth="yes"/>
      <point x="337" y="350" type="line"/>
      <point x="224" y="257" type="line"/>
      <point x="188" y="123" type="line" smooth="yes"/>
      <point x="178" y="82"/>
      <point x="178" y="82"/>
      <point x="178" y="74" type="curve" smooth="yes"/>
      <point x="178" y="52"/>
      <point x="192" y="47"/>
      <point x="257" y="47" type="curve" smooth="yes"/>
      <point x="283" y="47" type="line"/>
      <point x="278" y="0" type="line"/>
      <point x="-40" y="0" type="line"/>
      <point x="-35" y="47" type="line"/>
      <point x="-30" y="47" type="line" smooth="yes"/>
      <point x="19" y="47"/>
      <point x="42" y="51"/>
      <point x="53" y="61" type="curve" smooth="yes"/>
      <point x="61" y="68"/>
      <point x="62" y="69"/>
      <point x="76" y="123" type="curve" smooth="yes"/>
      <point x="204" y="599" type="line" smooth="yes"/>
      <point x="209" y="619"/>
      <point x="213" y="640"/>
      <point x="213" y="648" type="curve" smooth="yes"/>
      <point x="213" y="670"/>
      <point x="199" y="675"/>
      <point x="134" y="675" type="curve" smooth="yes"/>
      <point x="108" y="675" type="line"/>
      <point x="114" y="722" type="line"/>
      <point x="431" y="722" type="line"/>
      <point x="426" y="675" type="line"/>
      <point x="422" y="675" type="line" smooth="yes"/>
      <point x="373" y="675"/>
      <point x="349" y="671"/>
      <point x="339" y="661" type="curve"/>
      <point x="330" y="654"/>
      <point x="330" y="654"/>
      <point x="315" y="599" type="curve" smooth="yes"/>
    </contour>
  </outline>
</glyph>
<glyph name="N" format="1">
  <advance width="815"/>
  <unicode hex="004E"/>
  <outline>
    <contour>
      <point x="315" y="722" type="line"/>
      <point x="568" y="170" type="line"/>
      <point x="658" y="505" type="line"/>
      <point x="680" y="594"/>
      <point x="681" y="598"/>
      <point x="681" y="620" type="curve" smooth="yes"/>
      <point x="681" y="657"/>
      <point x="652" y="675"/>
      <point x="591" y="675" type="curve"/>
      <point x="597" y="722" type="line"/>
      <point x="859" y="722" type="line"/>
      <point x="854" y="675" type="line"/>
      <point x="770" y="672"/>
      <point x="750" y="649"/>
      <point x="712" y="505" type="curve" smooth="yes"/>
      <point x="573" y="-14" type="line"/>
      <point x="534" y="-14" type="line"/>
      <point x="256" y="587" type="line"/>
      <point x="157" y="217" type="line" smooth="yes"/>
      <point x="134" y="128"/>
      <point x="133" y="124"/>
      <point x="133" y="102" type="curve" smooth="yes"/>
      <point x="133" y="65"/>
      <point x="162" y="47"/>
      <point x="223" y="47" type="curve" smooth="yes"/>
      <point x="234" y="47" type="line"/>
      <point x="228" y="0" type="line"/>
      <point x="-48" y="0" type="line"/>
      <point x="-43" y="47" type="line"/>
      <point x="44" y="49"/>
      <point x="63" y="71"/>
      <point x="102" y="217" type="curve" smooth="yes"/>
      <point x="216" y="643" type="line"/>
      <point x="208" y="670"/>
      <point x="199" y="675"/>
      <point x="151" y="675" type="curve" smooth="yes"/>
      <point x="99" y="675" type="line"/>
      <point x="104" y="722" type="line"/>
    </contour>
  </outline>
</glyph>
<glyph name="Q" format="1">
  <advance width="778"/>
  <unicode hex="0051"/>
  <outline>
    <contour>
      <point x="498" y="27" type="curve"/>
      <point x="498" y="5" type="line"/>
      <point x="499" y="-61"/>
      <point x="504" y="-82"/>
      <point x="524" y="-102" type="curve" smooth="yes"/>
      <point x="530" y="-107"/>
      <point x="539" y="-111"/>
      <point x="548" y="-111" type="curve" smooth="yes"/>
      <point x="574" y="-111"/>
      <point x="601" y="-84"/>
      <point x="623" y="-38" type="curve"/>
      <point x="658" y="-60" type="line"/>
      <point x="639" y="-95"/>
      <point x="623" y="-119"/>
      <point x="605" y="-139" type="curve" smooth="yes"/>
      <point x="578" y="-169"/>
      <point x="537" y="-188"/>
      <point x="500" y="-188" type="curve" smooth="yes"/>
      <point x="433" y="-188"/>
      <point x="385" y="-131"/>
      <point x="385" y="-51" type="curve" smooth="yes"/>
      <point x="385" y="-42"/>
      <point x="386" y="-25"/>
      <point x="389" y="-8" type="curve"/>
      <point x="364" y="-13"/>
      <point x="347" y="-15"/>
      <point x="323" y="-15" type="curve" smooth="yes"/>
      <point x="147" y="-15"/>
      <point x="40" y="96"/>
      <point x="40" y="278" type="curve" smooth="yes"/>
      <point x="40" y="520"/>
      <point x="234" y="737"/>
      <point x="452" y="737" type="curve" smooth="yes"/>
      <point x="529" y="737"/>
      <point x="599" y="711"/>
      <point x="651" y="663" type="curve" smooth="yes"/>
      <point x="708" y="611"/>
      <point x="735" y="542"/>
      <point x="735" y="447" type="curve" smooth="yes"/>
      <point x="735" y="350"/>
      <point x="704" y="254"/>
      <point x="644" y="167" type="curve" smooth="yes"/>
      <point x="609" y="116"/>
      <point x="569" y="78"/>
    </contour>
    <contour>
      <point x="485" y="116" type="curve"/>
      <point x="565" y="226"/>
      <point x="615" y="375"/>
      <point x="615" y="505" type="curve" smooth="yes"/>
      <point x="615" y="564"/>
      <point x="603" y="612"/>
      <point x="580" y="640" type="curve" smooth="yes"/>
      <point x="555" y="672"/>
      <point x="506" y="693"/>
      <point x="455" y="693" type="curve" smooth="yes"/>
      <point x="382" y="693"/>
      <point x="311" y="646"/>
      <point x="260" y="564" type="curve" smooth="yes"/>
      <point x="198" y="464"/>
      <point x="157" y="319"/>
      <point x="157" y="200" type="curve" smooth="yes"/>
      <point x="157" y="141"/>
      <point x="167" y="107"/>
      <point x="195" y="72" type="curve"/>
      <point x="188" y="95"/>
      <point x="186" y="106"/>
      <point x="186" y="123" type="curve" smooth="yes"/>
      <point x="186" y="207"/>
      <point x="247" y="267"/>
      <point x="333" y="267" type="curve" smooth="yes"/>
      <point x="420" y="267"/>
      <point x="475" y="213"/>
    </contour>
    <contour>
      <point x="396" y="45" type="curve"/>
      <point x="404" y="89"/>
      <point x="405" y="94"/>
      <point x="405" y="117" type="curve" smooth="yes"/>
      <point x="405" y="178"/>
      <point x="371" y="218"/>
      <point x="318" y="218" type="curve" smooth="yes"/>
      <point x="264" y="218"/>
      <point x="223" y="175"/>
      <point x="223" y="118" type="curve" smooth="yes"/>
      <point x="223" y="62"/>
      <point x="259" y="29"/>
      <point x="321" y="29" type="curve" smooth="yes"/>
      <point x="346" y="29"/>
      <point x="366" y="33"/>
    </contour>
  </outline>
</glyph>
<glyph name="T" format="1">
  <advance width="685"/>
  <unicode hex="0054"/>
  <outline>
    <contour>
      <point x="726" y="722" type="line"/>
      <point x="684" y="447" type="line"/>
      <point x="642" y="452" type="line"/>
      <point x="644" y="493"/>
      <point x="644" y="504"/>
      <point x="644" y="522" type="curve" smooth="yes"/>
      <point x="644" y="580"/>
      <point x="630" y="628"/>
      <point x="607" y="650" type="curve" smooth="yes"/>
      <point x="589" y="666"/>
      <point x="560" y="675"/>
      <point x="522" y="675" type="curve" smooth="yes"/>
      <point x="508" y="675" type="line" smooth="yes"/>
      <point x="477" y="675"/>
      <point x="472" y="670"/>
      <point x="458" y="619" type="curve" smooth="yes"/>
      <point x="325" y="123" type="line" smooth="yes"/>
      <point x="320" y="104"/>
      <point x="316" y="81"/>
      <point x="316" y="74" type="curve" smooth="yes"/>
      <point x="316" y="52"/>
      <point x="330" y="47"/>
      <point x="395" y="47" type="curve" smooth="yes"/>
      <point x="432" y="47" type="line"/>
      <point x="426" y="0" type="line"/>
      <point x="80" y="0" type="line"/>
      <point x="85" y="47" type="line"/>
      <point x="107" y="47" type="line" smooth="yes"/>
      <point x="156" y="47"/>
      <point x="180" y="51"/>
      <point x="191" y="61" type="curve" smooth="yes"/>
      <point x="199" y="69"/>
      <point x="200" y="70"/>
      <point x="214" y="123" type="curve" smooth="yes"/>
      <point x="350" y="633" type="line" smooth="yes"/>
      <point x="353" y="644"/>
      <point x="355" y="653"/>
      <point x="355" y="658" type="curve" smooth="yes"/>
      <point x="355" y="670"/>
      <point x="345" y="675"/>
      <point x="322" y="675" type="curve" smooth="yes"/>
      <point x="308" y="675" type="line" smooth="yes"/>
      <point x="254" y="675"/>
      <point x="207" y="650"/>
      <point x="167" y="598" type="curve" smooth="yes"/>
      <point x="140" y="564"/>
      <point x="130" y="547"/>
      <point x="81" y="458" type="curve"/>
      <point x="40" y="464" type="line"/>
      <point x="128" y="722" type="line"/>
    </contour>
  </outline>
</glyph>
<glyph name="W" format="1">
  <advance width="926"/>
  <unicode hex="0057"/>
  <outline>
    <contour>
      <point x="630" y="196" type="line"/>
      <point x="793" y="572" type="line" smooth="yes"/>
      <point x="809" y="610"/>
      <point x="816" y="631"/>
      <point x="816" y="644" type="curve" smooth="yes"/>
      <point x="816" y="665"/>
      <point x="795" y="675"/>
      <point x="752" y="675" type="curve" smooth="yes"/>
      <point x="735" y="675" type="line"/>
      <point x="740" y="722" type="line"/>
      <point x="973" y="722" type="line"/>
      <point x="968" y="675" type="line"/>
      <point x="900" y="660"/>
      <point x="880" y="638"/>
      <point x="833" y="532" type="curve" smooth="yes"/>
      <point x="595" y="-15" type="line"/>
      <point x="557" y="-15" type="line"/>
      <point x="487" y="490" type="line"/>
      <point x="260" y="-15" type="line"/>
      <point x="225" y="-15" type="line"/>
      <point x="146" y="587" type="line" smooth="yes"/>
      <point x="141" y="624"/>
      <point x="134" y="652"/>
      <point x="127" y="659" type="curve" smooth="yes"/>
      <point x="118" y="670"/>
      <point x="101" y="675"/>
      <point x="79" y="675" type="curve" smooth="yes"/>
      <point x="53" y="675" type="line"/>
      <point x="58" y="722" type="line"/>
      <point x="325" y="722" type="line"/>
      <point x="319" y="675" type="line"/>
      <point x="301" y="675" type="line" smooth="yes"/>
      <point x="259" y="675"/>
      <point x="244" y="667"/>
      <point x="244" y="645" type="curve" smooth="yes"/>
      <point x="244" y="639"/>
      <point x="244" y="634"/>
      <point x="249" y="599" type="curve" smooth="yes"/>
      <point x="303" y="196" type="line"/>
      <point x="471" y="579" type="line"/>
      <point x="464" y="629" type="line" smooth="yes"/>
      <point x="458" y="672"/>
      <point x="452" y="675"/>
      <point x="389" y="675" type="curve" smooth="yes"/>
      <point x="376" y="675" type="line"/>
      <point x="381" y="722" type="line"/>
      <point x="659" y="722" type="line"/>
      <point x="654" y="675" type="line"/>
      <point x="635" y="675" type="line" smooth="yes"/>
      <point x="586" y="675"/>
      <point x="574" y="669"/>
      <point x="574" y="648" type="curve" smooth="yes"/>
      <point x="574" y="639"/>
      <point x="575" y="631"/>
      <point x="576" y="621" type="curve" smooth="yes"/>
    </contour>
  </outline>
</glyph>
<glyph name="bracketleft" format="1">
  <advance width="333"/>
  <unicode hex="005B"/>
  <outline>
    <contour>
      <point x="61" y="-76" type="line"/>
      <point x="207" y="-76" type="line"/>
      <point x="198" y="-108" type="line"/>
      <point x="-33" y="-108" type="line"/>
      <point x="190" y="722" type="line"/>
      <point x="410" y="722" type="line"/>
      <point x="401" y="689" type="line"/>
      <point x="266" y="689" type="line"/>
    </contour>
  </outline>
</glyph>
<glyph name="backslash" format="1">
  <advance width="606"/>
  <unicode hex="005C"/>
  <outline>
    <contour>
      <point x="143" y="708" type="line"/>
      <point x="522" y="0" type="line"/>
      <point x="468" y="0" type="line"/>
      <point x="89" y="708" type="line"/>
    </contour>
  </outline>
</glyph>
<glyph name="bracketright" format="1">
  <advance width="333"/>
  <unicode hex="005D"/>
  <outline>
    <contour>
      <point x="265" y="690" type="line"/>
      <point x="119" y="690" type="line"/>
      <point x="128" y="722" type="line"/>
      <point x="359" y="722" type="line"/>
      <point x="136" y="-108" type="line"/>
      <point x="-83" y="-108" type="line"/>
      <point x="-74" y="-75" type="line"/>
      <point x="60" y="-75" type="line"/>
    </contour>
  </outline>
</glyph>
<glyph name="underscore" format="1">
  <advance width="500"/>
  <unicode hex="005F"/>
  <outline>
    <contour>
      <point x="0" y="-81" type="line"/>
      <point x="500" y="-81" type="line"/>
      <point x="500" y="-123" type="line"/>
      <point x="0" y="-123" type="line"/>
    </contour>
  </outline>
</glyph>
<glyph name="d" format="1">
  <advance width="611"/>
  <unicode hex="0064"/>
  <outline>
    <contour>
      <point x="534" y="158" type="curve"/>
      <point x="564" y="140" type="line"/>
      <point x="508" y="34"/>
      <point x="452" y="-15"/>
      <point x="389" y="-15" type="curve" smooth="yes"/>
      <point x="345" y="-15"/>
      <point x="321" y="10"/>
      <point x="321" y="56" type="curve" smooth="yes"/>
      <point x="321" y="60"/>
      <point x="321" y="70"/>
      <point x="322" y="78" type="curve"/>
      <point x="278" y="14"/>
      <point x="228" y="-15"/>
      <point x="160" y="-15" type="curve" smooth="yes"/>
      <point x="67" y="-15"/>
      <point x="3" y="52"/>
      <point x="3" y="150" type="curve" smooth="yes"/>
      <point x="3" y="316"/>
      <point x="137" y="470"/>
      <point x="281" y="470" type="curve" smooth="yes"/>
      <point x="316" y="470"/>
      <point x="350" y="456"/>
      <point x="371" y="434" type="curve" smooth="yes"/>
      <point x="382" y="422"/>
      <point x="388" y="412"/>
      <point x="396" y="388" type="curve"/>
      <point x="462" y="611" type="line" smooth="yes"/>
      <point x="468" y="631"/>
      <point x="471" y="645"/>
      <point x="471" y="655" type="curve" smooth="yes"/>
      <point x="471" y="677"/>
      <point x="455" y="686"/>
      <point x="414" y="686" type="curve" smooth="yes"/>
      <point x="383" y="686" type="line"/>
      <point x="387" y="722" type="line"/>
      <point x="586" y="737" type="line"/>
      <point x="408" y="137" type="line" smooth="yes"/>
      <point x="398" y="102"/>
      <point x="393" y="79"/>
      <point x="393" y="65" type="curve" smooth="yes"/>
      <point x="393" y="48"/>
      <point x="402" y="38"/>
      <point x="418" y="38" type="curve" smooth="yes"/>
      <point x="451" y="38"/>
      <point x="476" y="64"/>
    </contour>
    <contour>
      <point x="284" y="425" type="curve" smooth="yes"/>
      <point x="235" y="425"/>
      <point x="191" y="392"/>
      <point x="153" y="326" type="curve" smooth="yes"/>
      <point x="121" y="270"/>
      <point x="100" y="197"/>
      <point x="100" y="140" type="curve" smooth="yes"/>
      <point x="100" y="75"/>
      <point x="136" y="32"/>
      <point x="189" y="32" type="curve" smooth="yes"/>
      <point x="237" y="32"/>
      <point x="279" y="65"/>
      <point x="312" y="129" type="curve" smooth="yes"/>
      <point x="344" y="190"/>
      <point x="369" y="281"/>
      <point x="369" y="334" type="curve" smooth="yes"/>
      <point x="369" y="387"/>
      <point x="333" y="425"/>
    </contour>
  </outline>
</glyph>
<glyph name="k" format="1">
  <advance width="556"/>
  <unicode hex="006B"/>
  <outline>
    <contour>
      <point x="300" y="737" type="line"/>
      <point x="176" y="319" type="line"/>
      <point x="244" y="424"/>
      <point x="304" y="470"/>
      <point x="373" y="470" type="curve" smooth="yes"/>
      <point x="428" y="470"/>
      <point x="471" y="430"/>
      <point x="471" y="379" type="curve" smooth="yes"/>
      <point x="471" y="312"/>
      <point x="406" y="254"/>
      <point x="288" y="212" type="curve"/>
      <point x="320" y="186"/>
      <point x="331" y="160"/>
      <point x="336" y="90" type="curve" smooth="yes"/>
      <point x="339" y="50"/>
      <point x="343" y="41"/>
      <point x="357" y="41" type="curve" smooth="yes"/>
      <point x="381" y="41"/>
      <point x="404" y="66"/>
      <point x="461" y="154" type="curve"/>
      <point x="492" y="134" type="line"/>
      <point x="430" y="30"/>
      <point x="380" y="-15"/>
      <point x="325" y="-15" type="curve" smooth="yes"/>
      <point x="275" y="-15"/>
      <point x="251" y="18"/>
      <point x="251" y="85" type="curve" smooth="yes"/>
      <point x="251" y="89"/>
      <point x="251" y="108"/>
      <point x="252" y="134" type="curve"/>
      <point x="252" y="171" type="line" smooth="yes"/>
      <point x="252" y="189"/>
      <point x="247" y="198"/>
      <point x="236" y="198" type="curve" smooth="yes"/>
      <point x="234" y="198"/>
      <point x="234" y="198"/>
      <point x="216" y="196" type="curve" smooth="yes"/>
      <point x="209" y="195"/>
      <point x="204" y="195"/>
      <point x="202" y="195" type="curve" smooth="yes"/>
      <point x="190" y="195"/>
      <point x="180" y="205"/>
      <point x="180" y="217" type="curve" smooth="yes"/>
      <point x="180" y="234"/>
      <point x="191" y="244"/>
      <point x="211" y="244" type="curve" smooth="yes"/>
      <point x="219" y="244"/>
      <point x="231" y="242"/>
      <point x="238" y="239" type="curve" smooth="yes"/>
      <point x="244" y="237"/>
      <point x="249" y="236"/>
      <point x="251" y="236" type="curve" smooth="yes"/>
      <point x="258" y="236"/>
      <point x="271" y="241"/>
      <point x="293" y="252" type="curve" smooth="yes"/>
      <point x="361" y="286"/>
      <point x="390" y="318"/>
      <point x="390" y="359" type="curve" smooth="yes"/>
      <point x="390" y="388"/>
      <point x="370" y="410"/>
      <point x="344" y="410" type="curve" smooth="yes"/>
      <point x="306" y="410"/>
      <point x="254" y="374"/>
      <point x="210" y="318" type="curve" smooth="yes"/>
      <point x="178" y="277"/>
      <point x="140" y="197"/>
      <point x="120" y="130" type="curve" smooth="yes"/>
      <point x="82" y="0" type="line"/>
      <point x="-5" y="0" type="line"/>
      <point x="176" y="611" type="line" smooth="yes"/>
      <point x="182" y="633"/>
      <point x="185" y="645"/>
      <point x="185" y="655" type="curve" smooth="yes"/>
      <point x="185" y="677"/>
      <point x="169" y="686"/>
      <point x="128" y="686" type="curve" smooth="yes"/>
      <point x="97" y="686" type="line"/>
      <point x="101" y="722" type="line"/>
    </contour>
  </outline>
</glyph>
<glyph name="l" format="1">
  <advance width="333"/>
  <unicode hex="006C"/>
  <outline>
    <contour>
      <point x="294" y="737" type="line"/>
      <point x="109" y="112" type="line" smooth="yes"/>
      <point x="96" y="69"/>
      <point x="96" y="68"/>
      <point x="96" y="57" type="curve" smooth="yes"/>
      <point x="96" y="45"/>
      <point x="103" y="36"/>
      <point x="114" y="36" type="curve" smooth="yes"/>
      <point x="142" y="36"/>
      <point x="187" y="80"/>
      <point x="237" y="157" type="curve"/>
      <point x="268" y="140" type="line"/>
      <point x="208" y="38"/>
      <point x="144" y="-15"/>
      <point x="81" y="-15" type="curve" smooth="yes"/>
      <point x="41" y="-15"/>
      <point x="16" y="12"/>
      <point x="16" y="55" type="curve" smooth="yes"/>
      <point x="16" y="86"/>
      <point x="19" y="102"/>
      <point x="43" y="182" type="curve" smooth="yes"/>
      <point x="170" y="611" type="line" smooth="yes"/>
      <point x="176" y="631"/>
      <point x="179" y="645"/>
      <point x="179" y="655" type="curve" smooth="yes"/>
      <point x="179" y="677"/>
      <point x="163" y="686"/>
      <point x="122" y="686" type="curve" smooth="yes"/>
      <point x="91" y="686" type="line"/>
      <point x="95" y="722" type="line"/>
    </contour>
  </outline>
</glyph>
<glyph name="q" format="1">
  <advance width="556"/>
  <unicode hex="0071"/>
  <outline>
    <contour>
      <point x="499" y="470" type="line"/>
      <point x="333" y="-90" type="line" smooth="yes"/>
      <point x="327" y="-111"/>
      <point x="322" y="-132"/>
      <point x="322" y="-140" type="curve" smooth="yes"/>
      <point x="322" y="-160"/>
      <point x="338" y="-166"/>
      <point x="386" y="-166" type="curve" smooth="yes"/>
      <point x="394" y="-166" type="line"/>
      <point x="390" y="-202" type="line"/>
      <point x="144" y="-202" type="line"/>
      <point x="148" y="-166" type="line"/>
      <point x="225" y="-164"/>
      <point x="226" y="-163"/>
      <point x="246" y="-90" type="curve"/>
      <point x="289" y="55" type="line"/>
      <point x="244" y="7"/>
      <point x="202" y="-14"/>
      <point x="151" y="-14" type="curve" smooth="yes"/>
      <point x="112" y="-14"/>
      <point x="67" y="3"/>
      <point x="42" y="29" type="curve"/>
      <point x="16" y="54"/>
      <point x="0" y="99"/>
      <point x="0" y="145" type="curve" smooth="yes"/>
      <point x="0" y="314"/>
      <point x="130" y="470"/>
      <point x="271" y="470" type="curve" smooth="yes"/>
      <point x="323" y="470"/>
      <point x="366" y="446"/>
      <point x="399" y="401" type="curve"/>
      <point x="460" y="470" type="line"/>
    </contour>
    <contour>
      <point x="276" y="431" type="curve" smooth="yes"/>
      <point x="228" y="431"/>
      <point x="178" y="390"/>
      <point x="141" y="319" type="curve" smooth="yes"/>
      <point x="114" y="268"/>
      <point x="95" y="192"/>
      <point x="95" y="138" type="curve" smooth="yes"/>
      <point x="95" y="76"/>
      <point x="127" y="34"/>
      <point x="173" y="34" type="curve" smooth="yes"/>
      <point x="226" y="34"/>
      <point x="277" y="77"/>
      <point x="312" y="153" type="curve" smooth="yes"/>
      <point x="336" y="205"/>
      <point x="356" y="287"/>
      <point x="356" y="336" type="curve" smooth="yes"/>
      <point x="356" y="392"/>
      <point x="323" y="431"/>
    </contour>
  </outline>
</glyph>
<glyph name="x" format="1">
  <advance width="500"/>
  <unicode hex="0078"/>
  <outline>
    <contour>
      <point x="201" y="155" type="line"/>
      <point x="171" y="101" type="line" smooth="yes"/>
      <point x="128" y="25"/>
      <point x="81" y="-15"/>
      <point x="33" y="-15" type="curve" smooth="yes"/>
      <point x="-7" y="-15"/>
      <point x="-33" y="10"/>
      <point x="-33" y="47" type="curve" smooth="yes"/>
      <point x="-33" y="81"/>
      <point x="-12" y="105"/>
      <point x="18" y="105" type="curve" smooth="yes"/>
      <point x="43" y="105"/>
      <point x="56" y="93"/>
      <point x="61" y="66" type="curve" smooth="yes"/>
      <point x="63" y="53"/>
      <point x="69" y="46"/>
      <point x="76" y="46" type="curve" smooth="yes"/>
      <point x="92" y="46"/>
      <point x="117" y="74"/>
      <point x="145" y="125" type="curve" smooth="yes"/>
      <point x="190" y="205" type="line"/>
      <point x="178" y="263" type="line" smooth="yes"/>
      <point x="158" y="362"/>
      <point x="158" y="362"/>
      <point x="149" y="378" type="curve" smooth="yes"/>
      <point x="145" y="386"/>
      <point x="135" y="393"/>
      <point x="128" y="393" type="curve" smooth="yes"/>
      <point x="111" y="393"/>
      <point x="97" y="378"/>
      <point x="46" y="305" type="curve"/>
      <point x="17" y="326" type="line"/>
      <point x="62" y="391"/>
      <point x="76" y="411"/>
      <point x="92" y="429" type="curve" smooth="yes"/>
      <point x="117" y="457"/>
      <point x="139" y="470"/>
      <point x="161" y="470" type="curve" smooth="yes"/>
      <point x="202" y="470"/>
      <point x="224" y="437"/>
      <point x="241" y="351" type="curve" smooth="yes"/>
      <point x="252" y="296" type="line"/>
      <point x="281" y="348" type="line" smooth="yes"/>
      <point x="315" y="411"/>
      <point x="316" y="411"/>
      <point x="336" y="433" type="curve" smooth="yes"/>
      <point x="357" y="456"/>
      <point x="387" y="470"/>
      <point x="414" y="470" type="curve" smooth="yes"/>
      <point x="447" y="470"/>
      <point x="471" y="444"/>
      <point x="471" y="409" type="curve" smooth="yes"/>
      <point x="471" y="376"/>
      <point x="452" y="355"/>
      <point x="421" y="355" type="curve" smooth="yes"/>
      <point x="403" y="355"/>
      <point x="396" y="360"/>
      <point x="387" y="380" type="curve" smooth="yes"/>
      <point x="383" y="389"/>
      <point x="378" y="393"/>
      <point x="370" y="393" type="curve" smooth="yes"/>
      <point x="352" y="393"/>
      <point x="331" y="371"/>
      <point x="307" y="326" type="curve" smooth="yes"/>
      <point x="263" y="245" type="line"/>
      <point x="282" y="150" type="line"/>
      <point x="300" y="68"/>
      <point x="310" y="46"/>
      <point x="333" y="46" type="curve" smooth="yes"/>
      <point x="351" y="46"/>
      <point x="368" y="61"/>
      <point x="397" y="100" type="curve" smooth="yes"/>
      <point x="412" y="121"/>
      <point x="415" y="126"/>
      <point x="425" y="142" type="curve"/>
      <point x="456" y="125" type="line"/>
      <point x="430" y="79"/>
      <point x="427" y="74"/>
      <point x="409" y="53" type="curve" smooth="yes"/>
      <point x="363" y="-3"/>
      <point x="345" y="-15"/>
      <point x="308" y="-15" type="curve" smooth="yes"/>
      <point x="259" y="-15"/>
      <point x="233" y="13"/>
      <point x="216" y="88" type="curve" smooth="yes"/>
    </contour>
  </outline>
</glyph>
<glyph name="y" format="1">
  <advance width="500"/>
  <unicode hex="0079"/>
  <outline>
    <contour>
      <point x="220" y="315" type="curve" smooth="yes"/>
      <point x="264" y="104" type="line"/>
      <point x="329" y="207"/>
      <point x="368" y="301"/>
      <point x="368" y="351" type="curve" smooth="yes"/>
      <point x="368" y="366"/>
      <point x="368" y="369"/>
      <point x="362" y="403" type="curve" smooth="yes"/>
      <point x="361" y="409"/>
      <point x="360" y="415"/>
      <point x="360" y="420" type="curve" smooth="yes"/>
      <point x="360" y="447"/>
      <point x="382" y="470"/>
      <point x="409" y="470" type="curve" smooth="yes"/>
      <point x="436" y="470"/>
      <point x="454" y="449"/>
      <point x="454" y="418" type="curve" smooth="yes"/>
      <point x="454" y="385"/>
      <point x="442" y="354"/>
      <point x="385" y="244" type="curve" smooth="yes"/>
      <point x="310" y="98"/>
      <point x="231" y="-34"/>
      <point x="184" y="-94" type="curve" smooth="yes"/>
      <point x="125" y="-168"/>
      <point x="71" y="-202"/>
      <point x="13" y="-202" type="curve" smooth="yes"/>
      <point x="-39" y="-202"/>
      <point x="-79" y="-169"/>
      <point x="-79" y="-128" type="curve" smooth="yes"/>
      <point x="-79" y="-98"/>
      <point x="-56" y="-74"/>
      <point x="-27" y="-74" type="curve" smooth="yes"/>
      <point x="-8" y="-74"/>
      <point x="9" y="-86"/>
      <point x="16" y="-105" type="curve" smooth="yes"/>
      <point x="19" y="-113"/>
      <point x="19" y="-113"/>
      <point x="19" y="-144" type="curve" smooth="yes"/>
      <point x="19" y="-154"/>
      <point x="26" y="-160"/>
      <point x="38" y="-160" type="curve" smooth="yes"/>
      <point x="65" y="-160"/>
      <point x="104" y="-132"/>
      <point x="144" y="-83" type="curve" smooth="yes"/>
      <point x="161" y="-61"/>
      <point x="168" y="-51"/>
      <point x="201" y="1" type="curve"/>
      <point x="179" y="127"/>
      <point x="161" y="211"/>
      <point x="130" y="325" type="curve" smooth="yes"/>
      <point x="119" y="368"/>
      <point x="106" y="389"/>
      <point x="92" y="389" type="curve" smooth="yes"/>
      <point x="75" y="389"/>
      <point x="64" y="373"/>
      <point x="27" y="293" type="curve"/>
      <point x="-4" y="307" type="line"/>
      <point x="37" y="415"/>
      <point x="82" y="470"/>
      <point x="126" y="470" type="curve" smooth="yes"/>
      <point x="169" y="470"/>
      <point x="197" y="424"/>
    </contour>
  </outline>
</glyph>
<glyph name="braceleft" format="1">
  <advance width="333"/>
  <unicode hex="007B"/>
  <outline>
    <contour>
      <point x="56" y="293" type="curve"/>
      <point x="63" y="321" type="line"/>
      <point x="128" y="340"/>
      <point x="150" y="367"/>
      <point x="170" y="454" type="curve"/>
      <point x="202" y="572" type="line" smooth="yes"/>
      <point x="220" y="638"/>
      <point x="239" y="674"/>
      <point x="270" y="695" type="curve" smooth="yes"/>
      <point x="293" y="711"/>
      <point x="335" y="722"/>
      <point x="371" y="722" type="curve" smooth="yes"/>
      <point x="381" y="722" type="line"/>
      <point x="373" y="693" type="line"/>
      <point x="318" y="687"/>
      <point x="292" y="655"/>
      <point x="267" y="560" type="curve" smooth="yes"/>
      <point x="232" y="432" type="line" smooth="yes"/>
      <point x="210" y="354"/>
      <point x="184" y="323"/>
      <point x="124" y="307" type="curve"/>
      <point x="160" y="293"/>
      <point x="176" y="273"/>
      <point x="176" y="242" type="curve" smooth="yes"/>
      <point x="176" y="228"/>
      <point x="173" y="210"/>
      <point x="163" y="175" type="curve" smooth="yes"/>
      <point x="134" y="64" type="line" smooth="yes"/>
      <point x="124" y="28"/>
      <point x="119" y="0"/>
      <point x="119" y="-20" type="curve" smooth="yes"/>
      <point x="119" y="-55"/>
      <point x="137" y="-77"/>
      <point x="169" y="-79" type="curve"/>
      <point x="161" y="-108" type="line"/>
      <point x="140" y="-108" type="line" smooth="yes"/>
      <point x="85" y="-108"/>
      <point x="52" y="-76"/>
      <point x="52" y="-21" type="curve" smooth="yes"/>
      <point x="52" y="4"/>
      <point x="56" y="28"/>
      <point x="69" y="74" type="curve" smooth="yes"/>
      <point x="92" y="162" type="line" smooth="yes"/>
      <point x="104" y="206"/>
      <point x="105" y="212"/>
      <point x="105" y="231" type="curve" smooth="yes"/>
      <point x="105" y="261"/>
      <point x="89" y="282"/>
    </contour>
  </outline>
</glyph>
<glyph name="bar" format="1">
  <advance width="606"/>
  <unicode hex="007C"/>
  <outline>
    <contour>
      <point x="337" y="722" type="line"/>
      <point x="337" y="0" type="line"/>
      <point x="269" y="0" type="line"/>
      <point x="269" y="722" type="line"/>
    </contour>
  </outline>
</glyph>
<glyph name="braceright" format="1">
  <advance width="333"/>
  <unicode hex="007D"/>
  <outline>
    <contour>
      <point x="227" y="321" type="curve"/>
      <point x="219" y="293" type="line"/>
      <point x="155" y="275"/>
      <point x="132" y="247"/>
      <point x="111" y="160" type="curve"/>
      <point x="80" y="42" type="line" smooth="yes"/>
      <point x="62" y="-24"/>
      <point x="42" y="-60"/>
      <point x="11" y="-81" type="curve" smooth="yes"/>
      <point x="-11" y="-97"/>
      <point x="-53" y="-108"/>
      <point x="-90" y="-108" type="curve" smooth="yes"/>
      <point x="-98" y="-108" type="line"/>
      <point x="-90" y="-79" type="line"/>
      <point x="-36" y="-73"/>
      <point x="-10" y="-41"/>
      <point x="15" y="54" type="curve" smooth="yes"/>
      <point x="50" y="182" type="line" smooth="yes"/>
      <point x="71" y="260"/>
      <point x="98" y="291"/>
      <point x="157" y="307" type="curve"/>
      <point x="122" y="321"/>
      <point x="106" y="341"/>
      <point x="106" y="372" type="curve" smooth="yes"/>
      <point x="106" y="387"/>
      <point x="109" y="405"/>
      <point x="118" y="439" type="curve" smooth="yes"/>
      <point x="148" y="550" type="line" smooth="yes"/>
      <point x="158" y="586"/>
      <point x="163" y="615"/>
      <point x="163" y="635" type="curve" smooth="yes"/>
      <point x="163" y="669"/>
      <point x="144" y="691"/>
      <point x="113" y="693" type="curve"/>
      <point x="121" y="722" type="line"/>
      <point x="142" y="722" type="line" smooth="yes"/>
      <point x="195" y="722"/>
      <point x="231" y="689"/>
      <point x="231" y="639" type="curve" smooth="yes"/>
      <point x="231" y="617"/>
      <point x="225" y="585"/>
      <point x="213" y="540" type="curve" smooth="yes"/>
      <point x="190" y="452" type="line" smooth="yes"/>
      <point x="178" y="408"/>
      <point x="177" y="402"/>
      <point x="177" y="383" type="curve" smooth="yes"/>
      <point x="177" y="353"/>
      <point x="195" y="330"/>
    </contour>
  </outline>
</glyph>
<glyph name="asciitilde" format="1">
  <advance width="606"/>
  <unicode hex="007E"/>
  <outline>
    <contour>
      <point x="94" y="182" type="curve"/>
      <point x="41" y="220" type="line"/>
      <point x="78" y="285"/>
      <point x="133" y="327"/>
      <point x="181" y="327" type="curve" smooth="yes"/>
      <point x="206" y="327"/>
      <point x="228" y="320"/>
      <point x="280" y="295" type="curve" smooth="yes"/>
      <point x="326" y="273" type="line" smooth="yes"/>
      <point x="379" y="247"/>
      <point x="386" y="245"/>
      <point x="406" y="245" type="curve" smooth="yes"/>
      <point x="434" y="245"/>
      <point x="465" y="269"/>
      <point x="492" y="310" type="curve"/>
      <point x="545" y="272" type="line"/>
      <point x="508" y="207"/>
      <point x="453" y="165"/>
      <point x="405" y="165" type="curve" smooth="yes"/>
      <point x="380" y="165"/>
      <point x="356" y="173"/>
      <point x="306" y="196" type="curve"/>
      <point x="260" y="219" type="line"/>
      <point x="202" y="246"/>
      <point x="200" y="247"/>
      <point x="180" y="247" type="curve" smooth="yes"/>
      <point x="152" y="247"/>
      <point x="121" y="223"/>
    </contour>
  </outline>
</glyph>
<glyph name="exclamdown" format="1">
  <advance width="333"/>
  <unicode hex="00A1"/>
  <outline>
    <contour>
      <point x="169" y="352" type="curve"/>
      <point x="205" y="342" type="line"/>
      <point x="156" y="158"/>
      <point x="135" y="40"/>
      <point x="126" y="-92" type="curve" smooth="yes"/>
      <point x="121" y="-162"/>
      <point x="93" y="-203"/>
      <point x="53" y="-203" type="curve" smooth="yes"/>
      <point x="17" y="-203"/>
      <point x="-7" y="-179"/>
      <point x="-7" y="-145" type="curve" smooth="yes"/>
      <point x="-7" y="-116"/>
      <point x="-6" y="-113"/>
      <point x="43" y="-9" type="curve"/>
      <point x="91" y="96"/>
      <point x="124" y="190"/>
    </contour>
    <contour>
      <point x="219" y="549" type="curve" smooth="yes"/>
      <point x="252" y="549"/>
      <point x="280" y="521"/>
      <point x="280" y="487" type="curve" smooth="yes"/>
      <point x="280" y="453"/>
      <point x="252" y="425"/>
      <point x="218" y="425" type="curve" smooth="yes"/>
      <point x="184" y="425"/>
      <point x="156" y="453"/>
      <point x="156" y="487" type="curve" smooth="yes"/>
      <point x="156" y="522"/>
      <point x="184" y="549"/>
    </contour>
  </outline>
</glyph>
<glyph name="cent" format="1">
  <advance width="556"/>
  <unicode hex="00A2"/>
  <outline>
    <contour>
      <point x="222" y="-14" type="curve"/>
      <point x="168" y="-135" type="line"/>
      <point x="125" y="-135" type="line"/>
      <point x="182" y="-8" type="line"/>
      <point x="107" y="14"/>
      <point x="61" y="81"/>
      <point x="61" y="167" type="curve" smooth="yes"/>
      <point x="61" y="328"/>
      <point x="188" y="469"/>
      <point x="332" y="469" type="curve" smooth="yes"/>
      <point x="351" y="469"/>
      <point x="366" y="466"/>
      <point x="388" y="457" type="curve"/>
      <point x="443" y="581" type="line"/>
      <point x="486" y="581" type="line"/>
      <point x="422" y="436" type="line"/>
      <point x="446" y="415"/>
      <point x="457" y="392"/>
      <point x="457" y="363" type="curve" smooth="yes"/>
      <point x="457" y="320"/>
      <point x="429" y="289"/>
      <point x="391" y="289" type="curve" smooth="yes"/>
      <point x="378" y="289"/>
      <point x="370" y="291"/>
      <point x="361" y="298" type="curve"/>
      <point x="244" y="35" type="line"/>
      <point x="308" y="42"/>
      <point x="340" y="63"/>
      <point x="397" y="135" type="curve"/>
      <point x="428" y="113" type="line"/>
      <point x="370" y="27"/>
      <point x="297" y="-18"/>
    </contour>
    <contour>
      <point x="205" y="46" type="curve"/>
      <point x="344" y="357" type="line" smooth="yes"/>
      <point x="352" y="376"/>
      <point x="360" y="383"/>
      <point x="378" y="387" type="curve" smooth="yes"/>
      <point x="391" y="390"/>
      <point x="393" y="391"/>
      <point x="393" y="400" type="curve" smooth="yes"/>
      <point x="393" y="417"/>
      <point x="362" y="432"/>
      <point x="328" y="432" type="curve" smooth="yes"/>
      <point x="278" y="432"/>
      <point x="237" y="398"/>
      <point x="201" y="326" type="curve" smooth="yes"/>
      <point x="171" y="266"/>
      <point x="156" y="210"/>
      <point x="156" y="156" type="curve" smooth="yes"/>
      <point x="156" y="103"/>
      <point x="173" y="66"/>
    </contour>
  </outline>
</glyph>
<glyph name="currency" format="1">
  <advance width="556"/>
  <unicode hex="00A4"/>
  <outline>
    <contour>
      <point x="425" y="545" type="curve"/>
      <point x="479" y="598" type="line"/>
      <point x="530" y="547" type="line"/>
      <point x="477" y="494" type="line"/>
      <point x="511" y="450"/>
      <point x="529" y="397"/>
      <point x="529" y="342" type="curve" smooth="yes"/>
      <point x="529" y="289"/>
      <point x="512" y="239"/>
      <point x="479" y="195" type="curve"/>
      <point x="530" y="145" type="line"/>
      <point x="479" y="93" type="line"/>
      <point x="428" y="144" type="line"/>
      <point x="384" y="111"/>
      <point x="333" y="94"/>
      <point x="281" y="94" type="curve" smooth="yes"/>
      <point x="228" y="94"/>
      <point x="174" y="112"/>
      <point x="130" y="146" type="curve"/>
      <point x="77" y="93" type="line"/>
      <point x="25" y="145" type="line"/>
      <point x="78" y="198" type="line"/>
      <point x="44" y="243"/>
      <point x="26" y="295"/>
      <point x="26" y="349" type="curve" smooth="yes"/>
      <point x="26" y="401"/>
      <point x="44" y="455"/>
      <point x="76" y="496" type="curve"/>
      <point x="25" y="547" type="line"/>
      <point x="77" y="598" type="line"/>
      <point x="127" y="547" type="line"/>
      <point x="171" y="580"/>
      <point x="221" y="597"/>
      <point x="274" y="597" type="curve" smooth="yes"/>
      <point x="328" y="597"/>
      <point x="380" y="579"/>
    </contour>
    <contour>
      <point x="278" y="515" type="curve" smooth="yes"/>
      <point x="185" y="515"/>
      <point x="109" y="439"/>
      <point x="109" y="346" type="curve" smooth="yes"/>
      <point x="109" y="253"/>
      <point x="185" y="176"/>
      <point x="276" y="176" type="curve" smooth="yes"/>
      <point x="371" y="176"/>
      <point x="447" y="251"/>
      <point x="447" y="346" type="curve" smooth="yes"/>
      <point x="447" y="439"/>
      <point x="371" y="515"/>
    </contour>
  </outline>
</glyph>
<glyph name="copyright" format="1">
  <advance width="747"/>
  <unicode hex="00A9"/>
  <outline>
    <contour>
      <point x="517" y="541" type="line"/>
      <point x="526" y="372" type="line"/>
      <point x="491" y="372" type="line"/>
      <point x="467" y="466"/>
      <point x="431" y="507"/>
      <point x="374" y="507" type="curve" smooth="yes"/>
      <point x="306" y="507"/>
      <point x="270" y="446"/>
      <point x="270" y="330" type="curve" smooth="yes"/>
      <point x="270" y="220"/>
      <point x="306" y="167"/>
      <point x="380" y="167" type="curve" smooth="yes"/>
      <point x="445" y="167"/>
      <point x="482" y="206"/>
      <point x="496" y="287" type="curve"/>
      <point x="534" y="281" type="line"/>
      <point x="520" y="182"/>
      <point x="465" y="129"/>
      <point x="374" y="129" type="curve" smooth="yes"/>
      <point x="265" y="129"/>
      <point x="186" y="215"/>
      <point x="186" y="333" type="curve" smooth="yes"/>
      <point x="186" y="450"/>
      <point x="270" y="545"/>
      <point x="374" y="545" type="curve" smooth="yes"/>
      <point x="410" y="545"/>
      <point x="429" y="538"/>
      <point x="467" y="512" type="curve"/>
      <point x="487" y="541" type="line"/>
    </contour>
    <contour>
      <point x="374" y="685" type="curve" smooth="yes"/>
      <point x="567" y="685"/>
      <point x="724" y="528"/>
      <point x="724" y="336" type="curve" smooth="yes"/>
      <point x="724" y="140"/>
      <point x="568" y="-15"/>
      <point x="370" y="-15" type="curve" smooth="yes"/>
      <point x="181" y="-15"/>
      <point x="24" y="144"/>
      <point x="24" y="335" type="curve" smooth="yes"/>
      <point x="24" y="528"/>
      <point x="181" y="685"/>
    </contour>
    <contour>
      <point x="374" y="642" type="curve" smooth="yes"/>
      <point x="206" y="642"/>
      <point x="70" y="504"/>
      <point x="70" y="335" type="curve" smooth="yes"/>
      <point x="70" y="168"/>
      <point x="207" y="28"/>
      <point x="370" y="28" type="curve" smooth="yes"/>
      <point x="542" y="28"/>
      <point x="678" y="164"/>
      <point x="678" y="335" type="curve" smooth="yes"/>
      <point x="678" y="504"/>
      <point x="542" y="642"/>
    </contour>
  </outline>
</glyph>
<glyph name="logicalnot" format="1">
  <advance width="606"/>
  <unicode hex="00AC"/>
  <outline>
    <contour>
      <point x="41" y="293" type="line"/>
      <point x="545" y="293" type="line"/>
      <point x="545" y="0" type="line"/>
      <point x="465" y="0" type="line"/>
      <point x="465" y="213" type="line"/>
      <point x="41" y="213" type="line"/>
    </contour>
  </outline>
</glyph>
<glyph name="registered" format="1">
  <advance width="747"/>
  <unicode hex="00AE"/>
  <outline>
    <contour>
      <point x="321" y="339" type="line"/>
      <point x="321" y="223" type="line" smooth="yes"/>
      <point x="321" y="197"/>
      <point x="321" y="197"/>
      <point x="323" y="194" type="curve" smooth="yes"/>
      <point x="326" y="191"/>
      <point x="339" y="189"/>
      <point x="363" y="189" type="curve" smooth="yes"/>
      <point x="379" y="189" type="line"/>
      <point x="379" y="151" type="line"/>
      <point x="190" y="151" type="line"/>
      <point x="190" y="189" type="line"/>
      <point x="206" y="189" type="line" smooth="yes"/>
      <point x="230" y="189"/>
      <point x="243" y="191"/>
      <point x="246" y="194" type="curve" smooth="yes"/>
      <point x="248" y="196"/>
      <point x="248" y="197"/>
      <point x="248" y="223" type="curve" smooth="yes"/>
      <point x="248" y="479" type="line" smooth="yes"/>
      <point x="248" y="506"/>
      <point x="248" y="506"/>
      <point x="246" y="508" type="curve" smooth="yes"/>
      <point x="243" y="512"/>
      <point x="231" y="513"/>
      <point x="206" y="513" type="curve" smooth="yes"/>
      <point x="190" y="513" type="line"/>
      <point x="190" y="551" type="line"/>
      <point x="382" y="551" type="line" smooth="yes"/>
      <point x="477" y="551"/>
      <point x="530" y="514"/>
      <point x="530" y="449" type="curve" smooth="yes"/>
      <point x="530" y="397"/>
      <point x="502" y="369"/>
      <point x="435" y="351" type="curve"/>
      <point x="466" y="335"/>
      <point x="479" y="317"/>
      <point x="490" y="272" type="curve" smooth="yes"/>
      <point x="499" y="238" type="line" smooth="yes"/>
      <point x="509" y="200"/>
      <point x="511" y="197"/>
      <point x="520" y="197" type="curve" smooth="yes"/>
      <point x="530" y="197"/>
      <point x="535" y="215"/>
      <point x="536" y="250" type="curve"/>
      <point x="571" y="250" type="line"/>
      <point x="571" y="238" type="line" smooth="yes"/>
      <point x="571" y="178"/>
      <point x="545" y="143"/>
      <point x="498" y="143" type="curve" smooth="yes"/>
      <point x="452" y="143"/>
      <point x="431" y="169"/>
      <point x="424" y="235" type="curve" smooth="yes"/>
      <point x="421" y="262" type="line" smooth="yes"/>
      <point x="414" y="318"/>
      <point x="394" y="339"/>
      <point x="346" y="339" type="curve" smooth="yes"/>
    </contour>
    <contour>
      <point x="321" y="377" type="line"/>
      <point x="373" y="377" type="line" smooth="yes"/>
      <point x="426" y="377"/>
      <point x="451" y="400"/>
      <point x="451" y="448" type="curve" smooth="yes"/>
      <point x="451" y="495"/>
      <point x="431" y="513"/>
      <point x="381" y="513" type="curve" smooth="yes"/>
      <point x="351" y="513" type="line" smooth="yes"/>
      <point x="321" y="513"/>
      <point x="321" y="513"/>
      <point x="321" y="489" type="curve" smooth="yes"/>
    </contour>
    <contour>
      <point x="373" y="685" type="curve" smooth="yes"/>
      <point x="566" y="685"/>
      <point x="723" y="528"/>
      <point x="723" y="336" type="curve" smooth="yes"/>
      <point x="723" y="140"/>
      <point x="567" y="-15"/>
      <point x="369" y="-15" type="curve" smooth="yes"/>
      <point x="180" y="-15"/>
      <point x="23" y="144"/>
      <point x="23" y="335" type="curve" smooth="yes"/>
      <point x="23" y="528"/>
      <point x="180" y="685"/>
    </contour>
    <contour>
      <point x="373" y="642" type="curve" smooth="yes"/>
      <point x="205" y="642"/>
      <point x="69" y="504"/>
      <point x="69" y="335" type="curve" smooth="yes"/>
      <point x="69" y="168"/>
      <point x="206" y="28"/>
      <point x="369" y="28" type="curve" smooth="yes"/>
      <point x="541" y="28"/>
      <point x="677" y="164"/>
      <point x="677" y="336" type="curve" smooth="yes"/>
      <point x="677" y="504"/>
      <point x="540" y="642"/>
    </contour>
  </outline>
</glyph>
<glyph name="macron" format="1">
  <advance width="333"/>
  <unicode hex="00AF"/>
  <outline>
    <contour>
      <point x="62" y="610" type="line"/>
      <point x="363" y="610" type="line"/>
      <point x="352" y="559" type="line"/>
      <point x="51" y="559" type="line"/>
    </contour>
  </outline>
</glyph>
<glyph name="plusminus" format="1">
  <advance width="606"/>
  <unicode hex="00B1"/>
  <outline>
    <contour>
      <point x="249" y="288" type="line"/>
      <point x="37" y="288" type="line"/>
      <point x="37" y="368" type="line"/>
      <point x="249" y="368" type="line"/>
      <point x="249" y="581" type="line"/>
      <point x="329" y="581" type="line"/>
      <point x="329" y="368" type="line"/>
      <point x="540" y="368" type="line"/>
      <point x="540" y="288" type="line"/>
      <point x="329" y="288" type="line"/>
      <point x="329" y="113" type="line"/>
      <point x="249" y="113" type="line"/>
    </contour>
    <contour>
      <point x="37" y="0" type="line"/>
      <point x="37" y="80" type="line"/>
      <point x="540" y="80" type="line"/>
      <point x="540" y="0" type="line"/>
    </contour>
  </outline>
</glyph>
<glyph name="twosuperior" format="1">
  <advance width="333"/>
  <unicode hex="00B2"/>
  <outline>
    <contour>
      <point x="280" y="288" type="line"/>
      <point x="0" y="288" type="line"/>
      <point x="5" y="325"/>
      <point x="29" y="348"/>
      <point x="203" y="488" type="curve" smooth="yes"/>
      <point x="259" y="533"/>
      <point x="280" y="566"/>
      <point x="280" y="608" type="curve" smooth="yes"/>
      <point x="280" y="648"/>
      <point x="251" y="674"/>
      <point x="207" y="674" type="curve" smooth="yes"/>
      <point x="167" y="674"/>
      <point x="121" y="647"/>
      <point x="121" y="624" type="curve" smooth="yes"/>
      <point x="121" y="618"/>
      <point x="123" y="616"/>
      <point x="137" y="609" type="curve" smooth="yes"/>
      <point x="158" y="598"/>
      <point x="167" y="587"/>
      <point x="167" y="570" type="curve" smooth="yes"/>
      <point x="167" y="547"/>
      <point x="148" y="529"/>
      <point x="123" y="529" type="curve" smooth="yes"/>
      <point x="91" y="529"/>
      <point x="71" y="552"/>
      <point x="71" y="587" type="curve" smooth="yes"/>
      <point x="71" y="653"/>
      <point x="143" y="710"/>
      <point x="225" y="710" type="curve" smooth="yes"/>
      <point x="301" y="710"/>
      <point x="353" y="667"/>
      <point x="353" y="603" type="curve" smooth="yes"/>
      <point x="353" y="556"/>
      <point x="331" y="520"/>
      <point x="280" y="483" type="curve" smooth="yes"/>
      <point x="263" y="471"/>
      <point x="261" y="469"/>
      <point x="172" y="412" type="curve" smooth="yes"/>
      <point x="127" y="383"/>
      <point x="97" y="361"/>
      <point x="83" y="345" type="curve"/>
      <point x="225" y="345" type="line" smooth="yes"/>
      <point x="254" y="345"/>
      <point x="262" y="350"/>
      <point x="284" y="388" type="curve" smooth="yes"/>
      <point x="302" y="418" type="line"/>
      <point x="331" y="407" type="line"/>
    </contour>
  </outline>
</glyph>
<glyph name="paragraph" format="1">
  <advance width="650"/>
  <unicode hex="00B6"/>
  <outline>
    <contour>
      <point x="279" y="324" type="line"/>
      <point x="246" y="324" type="line" smooth="yes"/>
      <point x="145" y="324"/>
      <point x="95" y="367"/>
      <point x="95" y="455" type="curve" smooth="yes"/>
      <point x="95" y="535"/>
      <point x="135" y="624"/>
      <point x="193" y="672" type="curve" smooth="yes"/>
      <point x="225" y="699"/>
      <point x="264" y="714"/>
      <point x="315" y="720" type="curve" smooth="yes"/>
      <point x="330" y="722"/>
      <point x="330" y="722"/>
      <point x="391" y="722" type="curve" smooth="yes"/>
      <point x="645" y="722" type="line"/>
      <point x="642" y="686" type="line"/>
      <point x="602" y="684"/>
      <point x="590" y="681"/>
      <point x="580" y="672" type="curve" smooth="yes"/>
      <point x="574" y="667"/>
      <point x="571" y="661"/>
      <point x="567" y="646" type="curve"/>
      <point x="564" y="638" type="line"/>
      <point x="561" y="625"/>
      <point x="558" y="612"/>
      <point x="554" y="599" type="curve" smooth="yes"/>
      <point x="388" y="-21" type="line" smooth="yes"/>
      <point x="373" y="-78"/>
      <point x="373" y="-78"/>
      <point x="373" y="-86" type="curve" smooth="yes"/>
      <point x="373" y="-101"/>
      <point x="383" y="-105"/>
      <point x="430" y="-108" type="curve"/>
      <point x="427" y="-144" type="line"/>
      <point x="88" y="-144" type="line"/>
      <point x="91" y="-108" type="line"/>
      <point x="96" y="-108" type="line" smooth="yes"/>
      <point x="126" y="-108"/>
      <point x="152" y="-102"/>
      <point x="161" y="-94" type="curve" smooth="yes"/>
      <point x="169" y="-86"/>
      <point x="169" y="-86"/>
      <point x="187" y="-21" type="curve" smooth="yes"/>
    </contour>
    <contour>
      <point x="288" y="357" type="line"/>
      <point x="376" y="686" type="line"/>
      <point x="309" y="687"/>
      <point x="275" y="654"/>
      <point x="251" y="563" type="curve" smooth="yes"/>
      <point x="229" y="481" type="line" smooth="yes"/>
      <point x="223" y="458"/>
      <point x="219" y="432"/>
      <point x="219" y="416" type="curve" smooth="yes"/>
      <point x="219" y="379"/>
      <point x="237" y="357"/>
      <point x="268" y="357" type="curve" smooth="yes"/>
    </contour>
    <contour>
      <point x="512" y="686" type="line"/>
      <point x="441" y="686" type="line"/>
      <point x="229" y="-107" type="line"/>
      <point x="300" y="-107" type="line"/>
    </contour>
  </outline>
</glyph>
<glyph name="onesuperior" format="1">
  <advance width="333"/>
  <unicode hex="00B9"/>
  <outline>
    <contour>
      <point x="309" y="712" type="line"/>
      <point x="209" y="363" type="line" smooth="yes"/>
      <point x="203" y="339"/>
      <point x="203" y="339"/>
      <point x="203" y="335" type="curve" smooth="yes"/>
      <point x="203" y="324"/>
      <point x="211" y="322"/>
      <point x="250" y="322" type="curve" smooth="yes"/>
      <point x="288" y="322" type="line"/>
      <point x="283" y="288" type="line"/>
      <point x="43" y="288" type="line"/>
      <point x="47" y="322" type="line"/>
      <point x="78" y="322" type="line" smooth="yes"/>
      <point x="107" y="322"/>
      <point x="122" y="324"/>
      <point x="128" y="329" type="curve" smooth="yes"/>
      <point x="132" y="333"/>
      <point x="132" y="333"/>
      <point x="141" y="364" type="curve" smooth="yes"/>
      <point x="209" y="601" type="line" smooth="yes"/>
      <point x="209" y="602"/>
      <point x="211" y="607"/>
      <point x="214" y="614" type="curve"/>
      <point x="215" y="619"/>
      <point x="216" y="623"/>
      <point x="216" y="627" type="curve" smooth="yes"/>
      <point x="216" y="634"/>
      <point x="213" y="635"/>
      <point x="176" y="635" type="curve" smooth="yes"/>
      <point x="128" y="635" type="line"/>
      <point x="137" y="667" type="line"/>
      <point x="183" y="667"/>
      <point x="251" y="687"/>
      <point x="285" y="712" type="curve"/>
    </contour>
  </outline>
</glyph>
<glyph name="threequarters" format="1">
  <advance width="834"/>
  <unicode hex="00BE"/>
  <outline>
    <contour>
      <point x="618" y="708" type="line"/>
      <point x="672" y="708" type="line"/>
      <point x="289" y="0" type="line"/>
      <point x="235" y="0" type="line"/>
    </contour>
    <contour>
      <point x="833" y="424" type="line"/>
      <point x="754" y="148" type="line"/>
      <point x="825" y="148" type="line"/>
      <point x="815" y="109" type="line"/>
      <point x="743" y="109" type="line"/>
      <point x="733" y="75" type="line" smooth="yes"/>
      <point x="727" y="52"/>
      <point x="727" y="52"/>
      <point x="727" y="48" type="curve" smooth="yes"/>
      <point x="727" y="37"/>
      <point x="735" y="35"/>
      <point x="774" y="35" type="curve" smooth="yes"/>
      <point x="789" y="35" type="line"/>
      <point x="785" y="0" type="line"/>
      <point x="583" y="0" type="line"/>
      <point x="587" y="35" type="line"/>
      <point x="602" y="35" type="line" smooth="yes"/>
      <point x="649" y="35"/>
      <point x="654" y="37"/>
      <point x="661" y="61" type="curve" smooth="yes"/>
      <point x="665" y="77" type="line"/>
      <point x="675" y="109" type="line"/>
      <point x="498" y="109" type="line"/>
      <point x="498" y="139" type="line"/>
      <point x="793" y="424" type="line"/>
    </contour>
    <contour>
      <point x="686" y="148" type="line"/>
      <point x="735" y="321" type="line"/>
      <point x="555" y="148" type="line"/>
    </contour>
    <contour>
      <point x="231" y="506" type="curve"/>
      <point x="276" y="492"/>
      <point x="301" y="462"/>
      <point x="301" y="421" type="curve" smooth="yes"/>
      <point x="301" y="340"/>
      <point x="226" y="279"/>
      <point x="127" y="279" type="curve" smooth="yes"/>
      <point x="49" y="279"/>
      <point x="1" y="316"/>
      <point x="1" y="375" type="curve" smooth="yes"/>
      <point x="1" y="407"/>
      <point x="20" y="429"/>
      <point x="49" y="429" type="curve" smooth="yes"/>
      <point x="73" y="429"/>
      <point x="93" y="411"/>
      <point x="93" y="390" type="curve" smooth="yes"/>
      <point x="93" y="372"/>
      <point x="84" y="361"/>
      <point x="65" y="353" type="curve" smooth="yes"/>
      <point x="56" y="349"/>
      <point x="54" y="347"/>
      <point x="54" y="343" type="curve" smooth="yes"/>
      <point x="54" y="326"/>
      <point x="84" y="311"/>
      <point x="118" y="311" type="curve" smooth="yes"/>
      <point x="183" y="311"/>
      <point x="226" y="360"/>
      <point x="226" y="432" type="curve" smooth="yes"/>
      <point x="226" y="467"/>
      <point x="206" y="490"/>
      <point x="176" y="490" type="curve" smooth="yes"/>
      <point x="171" y="490"/>
      <point x="162" y="489"/>
      <point x="153" y="488" type="curve" smooth="yes"/>
      <point x="148" y="487"/>
      <point x="143" y="487"/>
      <point x="140" y="487" type="curve" smooth="yes"/>
      <point x="127" y="487"/>
      <point x="118" y="494"/>
      <point x="118" y="505" type="curve" smooth="yes"/>
      <point x="118" y="517"/>
      <point x="128" y="525"/>
      <point x="143" y="525" type="curve" smooth="yes"/>
      <point x="144" y="525"/>
      <point x="145" y="525"/>
      <point x="165" y="524" type="curve" smooth="yes"/>
      <point x="172" y="523"/>
      <point x="178" y="523"/>
      <point x="179" y="523" type="curve" smooth="yes"/>
      <point x="221" y="523"/>
      <point x="261" y="571"/>
      <point x="261" y="621" type="curve" smooth="yes"/>
      <point x="261" y="656"/>
      <point x="237" y="677"/>
      <point x="195" y="677" type="curve" smooth="yes"/>
      <point x="167" y="677"/>
      <point x="136" y="663"/>
      <point x="136" y="651" type="curve" smooth="yes"/>
      <point x="136" y="648"/>
      <point x="138" y="645"/>
      <point x="144" y="640" type="curve" smooth="yes"/>
      <point x="154" y="630"/>
      <point x="158" y="622"/>
      <point x="158" y="611" type="curve" smooth="yes"/>
      <point x="158" y="590"/>
      <point x="141" y="574"/>
      <point x="119" y="574" type="curve" smooth="yes"/>
      <point x="94" y="574"/>
      <point x="76" y="592"/>
      <point x="76" y="618" type="curve" smooth="yes"/>
      <point x="76" y="668"/>
      <point x="136" y="710"/>
      <point x="206" y="710" type="curve" smooth="yes"/>
      <point x="279" y="710"/>
      <point x="331" y="670"/>
      <point x="331" y="613" type="curve" smooth="yes"/>
      <point x="331" y="566"/>
      <point x="297" y="527"/>
      <point x="242" y="510" type="curve" smooth="yes"/>
      <point x="236" y="508"/>
      <point x="232" y="506"/>
    </contour>
  </outline>
</glyph>
<glyph name="Aring" format="1">
  <advance width="704"/>
  <unicode hex="00C5"/>
  <outline>
    <contour>
      <point x="442" y="737" type="line"/>
      <point x="567" y="108" type="line" smooth="yes"/>
      <point x="577" y="56"/>
      <point x="588" y="47"/>
      <point x="643" y="47" type="curve" smooth="yes"/>
      <point x="668" y="47" type="line"/>
      <point x="663" y="0" type="line"/>
      <point x="362" y="0" type="line"/>
      <point x="367" y="47" type="line"/>
      <point x="383" y="47" type="line" smooth="yes"/>
      <point x="440" y="47"/>
      <point x="455" y="54"/>
      <point x="455" y="83" type="curve" smooth="yes"/>
      <point x="455" y="90"/>
      <point x="453" y="103"/>
      <point x="451" y="115" type="curve" smooth="yes"/>
      <point x="428" y="238" type="line"/>
      <point x="173" y="238" type="line"/>
      <point x="118" y="142" type="line" smooth="yes"/>
      <point x="106" y="122"/>
      <point x="100" y="102"/>
      <point x="100" y="87" type="curve" smooth="yes"/>
      <point x="100" y="57"/>
      <point x="117" y="47"/>
      <point x="169" y="47" type="curve" smooth="yes"/>
      <point x="193" y="47" type="line"/>
      <point x="187" y="0" type="line"/>
      <point x="-82" y="0" type="line"/>
      <point x="-77" y="47" type="line"/>
      <point x="-23" y="47"/>
      <point x="18" y="80"/>
      <point x="71" y="168" type="curve"/>
      <point x="401" y="737" type="line"/>
    </contour>
    <contour>
      <point x="420" y="285" type="line"/>
      <point x="363" y="572" type="line"/>
      <point x="200" y="285" type="line"/>
    </contour>
    <contour>
      <point x="431" y="966" type="curve" smooth="yes"/>
      <point x="486" y="966"/>
      <point x="531" y="921"/>
      <point x="531" y="867" type="curve" smooth="yes"/>
      <point x="531" y="811"/>
      <point x="486" y="767"/>
      <point x="430" y="767" type="curve" smooth="yes"/>
      <point x="377" y="767"/>
      <point x="332" y="813"/>
      <point x="332" y="867" type="curve" smooth="yes"/>
      <point x="332" y="921"/>
      <point x="377" y="966"/>
    </contour>
    <contour>
      <point x="431" y="930" type="curve" smooth="yes"/>
      <point x="397" y="930"/>
      <point x="368" y="901"/>
      <point x="368" y="867" type="curve" smooth="yes"/>
      <point x="368" y="832"/>
      <point x="397" y="803"/>
      <point x="431" y="803" type="curve" smooth="yes"/>
      <point x="466" y="803"/>
      <point x="495" y="831"/>
      <point x="495" y="867" type="curve" smooth="yes"/>
      <point x="495" y="901"/>
      <point x="466" y="930"/>
    </contour>
  </outline>
</glyph>
<glyph name="AE" format="1">
  <advance width="870"/>
  <unicode hex="00C6"/>
  <outline>
    <contour>
      <point x="831" y="481" type="line"/>
      <point x="786" y="481" type="line"/>
      <point x="786" y="501" type="line"/>
      <point x="787" y="524"/>
      <point x="787" y="542"/>
      <point x="787" y="552" type="curve" smooth="yes"/>
      <point x="787" y="634"/>
      <point x="748" y="675"/>
      <point x="669" y="675" type="curve" smooth="yes"/>
      <point x="642" y="675" type="line" smooth="yes"/>
      <point x="590" y="675"/>
      <point x="581" y="667"/>
      <point x="565" y="606" type="curve" smooth="yes"/>
      <point x="510" y="401" type="line"/>
      <point x="517" y="401" type="line" smooth="yes"/>
      <point x="599" y="401"/>
      <point x="645" y="437"/>
      <point x="674" y="526" type="curve"/>
      <point x="720" y="520" type="line"/>
      <point x="630" y="186" type="line"/>
      <point x="585" y="194" type="line"/>
      <point x="592" y="223"/>
      <point x="594" y="241"/>
      <point x="594" y="264" type="curve" smooth="yes"/>
      <point x="594" y="324"/>
      <point x="564" y="354"/>
      <point x="504" y="354" type="curve" smooth="yes"/>
      <point x="497" y="354" type="line"/>
      <point x="438" y="134" type="line" smooth="yes"/>
      <point x="436" y="127"/>
      <point x="434" y="120"/>
      <point x="433" y="114" type="curve"/>
      <point x="428" y="101"/>
      <point x="426" y="87"/>
      <point x="426" y="78" type="curve" smooth="yes"/>
      <point x="426" y="57"/>
      <point x="446" y="47"/>
      <point x="490" y="47" type="curve" smooth="yes"/>
      <point x="512" y="47" type="line" smooth="yes"/>
      <point x="627" y="47"/>
      <point x="693" y="92"/>
      <point x="755" y="214" type="curve" smooth="yes"/>
      <point x="768" y="239"/>
      <point x="770" y="242"/>
      <point x="777" y="253" type="curve"/>
      <point x="817" y="245" type="line"/>
      <point x="739" y="0" type="line"/>
      <point x="207" y="0" type="line"/>
      <point x="213" y="47" type="line"/>
      <point x="217" y="47" type="line" smooth="yes"/>
      <point x="266" y="47"/>
      <point x="290" y="51"/>
      <point x="300" y="61" type="curve" smooth="yes"/>
      <point x="309" y="69"/>
      <point x="309" y="69"/>
      <point x="323" y="123" type="curve" smooth="yes"/>
      <point x="365" y="278" type="line"/>
      <point x="174" y="278" type="line"/>
      <point x="79" y="141" type="line" smooth="yes"/>
      <point x="64" y="119"/>
      <point x="54" y="96"/>
      <point x="54" y="83" type="curve" smooth="yes"/>
      <point x="54" y="69"/>
      <point x="64" y="58"/>
      <point x="81" y="52" type="curve" smooth="yes"/>
      <point x="91" y="48"/>
      <point x="101" y="47"/>
      <point x="131" y="47" type="curve"/>
      <point x="125" y="0" type="line"/>
      <point x="-92" y="0" type="line"/>
      <point x="-87" y="47" type="line"/>
      <point x="-62" y="47"/>
      <point x="-42" y="61"/>
      <point x="-18" y="93" type="curve"/>
      <point x="302" y="553" type="line" smooth="yes"/>
      <point x="329" y="592"/>
      <point x="339" y="614"/>
      <point x="339" y="633" type="curve" smooth="yes"/>
      <point x="339" y="664"/>
      <point x="318" y="675"/>
      <point x="259" y="675" type="curve" smooth="yes"/>
      <point x="232" y="675" type="line"/>
      <point x="237" y="722" type="line"/>
      <point x="870" y="722" type="line"/>
    </contour>
    <contour>
      <point x="377" y="325" type="line"/>
      <point x="460" y="635" type="line" smooth="yes"/>
      <point x="466" y="660"/>
      <point x="466" y="660"/>
      <point x="466" y="663" type="curve" smooth="yes"/>
      <point x="466" y="668"/>
      <point x="461" y="674"/>
      <point x="457" y="674" type="curve" smooth="yes"/>
      <point x="451" y="674"/>
      <point x="446" y="670"/>
      <point x="436" y="654" type="curve"/>
      <point x="205" y="325" type="line"/>
    </contour>
  </outline>
</glyph>
<glyph name="Eth" format="1">
  <advance width="778"/>
  <unicode hex="00D0"/>
  <outline>
    <contour>
      <point x="138" y="354" type="line"/>
      <point x="36" y="354" type="line"/>
      <point x="48" y="401" type="line"/>
      <point x="151" y="401" type="line"/>
      <point x="206" y="599" type="line" smooth="yes"/>
      <point x="211" y="617"/>
      <point x="215" y="640"/>
      <point x="215" y="648" type="curve" smooth="yes"/>
      <point x="215" y="670"/>
      <point x="201" y="675"/>
      <point x="136" y="675" type="curve" smooth="yes"/>
      <point x="110" y="675" type="line"/>
      <point x="116" y="722" type="line"/>
      <point x="406" y="722" type="line" smooth="yes"/>
      <point x="518" y="722"/>
      <point x="581" y="708"/>
      <point x="631" y="670" type="curve" smooth="yes"/>
      <point x="698" y="620"/>
      <point x="735" y="537"/>
      <point x="735" y="435" type="curve" smooth="yes"/>
      <point x="735" y="301"/>
      <point x="667" y="162"/>
      <point x="560" y="77" type="curve" smooth="yes"/>
      <point x="492" y="23"/>
      <point x="404" y="0"/>
      <point x="271" y="0" type="curve" smooth="yes"/>
      <point x="-38" y="0" type="line"/>
      <point x="-33" y="47" type="line"/>
      <point x="-28" y="47" type="line" smooth="yes"/>
      <point x="21" y="47"/>
      <point x="44" y="51"/>
      <point x="55" y="61" type="curve" smooth="yes"/>
      <point x="63" y="69"/>
      <point x="64" y="69"/>
      <point x="78" y="123" type="curve" smooth="yes"/>
    </contour>
    <contour>
      <point x="250" y="354" type="line"/>
      <point x="187" y="110" type="line" smooth="yes"/>
      <point x="183" y="97"/>
      <point x="181" y="84"/>
      <point x="181" y="75" type="curve" smooth="yes"/>
      <point x="181" y="57"/>
      <point x="197" y="47"/>
      <point x="227" y="47" type="curve" smooth="yes"/>
      <point x="259" y="47" type="line" smooth="yes"/>
      <point x="355" y="47"/>
      <point x="420" y="65"/>
      <point x="464" y="104" type="curve" smooth="yes"/>
      <point x="545" y="177"/>
      <point x="613" y="348"/>
      <point x="613" y="480" type="curve" smooth="yes"/>
      <point x="613" y="544"/>
      <point x="595" y="602"/>
      <point x="565" y="631" type="curve" smooth="yes"/>
      <point x="537" y="659"/>
      <point x="486" y="675"/>
      <point x="426" y="675" type="curve" smooth="yes"/>
      <point x="396" y="675" type="line" smooth="yes"/>
      <point x="364" y="675"/>
      <point x="351" y="671"/>
      <point x="340" y="660" type="curve" smooth="yes"/>
      <point x="333" y="653"/>
      <point x="330" y="645"/>
      <point x="320" y="610" type="curve" smooth="yes"/>
      <point x="263" y="401" type="line"/>
      <point x="461" y="401" type="line"/>
      <point x="449" y="354" type="line"/>
    </contour>
  </outline>
</glyph>
<glyph name="Ntilde" format="1">
  <advance width="815"/>
  <unicode hex="00D1"/>
  <outline>
    <contour>
      <point x="315" y="722" type="line"/>
      <point x="568" y="170" type="line"/>
      <point x="658" y="505" type="line"/>
      <point x="680" y="594"/>
      <point x="681" y="598"/>
      <point x="681" y="620" type="curve" smooth="yes"/>
      <point x="681" y="657"/>
      <point x="652" y="675"/>
      <point x="591" y="675" type="curve"/>
      <point x="597" y="722" type="line"/>
      <point x="859" y="722" type="line"/>
      <point x="854" y="675" type="line"/>
      <point x="770" y="672"/>
      <point x="750" y="649"/>
      <point x="712" y="505" type="curve" smooth="yes"/>
      <point x="573" y="-14" type="line"/>
      <point x="534" y="-14" type="line"/>
      <point x="256" y="587" type="line"/>
      <point x="157" y="217" type="line" smooth="yes"/>
      <point x="134" y="128"/>
      <point x="133" y="124"/>
      <point x="133" y="102" type="curve" smooth="yes"/>
      <point x="133" y="65"/>
      <point x="162" y="47"/>
      <point x="223" y="47" type="curve" smooth="yes"/>
      <point x="234" y="47" type="line"/>
      <point x="228" y="0" type="line"/>
      <point x="-48" y="0" type="line"/>
      <point x="-43" y="47" type="line"/>
      <point x="44" y="49"/>
      <point x="63" y="71"/>
      <point x="102" y="217" type="curve" smooth="yes"/>
      <point x="216" y="643" type="line"/>
      <point x="208" y="670"/>
      <point x="199" y="675"/>
      <point x="151" y="675" type="curve" smooth="yes"/>
      <point x="99" y="675" type="line"/>
      <point x="104" y="722" type="line"/>
    </contour>
    <contour>
      <point x="647" y="917" type="curve"/>
      <point x="677" y="917" type="line"/>
      <point x="671" y="861"/>
      <point x="628" y="813"/>
      <point x="584" y="813" type="curve" smooth="yes"/>
      <point x="562" y="813"/>
      <point x="551" y="816"/>
      <point x="498" y="836" type="curve" smooth="yes"/>
      <point x="454" y="852"/>
      <point x="438" y="856"/>
      <point x="424" y="856" type="curve" smooth="yes"/>
      <point x="402" y="856"/>
      <point x="388" y="842"/>
      <point x="379" y="812" type="curve"/>
      <point x="349" y="812" type="line"/>
      <point x="361" y="877"/>
      <point x="394" y="916"/>
      <point x="439" y="916" type="curve" smooth="yes"/>
      <point x="457" y="916"/>
      <point x="479" y="910"/>
      <point x="539" y="890" type="curve"/>
      <point x="574" y="877"/>
      <point x="584" y="875"/>
      <point x="598" y="875" type="curve" smooth="yes"/>
      <point x="620" y="875"/>
      <point x="635" y="887"/>
    </contour>
  </outline>
</glyph>
<glyph name="Yacute" format="1">
  <advance width="685"/>
  <unicode hex="00DD"/>
  <outline>
    <contour>
      <point x="362" y="364" type="line"/>
      <point x="532" y="582" type="line" smooth="yes"/>
      <point x="548" y="601"/>
      <point x="558" y="623"/>
      <point x="558" y="636" type="curve" smooth="yes"/>
      <point x="558" y="660"/>
      <point x="534" y="675"/>
      <point x="494" y="675" type="curve" smooth="yes"/>
      <point x="471" y="675" type="line"/>
      <point x="476" y="722" type="line"/>
      <point x="758" y="722" type="line"/>
      <point x="753" y="675" type="line"/>
      <point x="681" y="671"/>
      <point x="652" y="652"/>
      <point x="582" y="564" type="curve" smooth="yes"/>
      <point x="382" y="308" type="line"/>
      <point x="332" y="123" type="line"/>
      <point x="322" y="82"/>
      <point x="322" y="82"/>
      <point x="322" y="74" type="curve" smooth="yes"/>
      <point x="322" y="52"/>
      <point x="336" y="47"/>
      <point x="402" y="47" type="curve" smooth="yes"/>
      <point x="438" y="47" type="line"/>
      <point x="433" y="0" type="line"/>
      <point x="86" y="0" type="line"/>
      <point x="92" y="47" type="line"/>
      <point x="114" y="47" type="line" smooth="yes"/>
      <point x="163" y="47"/>
      <point x="187" y="51"/>
      <point x="197" y="61" type="curve" smooth="yes"/>
      <point x="206" y="69"/>
      <point x="206" y="70"/>
      <point x="220" y="123" type="curve" smooth="yes"/>
      <point x="270" y="308" type="line"/>
      <point x="150" y="606" type="line" smooth="yes"/>
      <point x="127" y="662"/>
      <point x="108" y="675"/>
      <point x="49" y="675" type="curve" smooth="yes"/>
      <point x="32" y="675" type="line"/>
      <point x="37" y="722" type="line"/>
      <point x="345" y="722" type="line"/>
      <point x="340" y="675" type="line"/>
      <point x="312" y="675" type="line" smooth="yes"/>
      <point x="268" y="675"/>
      <point x="251" y="668"/>
      <point x="251" y="651" type="curve" smooth="yes"/>
      <point x="251" y="643"/>
      <point x="255" y="630"/>
      <point x="262" y="613" type="curve" smooth="yes"/>
    </contour>
    <contour>
      <point x="364" y="774" type="line"/>
      <point x="502" y="917" type="line" smooth="yes"/>
      <point x="523" y="939"/>
      <point x="537" y="947"/>
      <point x="552" y="947" type="curve" smooth="yes"/>
      <point x="571" y="947"/>
      <point x="587" y="931"/>
      <point x="587" y="913" type="curve" smooth="yes"/>
      <point x="587" y="898"/>
      <point x="577" y="884"/>
      <point x="562" y="874" type="curve" smooth="yes"/>
      <point x="403" y="774" type="line"/>
    </contour>
  </outline>
</glyph>
<glyph name="Thorn" format="1">
  <advance width="667"/>
  <unicode hex="00DE"/>
  <outline>
    <contour>
      <point x="316" y="591" type="line"/>
      <point x="377" y="591" type="line" smooth="yes"/>
      <point x="460" y="591"/>
      <point x="513" y="580"/>
      <point x="550" y="555" type="curve" smooth="yes"/>
      <point x="598" y="522"/>
      <point x="624" y="472"/>
      <point x="624" y="410" type="curve" smooth="yes"/>
      <point x="624" y="330"/>
      <point x="585" y="265"/>
      <point x="515" y="227" type="curve" smooth="yes"/>
      <point x="447" y="191"/>
      <point x="412" y="186"/>
      <point x="226" y="186" type="curve" smooth="yes"/>
      <point x="208" y="186" type="line"/>
      <point x="191" y="123" type="line" smooth="yes"/>
      <point x="182" y="89"/>
      <point x="181" y="84"/>
      <point x="181" y="75" type="curve" smooth="yes"/>
      <point x="181" y="52"/>
      <point x="195" y="47"/>
      <point x="261" y="47" type="curve" smooth="yes"/>
      <point x="283" y="47" type="line"/>
      <point x="277" y="0" type="line"/>
      <point x="-33" y="0" type="line"/>
      <point x="-28" y="47" type="line"/>
      <point x="30" y="48"/>
      <point x="44" y="50"/>
      <point x="56" y="61" type="curve" smooth="yes"/>
      <point x="65" y="70"/>
      <point x="66" y="73"/>
      <point x="79" y="123" type="curve" smooth="yes"/>
      <point x="207" y="600" type="line" smooth="yes"/>
      <point x="214" y="627"/>
      <point x="217" y="640"/>
      <point x="217" y="648" type="curve" smooth="yes"/>
      <point x="217" y="670"/>
      <point x="203" y="675"/>
      <point x="137" y="675" type="curve" smooth="yes"/>
      <point x="115" y="675" type="line"/>
      <point x="121" y="722" type="line"/>
      <point x="431" y="722" type="line"/>
      <point x="426" y="675" type="line"/>
      <point x="345" y="674"/>
      <point x="337" y="670"/>
      <point x="326" y="628" type="curve" smooth="yes"/>
      <point x="324" y="618"/>
      <point x="321" y="607"/>
      <point x="319" y="600" type="curve" smooth="yes"/>
    </contour>
    <contour>
      <point x="221" y="233" type="line"/>
      <point x="240" y="233" type="line" smooth="yes"/>
      <point x="338" y="233"/>
      <point x="338" y="233"/>
      <point x="352" y="235" type="curve" smooth="yes"/>
      <point x="407" y="240"/>
      <point x="443" y="258"/>
      <point x="469" y="290" type="curve" smooth="yes"/>
      <point x="496" y="324"/>
      <point x="512" y="372"/>
      <point x="512" y="421" type="curve" smooth="yes"/>
      <point x="512" y="510"/>
      <point x="472" y="544"/>
      <point x="367" y="544" type="curve" smooth="yes"/>
      <point x="355" y="544" type="line" smooth="yes"/>
      <point x="314" y="544"/>
      <point x="301" y="534"/>
      <point x="291" y="496" type="curve" smooth="yes"/>
    </contour>
  </outline>
</glyph>
<glyph name="atilde" format="1">
  <advance width="574"/>
  <unicode hex="00E3"/>
  <outline>
    <contour>
      <point x="396" y="455" type="line"/>
      <point x="483" y="455" type="line"/>
      <point x="383" y="119" type="line" smooth="yes"/>
      <point x="376" y="94"/>
      <point x="372" y="75"/>
      <point x="372" y="65" type="curve" smooth="yes"/>
      <point x="372" y="51"/>
      <point x="382" y="40"/>
      <point x="393" y="40" type="curve" smooth="yes"/>
      <point x="419" y="40"/>
      <point x="454" y="82"/>
      <point x="492" y="158" type="curve"/>
      <point x="523" y="141" type="line"/>
      <point x="511" y="114"/>
      <point x="494" y="86"/>
      <point x="474" y="58" type="curve" smooth="yes"/>
      <point x="439" y="9"/>
      <point x="401" y="-15"/>
      <point x="357" y="-15" type="curve" smooth="yes"/>
      <point x="321" y="-15"/>
      <point x="296" y="11"/>
      <point x="296" y="50" type="curve" smooth="yes"/>
      <point x="296" y="60"/>
      <point x="297" y="67"/>
      <point x="301" y="82" type="curve"/>
      <point x="251" y="10"/>
      <point x="211" y="-15"/>
      <point x="149" y="-15" type="curve" smooth="yes"/>
      <point x="60" y="-15"/>
      <point x="1" y="50"/>
      <point x="1" y="148" type="curve" smooth="yes"/>
      <point x="1" y="228"/>
      <point x="31" y="312"/>
      <point x="82" y="378" type="curve" smooth="yes"/>
      <point x="129" y="438"/>
      <point x="186" y="470"/>
      <point x="247" y="470" type="curve" smooth="yes"/>
      <point x="312" y="470"/>
      <point x="362" y="427"/>
      <point x="369" y="365" type="curve"/>
    </contour>
    <contour>
      <point x="264" y="415" type="curve" smooth="yes"/>
      <point x="234" y="415"/>
      <point x="206" y="403"/>
      <point x="184" y="380" type="curve" smooth="yes"/>
      <point x="131" y="326"/>
      <point x="92" y="222"/>
      <point x="92" y="134" type="curve" smooth="yes"/>
      <point x="92" y="73"/>
      <point x="122" y="36"/>
      <point x="172" y="36" type="curve" smooth="yes"/>
      <point x="222" y="36"/>
      <point x="258" y="64"/>
      <point x="289" y="126" type="curve" smooth="yes"/>
      <point x="320" y="189"/>
      <point x="340" y="269"/>
      <point x="340" y="326" type="curve" smooth="yes"/>
      <point x="340" y="381"/>
      <point x="311" y="415"/>
    </contour>
    <contour>
      <point x="477" y="650" type="curve"/>
      <point x="507" y="650" type="line"/>
      <point x="500" y="592"/>
      <point x="458" y="545"/>
      <point x="414" y="545" type="curve" smooth="yes"/>
      <point x="392" y="545"/>
      <point x="383" y="547"/>
      <point x="328" y="568" type="curve" smooth="yes"/>
      <point x="284" y="584"/>
      <point x="268" y="589"/>
      <point x="254" y="589" type="curve" smooth="yes"/>
      <point x="232" y="589"/>
      <point x="217" y="574"/>
      <point x="209" y="544" type="curve"/>
      <point x="179" y="544" type="line"/>
      <point x="191" y="610"/>
      <point x="224" y="649"/>
      <point x="269" y="649" type="curve" smooth="yes"/>
      <point x="286" y="649"/>
      <point x="310" y="643"/>
      <point x="369" y="623" type="curve" smooth="yes"/>
      <point x="405" y="610"/>
      <point x="414" y="608"/>
      <point x="428" y="608" type="curve" smooth="yes"/>
      <point x="450" y="608"/>
      <point x="465" y="620"/>
    </contour>
  </outline>
</glyph>
<glyph name="ccedilla" format="1">
  <advance width="444"/>
  <unicode hex="00E7"/>
  <outline>
    <contour>
      <point x="185" y="-14" type="curve"/>
      <point x="158" y="-64" type="line"/>
      <point x="172" y="-62"/>
      <point x="179" y="-61"/>
      <point x="188" y="-61" type="curve" smooth="yes"/>
      <point x="236" y="-61"/>
      <point x="269" y="-89"/>
      <point x="269" y="-129" type="curve" smooth="yes"/>
      <point x="269" y="-181"/>
      <point x="220" y="-216"/>
      <point x="145" y="-216" type="curve" smooth="yes"/>
      <point x="113" y="-216"/>
      <point x="85" y="-211"/>
      <point x="57" y="-199" type="curve"/>
      <point x="75" y="-166" type="line"/>
      <point x="98" y="-174"/>
      <point x="118" y="-178"/>
      <point x="138" y="-178" type="curve" smooth="yes"/>
      <point x="171" y="-178"/>
      <point x="193" y="-162"/>
      <point x="193" y="-138" type="curve" smooth="yes"/>
      <point x="193" y="-115"/>
      <point x="174" y="-99"/>
      <point x="145" y="-99" type="curve" smooth="yes"/>
      <point x="136" y="-99"/>
      <point x="125" y="-101"/>
      <point x="112" y="-105" type="curve"/>
      <point x="103" y="-99" type="line"/>
      <point x="150" y="-14" type="line"/>
      <point x="57" y="1"/>
      <point x="5" y="65"/>
      <point x="5" y="165" type="curve" smooth="yes"/>
      <point x="5" y="326"/>
      <point x="131" y="470"/>
      <point x="271" y="470" type="curve" smooth="yes"/>
      <point x="343" y="470"/>
      <point x="401" y="422"/>
      <point x="401" y="362" type="curve" smooth="yes"/>
      <point x="401" y="319"/>
      <point x="374" y="287"/>
      <point x="338" y="287" type="curve" smooth="yes"/>
      <point x="307" y="287"/>
      <point x="285" y="307"/>
      <point x="285" y="336" type="curve" smooth="yes"/>
      <point x="285" y="360"/>
      <point x="295" y="372"/>
      <point x="322" y="384" type="curve" smooth="yes"/>
      <point x="333" y="388"/>
      <point x="338" y="393"/>
      <point x="338" y="399" type="curve" smooth="yes"/>
      <point x="338" y="416"/>
      <point x="306" y="432"/>
      <point x="274" y="432" type="curve" smooth="yes"/>
      <point x="229" y="432"/>
      <point x="190" y="407"/>
      <point x="158" y="358" type="curve" smooth="yes"/>
      <point x="124" y="306"/>
      <point x="97" y="213"/>
      <point x="97" y="145" type="curve" smooth="yes"/>
      <point x="97" y="77"/>
      <point x="135" y="33"/>
      <point x="193" y="33" type="curve" smooth="yes"/>
      <point x="242" y="33"/>
      <point x="287" y="63"/>
      <point x="341" y="132" type="curve"/>
      <point x="370" y="110" type="line"/>
      <point x="323" y="34"/>
      <point x="256" y="-11"/>
    </contour>
  </outline>
</glyph>
<glyph name="eth" format="1">
  <advance width="500"/>
  <unicode hex="00F0"/>
  <outline>
    <contour>
      <point x="342" y="455" type="curve"/>
      <point x="339" y="461" type="line"/>
      <point x="322" y="494" type="line"/>
      <point x="302" y="530"/>
      <point x="279" y="561"/>
      <point x="255" y="583" type="curve"/>
      <point x="120" y="516" type="line"/>
      <point x="103" y="551" type="line"/>
      <point x="224" y="612" type="line"/>
      <point x="201" y="632"/>
      <point x="193" y="639"/>
      <point x="151" y="672" type="curve"/>
      <point x="189" y="711" type="line"/>
      <point x="233" y="687"/>
      <point x="255" y="672"/>
      <point x="290" y="645" type="curve"/>
      <point x="432" y="716" type="line"/>
      <point x="450" y="681" type="line"/>
      <point x="324" y="618" type="line"/>
      <point x="373" y="569"/>
      <point x="399" y="530"/>
      <point x="421" y="470" type="curve" smooth="yes"/>
      <point x="439" y="420"/>
      <point x="450" y="351"/>
      <point x="450" y="292" type="curve" smooth="yes"/>
      <point x="450" y="224"/>
      <point x="429" y="155"/>
      <point x="391" y="100" type="curve" smooth="yes"/>
      <point x="338" y="24"/>
      <point x="268" y="-15"/>
      <point x="183" y="-15" type="curve" smooth="yes"/>
      <point x="74" y="-15"/>
      <point x="5" y="58"/>
      <point x="5" y="173" type="curve" smooth="yes"/>
      <point x="5" y="255"/>
      <point x="33" y="326"/>
      <point x="89" y="384" type="curve" smooth="yes"/>
      <point x="142" y="439"/>
      <point x="208" y="470"/>
      <point x="274" y="470" type="curve" smooth="yes"/>
      <point x="297" y="470"/>
      <point x="319" y="465"/>
    </contour>
    <contour>
      <point x="268" y="432" type="curve" smooth="yes"/>
      <point x="230" y="432"/>
      <point x="198" y="414"/>
      <point x="170" y="378" type="curve" smooth="yes"/>
      <point x="129" y="323"/>
      <point x="95" y="211"/>
      <point x="95" y="128" type="curve" smooth="yes"/>
      <point x="95" y="60"/>
      <point x="126" y="23"/>
      <point x="184" y="23" type="curve" smooth="yes"/>
      <point x="242" y="23"/>
      <point x="285" y="62"/>
      <point x="319" y="147" type="curve" smooth="yes"/>
      <point x="340" y="198"/>
      <point x="355" y="267"/>
      <point x="355" y="308" type="curve" smooth="yes"/>
      <point x="355" y="386"/>
      <point x="323" y="432"/>
    </contour>
  </outline>
</glyph>
<glyph name="ntilde" format="1">
  <advance width="611"/>
  <unicode hex="00F1"/>
  <outline>
    <contour>
      <point x="229" y="470" type="line"/>
      <point x="200" y="335" type="line"/>
      <point x="267" y="427"/>
      <point x="326" y="470"/>
      <point x="385" y="470" type="curve" smooth="yes"/>
      <point x="438" y="470"/>
      <point x="481" y="426"/>
      <point x="481" y="373" type="curve" smooth="yes"/>
      <point x="481" y="344"/>
      <point x="473" y="305"/>
      <point x="457" y="260" type="curve" smooth="yes"/>
      <point x="410" y="122" type="line" smooth="yes"/>
      <point x="394" y="78"/>
      <point x="391" y="66"/>
      <point x="391" y="55" type="curve" smooth="yes"/>
      <point x="391" y="44"/>
      <point x="399" y="36"/>
      <point x="409" y="36" type="curve" smooth="yes"/>
      <point x="440" y="36"/>
      <point x="483" y="77"/>
      <point x="533" y="156" type="curve"/>
      <point x="562" y="135" type="line"/>
      <point x="506" y="38"/>
      <point x="442" y="-15"/>
      <point x="379" y="-15" type="curve" smooth="yes"/>
      <point x="339" y="-15"/>
      <point x="309" y="17"/>
      <point x="309" y="59" type="curve" smooth="yes"/>
      <point x="309" y="81"/>
      <point x="314" y="104"/>
      <point x="327" y="143" type="curve" smooth="yes"/>
      <point x="380" y="299" type="line" smooth="yes"/>
      <point x="390" y="330"/>
      <point x="395" y="352"/>
      <point x="395" y="369" type="curve" smooth="yes"/>
      <point x="395" y="392"/>
      <point x="378" y="410"/>
      <point x="355" y="410" type="curve" smooth="yes"/>
      <point x="312" y="410"/>
      <point x="259" y="371"/>
      <point x="216" y="307" type="curve" smooth="yes"/>
      <point x="180" y="254"/>
      <point x="168" y="226"/>
      <point x="142" y="139" type="curve" smooth="yes"/>
      <point x="101" y="0" type="line"/>
      <point x="14" y="0" type="line"/>
      <point x="116" y="344" type="line" smooth="yes"/>
      <point x="122" y="366"/>
      <point x="125" y="379"/>
      <point x="125" y="388" type="curve" smooth="yes"/>
      <point x="125" y="410"/>
      <point x="109" y="419"/>
      <point x="68" y="419" type="curve" smooth="yes"/>
      <point x="44" y="419" type="line"/>
      <point x="48" y="455" type="line"/>
    </contour>
    <contour>
      <point x="476" y="650" type="curve"/>
      <point x="506" y="650" type="line"/>
      <point x="499" y="592"/>
      <point x="457" y="545"/>
      <point x="413" y="545" type="curve" smooth="yes"/>
      <point x="391" y="545"/>
      <point x="382" y="547"/>
      <point x="327" y="568" type="curve" smooth="yes"/>
      <point x="283" y="584"/>
      <point x="267" y="589"/>
      <point x="253" y="589" type="curve" smooth="yes"/>
      <point x="231" y="589"/>
      <point x="216" y="574"/>
      <point x="208" y="544" type="curve"/>
      <point x="178" y="544" type="line"/>
      <point x="190" y="610"/>
      <point x="223" y="649"/>
      <point x="268" y="649" type="curve" smooth="yes"/>
      <point x="285" y="649"/>
      <point x="309" y="643"/>
      <point x="368" y="623" type="curve" smooth="yes"/>
      <point x="404" y="610"/>
      <point x="413" y="608"/>
      <point x="427" y="608" type="curve" smooth="yes"/>
      <point x="449" y="608"/>
      <point x="464" y="620"/>
    </contour>
  </outline>
</glyph>
<glyph name="ograve" format="1">
  <advance width="500"/>
  <unicode hex="00F2"/>
  <outline>
    <contour>
      <point x="273" y="470" type="curve" smooth="yes"/>
      <point x="370" y="470"/>
      <point x="450" y="385"/>
      <point x="450" y="281" type="curve" smooth="yes"/>
      <point x="450" y="207"/>
      <point x="418" y="127"/>
      <point x="365" y="67" type="curve" smooth="yes"/>
      <point x="317" y="13"/>
      <point x="255" y="-15"/>
      <point x="183" y="-15" type="curve" smooth="yes"/>
      <point x="74" y="-15"/>
      <point x="5" y="58"/>
      <point x="5" y="172" type="curve" smooth="yes"/>
      <point x="5" y="255"/>
      <point x="34" y="327"/>
      <point x="89" y="384" type="curve" smooth="yes"/>
      <point x="143" y="440"/>
      <point x="208" y="470"/>
    </contour>
    <contour>
      <point x="268" y="432" type="curve" smooth="yes"/>
      <point x="230" y="432"/>
      <point x="198" y="414"/>
      <point x="170" y="378" type="curve" smooth="yes"/>
      <point x="129" y="323"/>
      <point x="95" y="211"/>
      <point x="95" y="128" type="curve" smooth="yes"/>
      <point x="95" y="60"/>
      <point x="126" y="23"/>
      <point x="184" y="23" type="curve" smooth="yes"/>
      <point x="237" y="23"/>
      <point x="274" y="53"/>
      <point x="308" y="122" type="curve" smooth="yes"/>
      <point x="335" y="177"/>
      <point x="355" y="257"/>
      <point x="355" y="309" type="curve" smooth="yes"/>
      <point x="355" y="386"/>
      <point x="323" y="432"/>
    </contour>
    <contour>
      <point x="348" y="519" type="line"/>
      <point x="307" y="519" type="line"/>
      <point x="173" y="626" type="line" smooth="yes"/>
      <point x="164" y="633"/>
      <point x="158" y="643"/>
      <point x="158" y="652" type="curve" smooth="yes"/>
      <point x="158" y="672"/>
      <point x="177" y="691"/>
      <point x="197" y="691" type="curve" smooth="yes"/>
      <point x="211" y="691"/>
      <point x="217" y="687"/>
      <point x="235" y="663" type="curve" smooth="yes"/>
    </contour>
  </outline>
</glyph>
<glyph name="thorn" format="1">
  <advance width="574"/>
  <unicode hex="00FE"/>
  <outline>
    <contour>
      <point x="323" y="737" type="line"/>
      <point x="219" y="385" type="line"/>
      <point x="264" y="440"/>
      <point x="317" y="470"/>
      <point x="368" y="470" type="curve" smooth="yes"/>
      <point x="407" y="470"/>
      <point x="447" y="450"/>
      <point x="473" y="418" type="curve" smooth="yes"/>
      <point x="496" y="389"/>
      <point x="506" y="355"/>
      <point x="506" y="307" type="curve" smooth="yes"/>
      <point x="506" y="225"/>
      <point x="477" y="142"/>
      <point x="426" y="78" type="curve"/>
      <point x="378" y="16"/>
      <point x="316" y="-15"/>
      <point x="246" y="-15" type="curve" smooth="yes"/>
      <point x="180" y="-15"/>
      <point x="154" y="4"/>
      <point x="126" y="73" type="curve"/>
      <point x="78" y="-90" type="line"/>
      <point x="67" y="-132"/>
      <point x="67" y="-132"/>
      <point x="67" y="-141" type="curve" smooth="yes"/>
      <point x="67" y="-160"/>
      <point x="83" y="-166"/>
      <point x="131" y="-166" type="curve" smooth="yes"/>
      <point x="143" y="-166" type="line"/>
      <point x="139" y="-202" type="line"/>
      <point x="-101" y="-202" type="line"/>
      <point x="-97" y="-166" type="line"/>
      <point x="-29" y="-163"/>
      <point x="-29" y="-162"/>
      <point x="-9" y="-90" type="curve"/>
      <point x="200" y="611" type="line" smooth="yes"/>
      <point x="207" y="636"/>
      <point x="209" y="646"/>
      <point x="209" y="654" type="curve" smooth="yes"/>
      <point x="209" y="677"/>
      <point x="193" y="686"/>
      <point x="152" y="686" type="curve" smooth="yes"/>
      <point x="120" y="686" type="line"/>
      <point x="124" y="722" type="line"/>
    </contour>
    <contour>
      <point x="337" y="417" type="curve" smooth="yes"/>
      <point x="296" y="417"/>
      <point x="255" y="389"/>
      <point x="221" y="339" type="curve"/>
      <point x="184" y="281"/>
      <point x="152" y="185"/>
      <point x="152" y="127" type="curve" smooth="yes"/>
      <point x="152" y="74"/>
      <point x="188" y="35"/>
      <point x="236" y="35" type="curve" smooth="yes"/>
      <point x="289" y="35"/>
      <point x="330" y="69"/>
      <point x="365" y="144" type="curve" smooth="yes"/>
      <point x="395" y="206"/>
      <point x="412" y="274"/>
      <point x="412" y="329" type="curve" smooth="yes"/>
      <point x="412" y="382"/>
      <point x="382" y="417"/>
    </contour>
  </outline>
</glyph>
<glyph name="abreve" format="1">
  <advance width="574"/>
  <unicode hex="0103"/>
  <outline>
    <contour>
      <point x="396" y="455" type="line"/>
      <point x="483" y="455" type="line"/>
      <point x="383" y="119" type="line" smooth="yes"/>
      <point x="376" y="94"/>
      <point x="372" y="75"/>
      <point x="372" y="65" type="curve" smooth="yes"/>
      <point x="372" y="51"/>
      <point x="382" y="40"/>
      <point x="393" y="40" type="curve" smooth="yes"/>
      <point x="419" y="40"/>
      <point x="454" y="82"/>
      <point x="492" y="158" type="curve"/>
      <point x="523" y="141" type="line"/>
      <point x="511" y="114"/>
      <point x="494" y="86"/>
      <point x="474" y="58" type="curve" smooth="yes"/>
      <point x="439" y="9"/>
      <point x="401" y="-15"/>
      <point x="357" y="-15" type="curve" smooth="yes"/>
      <point x="321" y="-15"/>
      <point x="296" y="11"/>
      <point x="296" y="50" type="curve" smooth="yes"/>
      <point x="296" y="60"/>
      <point x="297" y="67"/>
      <point x="301" y="82" type="curve"/>
      <point x="251" y="10"/>
      <point x="211" y="-15"/>
      <point x="149" y="-15" type="curve" smooth="yes"/>
      <point x="60" y="-15"/>
      <point x="1" y="50"/>
      <point x="1" y="148" type="curve" smooth="yes"/>
      <point x="1" y="228"/>
      <point x="31" y="312"/>
      <point x="82" y="378" type="curve" smooth="yes"/>
      <point x="129" y="438"/>
      <point x="186" y="470"/>
      <point x="247" y="470" type="curve" smooth="yes"/>
      <point x="312" y="470"/>
      <point x="362" y="427"/>
      <point x="369" y="365" type="curve"/>
    </contour>
    <contour>
      <point x="264" y="415" type="curve" smooth="yes"/>
      <point x="234" y="415"/>
      <point x="206" y="403"/>
      <point x="184" y="380" type="curve" smooth="yes"/>
      <point x="131" y="326"/>
      <point x="92" y="222"/>
      <point x="92" y="134" type="curve" smooth="yes"/>
      <point x="92" y="73"/>
      <point x="122" y="36"/>
      <point x="172" y="36" type="curve" smooth="yes"/>
      <point x="222" y="36"/>
      <point x="258" y="64"/>
      <point x="289" y="126" type="curve" smooth="yes"/>
      <point x="320" y="189"/>
      <point x="340" y="269"/>
      <point x="340" y="326" type="curve" smooth="yes"/>
      <point x="340" y="381"/>
      <point x="311" y="415"/>
    </contour>
    <contour>
      <point x="190" y="677" type="curve"/>
      <point x="220" y="677" type="line"/>
      <point x="223" y="617"/>
      <point x="264" y="581"/>
      <point x="327" y="581" type="curve" smooth="yes"/>
      <point x="387" y="581"/>
      <point x="434" y="615"/>
      <point x="459" y="677" type="curve"/>
      <point x="490" y="677" type="line"/>
      <point x="472" y="580"/>
      <point x="407" y="518"/>
      <point x="323" y="518" type="curve" smooth="yes"/>
      <point x="244" y="518"/>
      <point x="189" y="574"/>
      <point x="189" y="653" type="curve" smooth="yes"/>
      <point x="189" y="658"/>
      <point x="189" y="667"/>
    </contour>
  </outline>
</glyph>
<glyph name="Aogonek" format="1">
  <advance width="704"/>
  <unicode hex="0104"/>
  <outline>
    <contour>
      <point x="668" y="47" type="line"/>
      <point x="663" y="0" type="line"/>
      <point x="635" y="-32"/>
      <point x="625" y="-53"/>
      <point x="625" y="-74" type="curve" smooth="yes"/>
      <point x="625" y="-95"/>
      <point x="644" y="-114"/>
      <point x="665" y="-114" type="curve" smooth="yes"/>
      <point x="687" y="-114"/>
      <point x="709" y="-103"/>
      <point x="736" y="-77" type="curve"/>
      <point x="753" y="-99" type="line"/>
      <point x="713" y="-139"/>
      <point x="682" y="-155"/>
      <point x="645" y="-155" type="curve" smooth="yes"/>
      <point x="604" y="-155"/>
      <point x="576" y="-127"/>
      <point x="576" y="-87" type="curve" smooth="yes"/>
      <point x="576" y="-54"/>
      <point x="589" y="-32"/>
      <point x="627" y="0" type="curve"/>
      <point x="362" y="0" type="line"/>
      <point x="367" y="47" type="line"/>
      <point x="383" y="47" type="line" smooth="yes"/>
      <point x="440" y="47"/>
      <point x="455" y="54"/>
      <point x="455" y="83" type="curve" smooth="yes"/>
      <point x="455" y="90"/>
      <point x="453" y="103"/>
      <point x="451" y="115" type="curve" smooth="yes"/>
      <point x="428" y="238" type="line"/>
      <point x="173" y="238" type="line"/>
      <point x="118" y="142" type="line" smooth="yes"/>
      <point x="106" y="122"/>
      <point x="100" y="102"/>
      <point x="100" y="87" type="curve" smooth="yes"/>
      <point x="100" y="57"/>
      <point x="117" y="47"/>
      <point x="169" y="47" type="curve" smooth="yes"/>
      <point x="193" y="47" type="line"/>
      <point x="187" y="0" type="line"/>
      <point x="-82" y="0" type="line"/>
      <point x="-77" y="47" type="line"/>
      <point x="-23" y="47"/>
      <point x="18" y="80"/>
      <point x="71" y="168" type="curve"/>
      <point x="401" y="737" type="line"/>
      <point x="442" y="737" type="line"/>
      <point x="567" y="108" type="line" smooth="yes"/>
      <point x="577" y="56"/>
      <point x="588" y="47"/>
      <point x="643" y="47" type="curve" smooth="yes"/>
    </contour>
    <contour>
      <point x="420" y="285" type="line"/>
      <point x="363" y="572" type="line"/>
      <point x="200" y="285" type="line"/>
    </contour>
  </outline>
</glyph>
<glyph name="cacute" format="1">
  <advance width="444"/>
  <unicode hex="0107"/>
  <outline>
    <contour>
      <point x="341" y="132" type="curve"/>
      <point x="370" y="110" type="line"/>
      <point x="317" y="27"/>
      <point x="252" y="-15"/>
      <point x="177" y="-15" type="curve" smooth="yes"/>
      <point x="73" y="-15"/>
      <point x="5" y="56"/>
      <point x="5" y="166" type="curve" smooth="yes"/>
      <point x="5" y="326"/>
      <point x="131" y="470"/>
      <point x="271" y="470" type="curve" smooth="yes"/>
      <point x="343" y="470"/>
      <point x="401" y="422"/>
      <point x="401" y="362" type="curve" smooth="yes"/>
      <point x="401" y="319"/>
      <point x="374" y="287"/>
      <point x="338" y="287" type="curve" smooth="yes"/>
      <point x="307" y="287"/>
      <point x="285" y="307"/>
      <point x="285" y="336" type="curve" smooth="yes"/>
      <point x="285" y="360"/>
      <point x="295" y="372"/>
      <point x="322" y="384" type="curve" smooth="yes"/>
      <point x="333" y="388"/>
      <point x="338" y="393"/>
      <point x="338" y="399" type="curve" smooth="yes"/>
      <point x="338" y="416"/>
      <point x="306" y="432"/>
      <point x="274" y="432" type="curve" smooth="yes"/>
      <point x="230" y="432"/>
      <point x="194" y="408"/>
      <point x="159" y="358" type="curve" smooth="yes"/>
      <point x="120" y="302"/>
      <point x="97" y="223"/>
      <point x="97" y="152" type="curve" smooth="yes"/>
      <point x="97" y="77"/>
      <point x="131" y="33"/>
      <point x="190" y="33" type="curve" smooth="yes"/>
      <point x="238" y="33"/>
      <point x="291" y="67"/>
    </contour>
    <contour>
      <point x="221" y="519" type="line"/>
      <point x="359" y="659" type="line" smooth="yes"/>
      <point x="383" y="682"/>
      <point x="394" y="689"/>
      <point x="409" y="689" type="curve" smooth="yes"/>
      <point x="428" y="689"/>
      <point x="444" y="673"/>
      <point x="444" y="654" type="curve" smooth="yes"/>
      <point x="444" y="640"/>
      <point x="434" y="625"/>
      <point x="419" y="615" type="curve" smooth="yes"/>
      <point x="260" y="519" type="line"/>
    </contour>
  </outline>
</glyph>
<glyph name="Dcaron" format="1">
  <advance width="778"/>
  <unicode hex="010E"/>
  <outline>
    <contour>
      <point x="-38" y="0" type="line"/>
      <point x="-33" y="47" type="line"/>
      <point x="-28" y="47" type="line" smooth="yes"/>
      <point x="21" y="47"/>
      <point x="44" y="51"/>
      <point x="55" y="61" type="curve" smooth="yes"/>
      <point x="63" y="69"/>
      <point x="64" y="69"/>
      <point x="78" y="123" type="curve" smooth="yes"/>
      <point x="206" y="599" type="line" smooth="yes"/>
      <point x="211" y="619"/>
      <point x="215" y="640"/>
      <point x="215" y="648" type="curve" smooth="yes"/>
      <point x="215" y="670"/>
      <point x="201" y="675"/>
      <point x="136" y="675" type="curve" smooth="yes"/>
      <point x="110" y="675" type="line"/>
      <point x="116" y="722" type="line"/>
      <point x="406" y="722" type="line" smooth="yes"/>
      <point x="518" y="722"/>
      <point x="581" y="708"/>
      <point x="631" y="670" type="curve" smooth="yes"/>
      <point x="698" y="620"/>
      <point x="735" y="537"/>
      <point x="735" y="435" type="curve" smooth="yes"/>
      <point x="735" y="301"/>
      <point x="667" y="162"/>
      <point x="560" y="77" type="curve" smooth="yes"/>
      <point x="490" y="22"/>
      <point x="405" y="0"/>
      <point x="264" y="0" type="curve" smooth="yes"/>
    </contour>
    <contour>
      <point x="227" y="47" type="curve" smooth="yes"/>
      <point x="259" y="47" type="line" smooth="yes"/>
      <point x="356" y="47"/>
      <point x="420" y="65"/>
      <point x="465" y="104" type="curve" smooth="yes"/>
      <point x="546" y="176"/>
      <point x="614" y="352"/>
      <point x="614" y="489" type="curve" smooth="yes"/>
      <point x="614" y="547"/>
      <point x="595" y="602"/>
      <point x="566" y="631" type="curve" smooth="yes"/>
      <point x="537" y="659"/>
      <point x="486" y="675"/>
      <point x="426" y="675" type="curve" smooth="yes"/>
      <point x="396" y="675" type="line" smooth="yes"/>
      <point x="343" y="675"/>
      <point x="336" y="669"/>
      <point x="320" y="610" type="curve" smooth="yes"/>
      <point x="187" y="110" type="line" smooth="yes"/>
      <point x="183" y="98"/>
      <point x="181" y="84"/>
      <point x="181" y="76" type="curve" smooth="yes"/>
      <point x="181" y="56"/>
      <point x="196" y="47"/>
    </contour>
    <contour>
      <point x="420" y="774" type="line"/>
      <point x="329" y="940" type="line"/>
      <point x="365" y="940" type="line"/>
      <point x="451" y="839" type="line"/>
      <point x="587" y="940" type="line"/>
      <point x="623" y="940" type="line"/>
      <point x="470" y="774" type="line"/>
    </contour>
  </outline>
</glyph>
<glyph name="edotaccent" format="1">
  <advance width="444"/>
  <unicode hex="0117"/>
  <outline>
    <contour>
      <point x="339" y="116" type="curve"/>
      <point x="363" y="89" type="line"/>
      <point x="309" y="19"/>
      <point x="244" y="-15"/>
      <point x="167" y="-15" type="curve" smooth="yes"/>
      <point x="59" y="-15"/>
      <point x="-6" y="50"/>
      <point x="-6" y="158" type="curve" smooth="yes"/>
      <point x="-6" y="321"/>
      <point x="126" y="470"/>
      <point x="272" y="470" type="curve" smooth="yes"/>
      <point x="342" y="470"/>
      <point x="391" y="428"/>
      <point x="391" y="367" type="curve" smooth="yes"/>
      <point x="391" y="309"/>
      <point x="348" y="258"/>
      <point x="271" y="224" type="curve" smooth="yes"/>
      <point x="226" y="204"/>
      <point x="206" y="198"/>
      <point x="89" y="170" type="curve"/>
      <point x="88" y="157"/>
      <point x="87" y="143"/>
      <point x="87" y="136" type="curve" smooth="yes"/>
      <point x="87" y="72"/>
      <point x="124" y="32"/>
      <point x="184" y="32" type="curve" smooth="yes"/>
      <point x="236" y="32"/>
      <point x="280" y="55"/>
    </contour>
    <contour>
      <point x="94" y="209" type="curve"/>
      <point x="150" y="221"/>
      <point x="167" y="226"/>
      <point x="196" y="239" type="curve" smooth="yes"/>
      <point x="268" y="271"/>
      <point x="307" y="318"/>
      <point x="307" y="373" type="curve" smooth="yes"/>
      <point x="307" y="407"/>
      <point x="285" y="430"/>
      <point x="252" y="430" type="curve" smooth="yes"/>
      <point x="178" y="430"/>
      <point x="117" y="344"/>
    </contour>
    <contour>
      <point x="262" y="644" type="curve" smooth="yes"/>
      <point x="289" y="644"/>
      <point x="311" y="622"/>
      <point x="311" y="595" type="curve" smooth="yes"/>
      <point x="311" y="568"/>
      <point x="289" y="546"/>
      <point x="262" y="546" type="curve" smooth="yes"/>
      <point x="235" y="546"/>
      <point x="213" y="568"/>
      <point x="213" y="595" type="curve" smooth="yes"/>
      <point x="213" y="622"/>
      <point x="235" y="644"/>
    </contour>
  </outline>
</glyph>
<glyph name="Itilde" format="1">
  <advance width="407"/>
  <unicode hex="0128"/>
  <outline>
    <contour>
      <point x="471" y="928" type="curve"/>
      <point x="501" y="928" type="line"/>
      <point x="494" y="870"/>
      <point x="452" y="823"/>
      <point x="408" y="823" type="curve" smooth="yes"/>
      <point x="386" y="823"/>
      <point x="377" y="825"/>
      <point x="322" y="846" type="curve" smooth="yes"/>
      <point x="278" y="862"/>
      <point x="262" y="867"/>
      <point x="248" y="867" type="curve" smooth="yes"/>
      <point x="226" y="867"/>
      <point x="211" y="852"/>
      <point x="203" y="822" type="curve"/>
      <point x="173" y="822" type="line"/>
      <point x="185" y="888"/>
      <point x="218" y="927"/>
      <point x="263" y="927" type="curve" smooth="yes"/>
      <point x="280" y="927"/>
      <point x="304" y="921"/>
      <point x="363" y="901" type="curve" smooth="yes"/>
      <point x="399" y="888"/>
      <point x="408" y="886"/>
      <point x="422" y="886" type="curve" smooth="yes"/>
      <point x="444" y="886"/>
      <point x="459" y="898"/>
    </contour>
    <contour>
      <point x="283" y="47" type="line"/>
      <point x="277" y="0" type="line"/>
      <point x="-33" y="0" type="line"/>
      <point x="-28" y="47" type="line"/>
      <point x="31" y="48"/>
      <point x="44" y="50"/>
      <point x="56" y="61" type="curve" smooth="yes"/>
      <point x="65" y="70"/>
      <point x="66" y="73"/>
      <point x="79" y="123" type="curve" smooth="yes"/>
      <point x="207" y="599" type="line" smooth="yes"/>
      <point x="214" y="626"/>
      <point x="217" y="640"/>
      <point x="217" y="648" type="curve" smooth="yes"/>
      <point x="217" y="670"/>
      <point x="203" y="675"/>
      <point x="137" y="675" type="curve" smooth="yes"/>
      <point x="115" y="675" type="line"/>
      <point x="121" y="722" type="line"/>
      <point x="431" y="722" type="line"/>
      <point x="426" y="675" type="line"/>
      <point x="368" y="674"/>
      <point x="354" y="672"/>
      <point x="342" y="661" type="curve" smooth="yes"/>
      <point x="333" y="652"/>
      <point x="333" y="651"/>
      <point x="319" y="599" type="curve" smooth="yes"/>
      <point x="191" y="123" type="line" smooth="yes"/>
      <point x="182" y="89"/>
      <point x="181" y="84"/>
      <point x="181" y="75" type="curve" smooth="yes"/>
      <point x="181" y="52"/>
      <point x="195" y="47"/>
      <point x="261" y="47" type="curve" smooth="yes"/>
    </contour>
  </outline>
</glyph>
<glyph name="itilde" format="1">
  <advance width="333"/>
  <unicode hex="0129"/>
  <outline>
    <contour>
      <point x="382" y="676" type="curve"/>
      <point x="412" y="676" type="line"/>
      <point x="405" y="618"/>
      <point x="363" y="571"/>
      <point x="319" y="571" type="curve" smooth="yes"/>
      <point x="297" y="571"/>
      <point x="288" y="573"/>
      <point x="233" y="594" type="curve" smooth="yes"/>
      <point x="189" y="610"/>
      <point x="173" y="615"/>
      <point x="159" y="615" type="curve" smooth="yes"/>
      <point x="137" y="615"/>
      <point x="122" y="600"/>
      <point x="114" y="570" type="curve"/>
      <point x="84" y="570" type="line"/>
      <point x="96" y="636"/>
      <point x="129" y="675"/>
      <point x="174" y="675" type="curve" smooth="yes"/>
      <point x="191" y="675"/>
      <point x="215" y="669"/>
      <point x="274" y="649" type="curve" smooth="yes"/>
      <point x="310" y="636"/>
      <point x="319" y="634"/>
      <point x="333" y="634" type="curve" smooth="yes"/>
      <point x="355" y="634"/>
      <point x="370" y="646"/>
    </contour>
    <contour>
      <point x="231" y="470" type="line"/>
      <point x="125" y="113" type="line" smooth="yes"/>
      <point x="117" y="85"/>
      <point x="113" y="67"/>
      <point x="113" y="57" type="curve" smooth="yes"/>
      <point x="113" y="45"/>
      <point x="120" y="36"/>
      <point x="130" y="36" type="curve" smooth="yes"/>
      <point x="157" y="36"/>
      <point x="201" y="80"/>
      <point x="251" y="157" type="curve"/>
      <point x="282" y="140" type="line"/>
      <point x="254" y="97"/>
      <point x="238" y="75"/>
      <point x="220" y="55" type="curve" smooth="yes"/>
      <point x="180" y="9"/>
      <point x="139" y="-14"/>
      <point x="96" y="-14" type="curve" smooth="yes"/>
      <point x="57" y="-14"/>
      <point x="27" y="13"/>
      <point x="27" y="48" type="curve" smooth="yes"/>
      <point x="27" y="70"/>
      <point x="31" y="86"/>
      <point x="49" y="149" type="curve" smooth="yes"/>
      <point x="107" y="344" type="line" smooth="yes"/>
      <point x="113" y="366"/>
      <point x="116" y="379"/>
      <point x="116" y="388" type="curve" smooth="yes"/>
      <point x="116" y="410"/>
      <point x="100" y="419"/>
      <point x="59" y="419" type="curve" smooth="yes"/>
      <point x="35" y="419" type="line"/>
      <point x="39" y="455" type="line"/>
    </contour>
  </outline>
</glyph>
<glyph name="ibreve" format="1">
  <advance width="333"/>
  <unicode hex="012D"/>
  <outline>
    <contour>
      <point x="126" y="729" type="curve"/>
      <point x="156" y="729" type="line"/>
      <point x="159" y="669"/>
      <point x="200" y="633"/>
      <point x="263" y="633" type="curve" smooth="yes"/>
      <point x="323" y="633"/>
      <point x="370" y="667"/>
      <point x="395" y="729" type="curve"/>
      <point x="426" y="729" type="line"/>
      <point x="408" y="632"/>
      <point x="343" y="570"/>
      <point x="259" y="570" type="curve" smooth="yes"/>
      <point x="180" y="570"/>
      <point x="125" y="626"/>
      <point x="125" y="705" type="curve" smooth="yes"/>
      <point x="125" y="710"/>
      <point x="125" y="719"/>
    </contour>
    <contour>
      <point x="231" y="470" type="line"/>
      <point x="125" y="113" type="line" smooth="yes"/>
      <point x="117" y="85"/>
      <point x="113" y="67"/>
      <point x="113" y="57" type="curve" smooth="yes"/>
      <point x="113" y="45"/>
      <point x="120" y="36"/>
      <point x="130" y="36" type="curve" smooth="yes"/>
      <point x="157" y="36"/>
      <point x="201" y="80"/>
      <point x="251" y="157" type="curve"/>
      <point x="282" y="140" type="line"/>
      <point x="254" y="97"/>
      <point x="238" y="75"/>
      <point x="220" y="55" type="curve" smooth="yes"/>
      <point x="180" y="9"/>
      <point x="139" y="-14"/>
      <point x="96" y="-14" type="curve" smooth="yes"/>
      <point x="57" y="-14"/>
      <point x="27" y="13"/>
      <point x="27" y="48" type="curve" smooth="yes"/>
      <point x="27" y="70"/>
      <point x="31" y="86"/>
      <point x="49" y="149" type="curve" smooth="yes"/>
      <point x="107" y="344" type="line" smooth="yes"/>
      <point x="113" y="366"/>
      <point x="116" y="379"/>
      <point x="116" y="388" type="curve" smooth="yes"/>
      <point x="116" y="410"/>
      <point x="100" y="419"/>
      <point x="59" y="419" type="curve" smooth="yes"/>
      <point x="35" y="419" type="line"/>
      <point x="39" y="455" type="line"/>
    </contour>
  </outline>
</glyph>
<glyph name="iogonek" format="1">
  <advance width="333"/>
  <unicode hex="012F"/>
  <outline>
    <contour>
      <point x="251" y="157" type="curve"/>
      <point x="282" y="140" type="line"/>
      <point x="248" y="88"/>
      <point x="234" y="70"/>
      <point x="204" y="38" type="curve" smooth="yes"/>
      <point x="155" y="-14"/>
      <point x="155" y="-15"/>
      <point x="147" y="-27" type="curve" smooth="yes"/>
      <point x="135" y="-45"/>
      <point x="130" y="-60"/>
      <point x="130" y="-75" type="curve" smooth="yes"/>
      <point x="130" y="-95"/>
      <point x="150" y="-114"/>
      <point x="171" y="-114" type="curve" smooth="yes"/>
      <point x="192" y="-114"/>
      <point x="214" y="-103"/>
      <point x="242" y="-77" type="curve"/>
      <point x="258" y="-99" type="line"/>
      <point x="219" y="-139"/>
      <point x="188" y="-155"/>
      <point x="151" y="-155" type="curve" smooth="yes"/>
      <point x="110" y="-155"/>
      <point x="81" y="-127"/>
      <point x="81" y="-88" type="curve" smooth="yes"/>
      <point x="81" y="-59"/>
      <point x="91" y="-39"/>
      <point x="119" y="-12" type="curve"/>
      <point x="108" y="-14"/>
      <point x="103" y="-14"/>
      <point x="96" y="-14" type="curve" smooth="yes"/>
      <point x="57" y="-14"/>
      <point x="27" y="13"/>
      <point x="27" y="49" type="curve" smooth="yes"/>
      <point x="27" y="70"/>
      <point x="31" y="86"/>
      <point x="49" y="149" type="curve" smooth="yes"/>
      <point x="107" y="344" type="line" smooth="yes"/>
      <point x="113" y="366"/>
      <point x="116" y="379"/>
      <point x="116" y="388" type="curve" smooth="yes"/>
      <point x="116" y="410"/>
      <point x="100" y="419"/>
      <point x="59" y="419" type="curve" smooth="yes"/>
      <point x="35" y="419" type="line"/>
      <point x="39" y="455" type="line"/>
      <point x="231" y="470" type="line"/>
      <point x="125" y="113" type="line" smooth="yes"/>
      <point x="117" y="86"/>
      <point x="113" y="67"/>
      <point x="113" y="56" type="curve" smooth="yes"/>
      <point x="113" y="44"/>
      <point x="120" y="35"/>
      <point x="130" y="35" type="curve" smooth="yes"/>
      <point x="157" y="35"/>
      <point x="200" y="78"/>
    </contour>
    <contour>
      <point x="213" y="714" type="curve" smooth="yes"/>
      <point x="243" y="714"/>
      <point x="267" y="690"/>
      <point x="267" y="660" type="curve" smooth="yes"/>
      <point x="267" y="630"/>
      <point x="243" y="606"/>
      <point x="212" y="606" type="curve" smooth="yes"/>
      <point x="183" y="606"/>
      <point x="159" y="631"/>
      <point x="159" y="660" type="curve" smooth="yes"/>
      <point x="159" y="690"/>
      <point x="183" y="714"/>
    </contour>
  </outline>
</glyph>
<glyph name="dotlessi" format="1">
  <advance width="333"/>
  <unicode hex="0131"/>
  <outline>
    <contour>
      <point x="231" y="470" type="line"/>
      <point x="125" y="113" type="line" smooth="yes"/>
      <point x="117" y="85"/>
      <point x="113" y="67"/>
      <point x="113" y="57" type="curve" smooth="yes"/>
      <point x="113" y="45"/>
      <point x="120" y="36"/>
      <point x="130" y="36" type="curve" smooth="yes"/>
      <point x="157" y="36"/>
      <point x="201" y="80"/>
      <point x="251" y="157" type="curve"/>
      <point x="282" y="140" type="line"/>
      <point x="254" y="97"/>
      <point x="238" y="75"/>
      <point x="220" y="55" type="curve" smooth="yes"/>
      <point x="180" y="9"/>
      <point x="139" y="-14"/>
      <point x="96" y="-14" type="curve" smooth="yes"/>
      <point x="57" y="-14"/>
      <point x="27" y="13"/>
      <point x="27" y="48" type="curve" smooth="yes"/>
      <point x="27" y="70"/>
      <point x="31" y="86"/>
      <point x="49" y="149" type="curve" smooth="yes"/>
      <point x="107" y="344" type="line" smooth="yes"/>
      <point x="113" y="366"/>
      <point x="116" y="379"/>
      <point x="116" y="388" type="curve" smooth="yes"/>
      <point x="116" y="410"/>
      <point x="100" y="419"/>
      <point x="59" y="419" type="curve" smooth="yes"/>
      <point x="35" y="419" type="line"/>
      <point x="39" y="455" type="line"/>
    </contour>
  </outline>
</glyph>
<glyph name="Lcommaaccent" format="1">
  <advance width="667"/>
  <unicode hex="013B"/>
  <outline>
    <contour>
      <point x="589" y="253" type="curve"/>
      <point x="630" y="245" type="line"/>
      <point x="552" y="0" type="line"/>
      <point x="-37" y="0" type="line"/>
      <point x="-32" y="47" type="line"/>
      <point x="-27" y="47" type="line" smooth="yes"/>
      <point x="22" y="47"/>
      <point x="45" y="51"/>
      <point x="56" y="61" type="curve" smooth="yes"/>
      <point x="64" y="69"/>
      <point x="65" y="70"/>
      <point x="79" y="123" type="curve" smooth="yes"/>
      <point x="207" y="599" type="line" smooth="yes"/>
      <point x="212" y="619"/>
      <point x="216" y="640"/>
      <point x="216" y="648" type="curve" smooth="yes"/>
      <point x="216" y="670"/>
      <point x="202" y="675"/>
      <point x="137" y="675" type="curve" smooth="yes"/>
      <point x="111" y="675" type="line"/>
      <point x="117" y="722" type="line"/>
      <point x="453" y="722" type="line"/>
      <point x="447" y="675" type="line"/>
      <point x="425" y="675" type="line" smooth="yes"/>
      <point x="376" y="675"/>
      <point x="352" y="671"/>
      <point x="342" y="661" type="curve" smooth="yes"/>
      <point x="333" y="653"/>
      <point x="333" y="653"/>
      <point x="319" y="599" type="curve" smooth="yes"/>
      <point x="194" y="134" type="line" smooth="yes"/>
      <point x="184" y="97"/>
      <point x="183" y="92"/>
      <point x="183" y="79" type="curve" smooth="yes"/>
      <point x="183" y="55"/>
      <point x="201" y="47"/>
      <point x="253" y="47" type="curve" smooth="yes"/>
      <point x="295" y="47" type="line" smooth="yes"/>
      <point x="437" y="47"/>
      <point x="501" y="92"/>
    </contour>
    <contour>
      <point x="116" y="-288" type="curve"/>
      <point x="104" y="-260" type="line"/>
      <point x="171" y="-230"/>
      <point x="211" y="-188"/>
      <point x="218" y="-143" type="curve"/>
      <point x="203" y="-144" type="line"/>
      <point x="173" y="-144"/>
      <point x="153" y="-125"/>
      <point x="153" y="-96" type="curve" smooth="yes"/>
      <point x="153" y="-65"/>
      <point x="179" y="-40"/>
      <point x="213" y="-40" type="curve" smooth="yes"/>
      <point x="249" y="-40"/>
      <point x="276" y="-70"/>
      <point x="276" y="-112" type="curve" smooth="yes"/>
      <point x="276" y="-181"/>
      <point x="213" y="-251"/>
    </contour>
  </outline>
</glyph>
<glyph name="Lcaron" format="1">
  <advance width="667"/>
  <unicode hex="013D"/>
  <outline>
    <contour>
      <point x="589" y="253" type="curve"/>
      <point x="630" y="245" type="line"/>
      <point x="552" y="0" type="line"/>
      <point x="-37" y="0" type="line"/>
      <point x="-32" y="47" type="line"/>
      <point x="-27" y="47" type="line" smooth="yes"/>
      <point x="22" y="47"/>
      <point x="45" y="51"/>
      <point x="56" y="61" type="curve" smooth="yes"/>
      <point x="64" y="69"/>
      <point x="65" y="70"/>
      <point x="79" y="123" type="curve" smooth="yes"/>
      <point x="207" y="599" type="line" smooth="yes"/>
      <point x="212" y="619"/>
      <point x="216" y="640"/>
      <point x="216" y="648" type="curve" smooth="yes"/>
      <point x="216" y="670"/>
      <point x="202" y="675"/>
      <point x="137" y="675" type="curve" smooth="yes"/>
      <point x="111" y="675" type="line"/>
      <point x="117" y="722" type="line"/>
      <point x="453" y="722" type="line"/>
      <point x="447" y="675" type="line"/>
      <point x="425" y="675" type="line" smooth="yes"/>
      <point x="376" y="675"/>
      <point x="352" y="671"/>
      <point x="342" y="661" type="curve" smooth="yes"/>
      <point x="333" y="653"/>
      <point x="333" y="653"/>
      <point x="319" y="599" type="curve" smooth="yes"/>
      <point x="194" y="134" type="line" smooth="yes"/>
      <point x="184" y="97"/>
      <point x="183" y="92"/>
      <point x="183" y="79" type="curve" smooth="yes"/>
      <point x="183" y="55"/>
      <point x="201" y="47"/>
      <point x="253" y="47" type="curve" smooth="yes"/>
      <point x="295" y="47" type="line" smooth="yes"/>
      <point x="437" y="47"/>
      <point x="501" y="92"/>
    </contour>
    <contour>
      <point x="547" y="489" type="curve"/>
      <point x="535" y="517" type="line"/>
      <point x="602" y="547"/>
      <point x="642" y="589"/>
      <point x="649" y="634" type="curve"/>
      <point x="634" y="633" type="line"/>
      <point x="604" y="633"/>
      <point x="584" y="652"/>
      <point x="584" y="681" type="curve" smooth="yes"/>
      <point x="584" y="712"/>
      <point x="610" y="737"/>
      <point x="644" y="737" type="curve" smooth="yes"/>
      <point x="680" y="737"/>
      <point x="707" y="707"/>
      <point x="707" y="665" type="curve" smooth="yes"/>
      <point x="707" y="596"/>
      <point x="644" y="526"/>
    </contour>
  </outline>
</glyph>
<glyph name="Ldot" format="1">
  <advance width="667"/>
  <unicode hex="013F"/>
  <outline>
    <contour>
      <point x="423" y="427" type="curve" smooth="yes"/>
      <point x="457" y="427"/>
      <point x="485" y="399"/>
      <point x="485" y="365" type="curve" smooth="yes"/>
      <point x="485" y="330"/>
      <point x="457" y="303"/>
      <point x="422" y="303" type="curve" smooth="yes"/>
      <point x="389" y="303"/>
      <point x="361" y="331"/>
      <point x="361" y="365" type="curve" smooth="yes"/>
      <point x="361" y="399"/>
      <point x="389" y="427"/>
    </contour>
    <contour>
      <point x="589" y="253" type="curve"/>
      <point x="630" y="245" type="line"/>
      <point x="552" y="0" type="line"/>
      <point x="-37" y="0" type="line"/>
      <point x="-32" y="47" type="line"/>
      <point x="-27" y="47" type="line" smooth="yes"/>
      <point x="22" y="47"/>
      <point x="45" y="51"/>
      <point x="56" y="61" type="curve" smooth="yes"/>
      <point x="64" y="69"/>
      <point x="65" y="70"/>
      <point x="79" y="123" type="curve" smooth="yes"/>
      <point x="207" y="599" type="line" smooth="yes"/>
      <point x="212" y="619"/>
      <point x="216" y="640"/>
      <point x="216" y="648" type="curve" smooth="yes"/>
      <point x="216" y="670"/>
      <point x="202" y="675"/>
      <point x="137" y="675" type="curve" smooth="yes"/>
      <point x="111" y="675" type="line"/>
      <point x="117" y="722" type="line"/>
      <point x="453" y="722" type="line"/>
      <point x="447" y="675" type="line"/>
      <point x="425" y="675" type="line" smooth="yes"/>
      <point x="376" y="675"/>
      <point x="352" y="671"/>
      <point x="342" y="661" type="curve" smooth="yes"/>
      <point x="333" y="653"/>
      <point x="333" y="653"/>
      <point x="319" y="599" type="curve" smooth="yes"/>
      <point x="194" y="134" type="line" smooth="yes"/>
      <point x="184" y="97"/>
      <point x="183" y="92"/>
      <point x="183" y="79" type="curve" smooth="yes"/>
      <point x="183" y="55"/>
      <point x="201" y="47"/>
      <point x="253" y="47" type="curve" smooth="yes"/>
      <point x="295" y="47" type="line" smooth="yes"/>
      <point x="437" y="47"/>
      <point x="501" y="92"/>
    </contour>
  </outline>
</glyph>
<glyph name="Lslash" format="1">
  <advance width="667"/>
  <unicode hex="0141"/>
  <outline>
    <contour>
      <point x="116" y="258" type="line"/>
      <point x="-4" y="189" type="line"/>
      <point x="14" y="254" type="line"/>
      <point x="133" y="322" type="line"/>
      <point x="207" y="599" type="line" smooth="yes"/>
      <point x="212" y="619"/>
      <point x="216" y="640"/>
      <point x="216" y="648" type="curve" smooth="yes"/>
      <point x="216" y="670"/>
      <point x="202" y="675"/>
      <point x="137" y="675" type="curve" smooth="yes"/>
      <point x="111" y="675" type="line"/>
      <point x="117" y="722" type="line"/>
      <point x="453" y="722" type="line"/>
      <point x="447" y="675" type="line"/>
      <point x="425" y="675" type="line" smooth="yes"/>
      <point x="376" y="675"/>
      <point x="352" y="671"/>
      <point x="342" y="661" type="curve" smooth="yes"/>
      <point x="333" y="653"/>
      <point x="333" y="653"/>
      <point x="319" y="599" type="curve" smooth="yes"/>
      <point x="261" y="385" type="line"/>
      <point x="459" y="499" type="line"/>
      <point x="440" y="435" type="line"/>
      <point x="244" y="321" type="line"/>
      <point x="194" y="134" type="line" smooth="yes"/>
      <point x="184" y="97"/>
      <point x="183" y="92"/>
      <point x="183" y="79" type="curve" smooth="yes"/>
      <point x="183" y="55"/>
      <point x="201" y="47"/>
      <point x="253" y="47" type="curve" smooth="yes"/>
      <point x="295" y="47" type="line" smooth="yes"/>
      <point x="376" y="47"/>
      <point x="434" y="65"/>
      <point x="482" y="106" type="curve" smooth="yes"/>
      <point x="521" y="138"/>
      <point x="540" y="164"/>
      <point x="584" y="245" type="curve"/>
      <point x="589" y="253" type="line"/>
      <point x="630" y="245" type="line"/>
      <point x="552" y="0" type="line"/>
      <point x="-37" y="0" type="line"/>
      <point x="-32" y="47" type="line"/>
      <point x="-27" y="47" type="line" smooth="yes"/>
      <point x="22" y="47"/>
      <point x="45" y="51"/>
      <point x="56" y="61" type="curve" smooth="yes"/>
      <point x="64" y="69"/>
      <point x="65" y="70"/>
      <point x="79" y="123" type="curve" smooth="yes"/>
    </contour>
  </outline>
</glyph>
<glyph name="ncaron" format="1">
  <advance width="611"/>
  <unicode hex="0148"/>
  <outline>
    <contour>
      <point x="229" y="470" type="line"/>
      <point x="200" y="335" type="line"/>
      <point x="267" y="427"/>
      <point x="326" y="470"/>
      <point x="385" y="470" type="curve" smooth="yes"/>
      <point x="438" y="470"/>
      <point x="481" y="426"/>
      <point x="481" y="373" type="curve" smooth="yes"/>
      <point x="481" y="344"/>
      <point x="473" y="305"/>
      <point x="457" y="260" type="curve" smooth="yes"/>
      <point x="410" y="122" type="line" smooth="yes"/>
      <point x="394" y="78"/>
      <point x="391" y="66"/>
      <point x="391" y="55" type="curve" smooth="yes"/>
      <point x="391" y="44"/>
      <point x="399" y="36"/>
      <point x="409" y="36" type="curve" smooth="yes"/>
      <point x="440" y="36"/>
      <point x="483" y="77"/>
      <point x="533" y="156" type="curve"/>
      <point x="562" y="135" type="line"/>
      <point x="506" y="38"/>
      <point x="442" y="-15"/>
      <point x="379" y="-15" type="curve" smooth="yes"/>
      <point x="339" y="-15"/>
      <point x="309" y="17"/>
      <point x="309" y="59" type="curve" smooth="yes"/>
      <point x="309" y="81"/>
      <point x="314" y="104"/>
      <point x="327" y="143" type="curve" smooth="yes"/>
      <point x="380" y="299" type="line" smooth="yes"/>
      <point x="390" y="330"/>
      <point x="395" y="352"/>
      <point x="395" y="369" type="curve" smooth="yes"/>
      <point x="395" y="392"/>
      <point x="378" y="410"/>
      <point x="355" y="410" type="curve" smooth="yes"/>
      <point x="312" y="410"/>
      <point x="259" y="371"/>
      <point x="216" y="307" type="curve" smooth="yes"/>
      <point x="180" y="254"/>
      <point x="168" y="226"/>
      <point x="142" y="139" type="curve" smooth="yes"/>
      <point x="101" y="0" type="line"/>
      <point x="14" y="0" type="line"/>
      <point x="116" y="344" type="line" smooth="yes"/>
      <point x="122" y="366"/>
      <point x="125" y="379"/>
      <point x="125" y="388" type="curve" smooth="yes"/>
      <point x="125" y="410"/>
      <point x="109" y="419"/>
      <point x="68" y="419" type="curve" smooth="yes"/>
      <point x="44" y="419" type="line"/>
      <point x="48" y="455" type="line"/>
    </contour>
    <contour>
      <point x="307" y="520" type="line"/>
      <point x="212" y="683" type="line"/>
      <point x="249" y="683" type="line"/>
      <point x="338" y="585" type="line"/>
      <point x="480" y="683" type="line"/>
      <point x="517" y="683" type="line"/>
      <point x="358" y="520" type="line"/>
    </contour>
  </outline>
</glyph>
<glyph name="napostrophe" format="1">
  <advance width="611"/>
  <unicode hex="0149"/>
  <outline>
    <contour>
      <point x="229" y="470" type="line"/>
      <point x="200" y="335" type="line"/>
      <point x="267" y="427"/>
      <point x="326" y="470"/>
      <point x="385" y="470" type="curve" smooth="yes"/>
      <point x="438" y="470"/>
      <point x="481" y="426"/>
      <point x="481" y="373" type="curve" smooth="yes"/>
      <point x="481" y="344"/>
      <point x="473" y="305"/>
      <point x="457" y="260" type="curve" smooth="yes"/>
      <point x="410" y="122" type="line" smooth="yes"/>
      <point x="394" y="78"/>
      <point x="391" y="66"/>
      <point x="391" y="55" type="curve" smooth="yes"/>
      <point x="391" y="44"/>
      <point x="399" y="36"/>
      <point x="409" y="36" type="curve" smooth="yes"/>
      <point x="440" y="36"/>
      <point x="483" y="77"/>
      <point x="533" y="156" type="curve"/>
      <point x="562" y="135" type="line"/>
      <point x="506" y="38"/>
      <point x="442" y="-15"/>
      <point x="379" y="-15" type="curve" smooth="yes"/>
      <point x="339" y="-15"/>
      <point x="309" y="17"/>
      <point x="309" y="59" type="curve" smooth="yes"/>
      <point x="309" y="81"/>
      <point x="314" y="104"/>
      <point x="327" y="143" type="curve" smooth="yes"/>
      <point x="380" y="299" type="line" smooth="yes"/>
      <point x="390" y="330"/>
      <point x="395" y="352"/>
      <point x="395" y="369" type="curve" smooth="yes"/>
      <point x="395" y="392"/>
      <point x="378" y="410"/>
      <point x="355" y="410" type="curve" smooth="yes"/>
      <point x="312" y="410"/>
      <point x="259" y="371"/>
      <point x="216" y="307" type="curve" smooth="yes"/>
      <point x="180" y="254"/>
      <point x="168" y="226"/>
      <point x="142" y="139" type="curve" smooth="yes"/>
      <point x="101" y="0" type="line"/>
      <point x="14" y="0" type="line"/>
      <point x="116" y="344" type="line" smooth="yes"/>
      <point x="122" y="366"/>
      <point x="125" y="379"/>
      <point x="125" y="388" type="curve" smooth="yes"/>
      <point x="125" y="410"/>
      <point x="109" y="419"/>
      <point x="68" y="419" type="curve" smooth="yes"/>
      <point x="44" y="419" type="line"/>
      <point x="48" y="455" type="line"/>
    </contour>
    <contour>
      <point x="111" y="503" type="curve"/>
      <point x="98" y="534" type="line"/>
      <point x="172" y="568"/>
      <point x="216" y="614"/>
      <point x="225" y="665" type="curve"/>
      <point x="218" y="664"/>
      <point x="212" y="664"/>
      <point x="208" y="664" type="curve" smooth="yes"/>
      <point x="174" y="664"/>
      <point x="152" y="685"/>
      <point x="152" y="717" type="curve" smooth="yes"/>
      <point x="152" y="752"/>
      <point x="182" y="779"/>
      <point x="219" y="779" type="curve" smooth="yes"/>
      <point x="259" y="779"/>
      <point x="289" y="745"/>
      <point x="289" y="699" type="curve" smooth="yes"/>
      <point x="289" y="622"/>
      <point x="219" y="545"/>
    </contour>
  </outline>
</glyph>
<glyph name="Eng" format="1">
  <advance width="815"/>
  <unicode hex="014A"/>
  <outline>
    <contour>
      <point x="525" y="5" type="curve"/>
      <point x="256" y="587" type="line"/>
      <point x="157" y="217" type="line" smooth="yes"/>
      <point x="134" y="128"/>
      <point x="133" y="124"/>
      <point x="133" y="102" type="curve" smooth="yes"/>
      <point x="133" y="65"/>
      <point x="162" y="47"/>
      <point x="223" y="47" type="curve" smooth="yes"/>
      <point x="234" y="47" type="line"/>
      <point x="228" y="0" type="line"/>
      <point x="-48" y="0" type="line"/>
      <point x="-43" y="47" type="line"/>
      <point x="44" y="49"/>
      <point x="63" y="71"/>
      <point x="102" y="217" type="curve" smooth="yes"/>
      <point x="216" y="643" type="line"/>
      <point x="208" y="670"/>
      <point x="199" y="675"/>
      <point x="151" y="675" type="curve" smooth="yes"/>
      <point x="99" y="675" type="line"/>
      <point x="104" y="722" type="line"/>
      <point x="315" y="722" type="line"/>
      <point x="568" y="170" type="line"/>
      <point x="658" y="505" type="line"/>
      <point x="680" y="594"/>
      <point x="681" y="598"/>
      <point x="681" y="620" type="curve" smooth="yes"/>
      <point x="681" y="657"/>
      <point x="652" y="675"/>
      <point x="591" y="675" type="curve"/>
      <point x="597" y="722" type="line"/>
      <point x="859" y="722" type="line"/>
      <point x="854" y="675" type="line"/>
      <point x="770" y="672"/>
      <point x="751" y="651"/>
      <point x="712" y="505" type="curve" smooth="yes"/>
      <point x="573" y="-14" type="line" smooth="yes"/>
      <point x="552" y="-93"/>
      <point x="492" y="-176"/>
      <point x="371" y="-176" type="curve" smooth="yes"/>
      <point x="350" y="-176" type="line"/>
      <point x="360" y="-143" type="line"/>
      <point x="360" y="-143"/>
      <point x="402" y="-141"/>
      <point x="426" y="-129" type="curve" smooth="yes"/>
      <point x="486" y="-99"/>
      <point x="512" y="-42"/>
    </contour>
  </outline>
</glyph>
<glyph name="eng" format="1">
  <advance width="611"/>
  <unicode hex="014B"/>
  <outline>
    <contour>
      <point x="412" y="82" type="line" smooth="yes"/>
      <point x="371" y="-79"/>
      <point x="234" y="-160"/>
      <point x="146" y="-160" type="curve" smooth="yes"/>
      <point x="139" y="-160"/>
      <point x="134" y="-159"/>
      <point x="131" y="-158" type="curve"/>
      <point x="139" y="-108" type="line"/>
      <point x="141" y="-111"/>
      <point x="146" y="-113"/>
      <point x="152" y="-113" type="curve" smooth="yes"/>
      <point x="214" y="-113"/>
      <point x="301" y="0"/>
      <point x="323" y="83" type="curve" smooth="yes"/>
      <point x="380" y="299" type="line" smooth="yes"/>
      <point x="389" y="332"/>
      <point x="395" y="352"/>
      <point x="395" y="369" type="curve" smooth="yes"/>
      <point x="395" y="392"/>
      <point x="378" y="410"/>
      <point x="355" y="410" type="curve" smooth="yes"/>
      <point x="312" y="410"/>
      <point x="259" y="371"/>
      <point x="216" y="307" type="curve" smooth="yes"/>
      <point x="180" y="254"/>
      <point x="168" y="226"/>
      <point x="142" y="139" type="curve" smooth="yes"/>
      <point x="101" y="0" type="line"/>
      <point x="14" y="0" type="line"/>
      <point x="116" y="344" type="line" smooth="yes"/>
      <point x="122" y="366"/>
      <point x="125" y="379"/>
      <point x="125" y="388" type="curve" smooth="yes"/>
      <point x="125" y="410"/>
      <point x="109" y="419"/>
      <point x="68" y="419" type="curve" smooth="yes"/>
      <point x="44" y="419" type="line"/>
      <point x="48" y="455" type="line"/>
      <point x="229" y="470" type="line"/>
      <point x="200" y="335" type="line"/>
      <point x="267" y="427"/>
      <point x="326" y="470"/>
      <point x="385" y="470" type="curve" smooth="yes"/>
      <point x="438" y="470"/>
      <point x="481" y="426"/>
      <point x="481" y="373" type="curve" smooth="yes"/>
      <point x="481" y="344"/>
      <point x="468" y="305"/>
      <point x="457" y="260" type="curve" smooth="yes"/>
    </contour>
  </outline>
</glyph>
<glyph name="Racute" format="1">
  <advance width="741"/>
  <unicode hex="0154"/>
  <outline>
    <contour>
      <point x="248" y="350" type="line"/>
      <point x="187" y="123" type="line" smooth="yes"/>
      <point x="177" y="82"/>
      <point x="177" y="82"/>
      <point x="177" y="74" type="curve" smooth="yes"/>
      <point x="177" y="52"/>
      <point x="191" y="47"/>
      <point x="256" y="47" type="curve" smooth="yes"/>
      <point x="282" y="47" type="line"/>
      <point x="277" y="0" type="line"/>
      <point x="-41" y="0" type="line"/>
      <point x="-36" y="47" type="line"/>
      <point x="-31" y="47" type="line" smooth="yes"/>
      <point x="18" y="47"/>
      <point x="41" y="51"/>
      <point x="52" y="61" type="curve" smooth="yes"/>
      <point x="60" y="69"/>
      <point x="61" y="70"/>
      <point x="75" y="123" type="curve" smooth="yes"/>
      <point x="203" y="599" type="line" smooth="yes"/>
      <point x="208" y="619"/>
      <point x="212" y="640"/>
      <point x="212" y="648" type="curve" smooth="yes"/>
      <point x="212" y="670"/>
      <point x="198" y="675"/>
      <point x="133" y="675" type="curve" smooth="yes"/>
      <point x="107" y="675" type="line"/>
      <point x="113" y="722" type="line"/>
      <point x="433" y="722" type="line" smooth="yes"/>
      <point x="517" y="722"/>
      <point x="566" y="714"/>
      <point x="605" y="694" type="curve" smooth="yes"/>
      <point x="660" y="666"/>
      <point x="691" y="617"/>
      <point x="691" y="558" type="curve" smooth="yes"/>
      <point x="691" y="493"/>
      <point x="651" y="432"/>
      <point x="589" y="400" type="curve" smooth="yes"/>
      <point x="553" y="382"/>
      <point x="514" y="373"/>
      <point x="436" y="364" type="curve"/>
      <point x="509" y="337"/>
      <point x="539" y="289"/>
      <point x="539" y="202" type="curve" smooth="yes"/>
      <point x="539" y="191"/>
      <point x="539" y="179"/>
      <point x="538" y="166" type="curve" smooth="yes"/>
      <point x="537" y="115" type="line" smooth="yes"/>
      <point x="537" y="73"/>
      <point x="546" y="54"/>
      <point x="567" y="54" type="curve" smooth="yes"/>
      <point x="595" y="54"/>
      <point x="612" y="76"/>
      <point x="637" y="147" type="curve"/>
      <point x="673" y="132" type="line"/>
      <point x="634" y="26"/>
      <point x="594" y="-15"/>
      <point x="530" y="-15" type="curve" smooth="yes"/>
      <point x="467" y="-15"/>
      <point x="424" y="34"/>
      <point x="424" y="106" type="curve" smooth="yes"/>
      <point x="424" y="125"/>
      <point x="424" y="130"/>
      <point x="430" y="206" type="curve" smooth="yes"/>
      <point x="432" y="227"/>
      <point x="433" y="248"/>
      <point x="433" y="260" type="curve" smooth="yes"/>
      <point x="433" y="325"/>
      <point x="401" y="350"/>
      <point x="317" y="350" type="curve" smooth="yes"/>
    </contour>
    <contour>
      <point x="260" y="397" type="line"/>
      <point x="338" y="397" type="line" smooth="yes"/>
      <point x="422" y="397"/>
      <point x="452" y="402"/>
      <point x="489" y="424" type="curve" smooth="yes"/>
      <point x="543" y="456"/>
      <point x="571" y="504"/>
      <point x="571" y="565" type="curve" smooth="yes"/>
      <point x="571" y="635"/>
      <point x="523" y="675"/>
      <point x="439" y="675" type="curve" smooth="yes"/>
      <point x="390" y="675" type="line" smooth="yes"/>
      <point x="343" y="675"/>
      <point x="333" y="666"/>
      <point x="319" y="615" type="curve" smooth="yes"/>
    </contour>
    <contour>
      <point x="352" y="774" type="line"/>
      <point x="490" y="917" type="line" smooth="yes"/>
      <point x="511" y="939"/>
      <point x="525" y="947"/>
      <point x="540" y="947" type="curve" smooth="yes"/>
      <point x="559" y="947"/>
      <point x="575" y="931"/>
      <point x="575" y="913" type="curve" smooth="yes"/>
      <point x="575" y="898"/>
      <point x="565" y="884"/>
      <point x="550" y="874" type="curve" smooth="yes"/>
      <point x="391" y="774" type="line"/>
    </contour>
  </outline>
</glyph>
<glyph name="racute" format="1">
  <advance width="444"/>
  <unicode hex="0155"/>
  <outline>
    <contour>
      <point x="224" y="470" type="line"/>
      <point x="201" y="354" type="line"/>
      <point x="254" y="436"/>
      <point x="298" y="470"/>
      <point x="354" y="470" type="curve" smooth="yes"/>
      <point x="400" y="470"/>
      <point x="433" y="439"/>
      <point x="433" y="396" type="curve" smooth="yes"/>
      <point x="433" y="359"/>
      <point x="408" y="332"/>
      <point x="374" y="332" type="curve" smooth="yes"/>
      <point x="355" y="332"/>
      <point x="339" y="340"/>
      <point x="331" y="354" type="curve" smooth="yes"/>
      <point x="327" y="360"/>
      <point x="327" y="363"/>
      <point x="327" y="386" type="curve" smooth="yes"/>
      <point x="327" y="401"/>
      <point x="321" y="409"/>
      <point x="309" y="409" type="curve" smooth="yes"/>
      <point x="263" y="409"/>
      <point x="180" y="283"/>
      <point x="143" y="158" type="curve" smooth="yes"/>
      <point x="96" y="0" type="line"/>
      <point x="9" y="0" type="line"/>
      <point x="111" y="344" type="line" smooth="yes"/>
      <point x="116" y="362"/>
      <point x="121" y="384"/>
      <point x="121" y="391" type="curve" smooth="yes"/>
      <point x="121" y="410"/>
      <point x="103" y="419"/>
      <point x="63" y="419" type="curve" smooth="yes"/>
      <point x="39" y="419" type="line"/>
      <point x="43" y="455" type="line"/>
    </contour>
    <contour>
      <point x="227" y="519" type="line"/>
      <point x="365" y="659" type="line" smooth="yes"/>
      <point x="389" y="682"/>
      <point x="400" y="689"/>
      <point x="415" y="689" type="curve" smooth="yes"/>
      <point x="434" y="689"/>
      <point x="450" y="673"/>
      <point x="450" y="654" type="curve" smooth="yes"/>
      <point x="450" y="640"/>
      <point x="440" y="625"/>
      <point x="425" y="615" type="curve" smooth="yes"/>
      <point x="266" y="519" type="line"/>
    </contour>
  </outline>
</glyph>
<glyph name="Scedilla" format="1">
  <advance width="667"/>
  <unicode hex="015E"/>
  <outline>
    <contour>
      <point x="300" y="-15" type="curve"/>
      <point x="271" y="-64" type="line"/>
      <point x="285" y="-62"/>
      <point x="292" y="-61"/>
      <point x="301" y="-61" type="curve" smooth="yes"/>
      <point x="349" y="-61"/>
      <point x="382" y="-89"/>
      <point x="382" y="-129" type="curve" smooth="yes"/>
      <point x="382" y="-182"/>
      <point x="333" y="-216"/>
      <point x="258" y="-216" type="curve" smooth="yes"/>
      <point x="225" y="-216"/>
      <point x="199" y="-211"/>
      <point x="170" y="-199" type="curve"/>
      <point x="188" y="-166" type="line"/>
      <point x="212" y="-174"/>
      <point x="231" y="-178"/>
      <point x="250" y="-178" type="curve" smooth="yes"/>
      <point x="284" y="-178"/>
      <point x="306" y="-162"/>
      <point x="306" y="-138" type="curve" smooth="yes"/>
      <point x="306" y="-114"/>
      <point x="287" y="-99"/>
      <point x="258" y="-99" type="curve" smooth="yes"/>
      <point x="248" y="-99"/>
      <point x="238" y="-101"/>
      <point x="225" y="-105" type="curve"/>
      <point x="216" y="-99" type="line"/>
      <point x="266" y="-13" type="line"/>
      <point x="204" y="-8"/>
      <point x="135" y="22"/>
      <point x="94" y="63" type="curve"/>
      <point x="35" y="0" type="line"/>
      <point x="0" y="0" type="line"/>
      <point x="55" y="285" type="line"/>
      <point x="95" y="278" type="line"/>
      <point x="94" y="267"/>
      <point x="94" y="254"/>
      <point x="94" y="250" type="curve" smooth="yes"/>
      <point x="94" y="183"/>
      <point x="110" y="134"/>
      <point x="147" y="92" type="curve" smooth="yes"/>
      <point x="186" y="48"/>
      <point x="234" y="28"/>
      <point x="299" y="28" type="curve" smooth="yes"/>
      <point x="402" y="28"/>
      <point x="473" y="86"/>
      <point x="473" y="171" type="curve" smooth="yes"/>
      <point x="473" y="208"/>
      <point x="458" y="237"/>
      <point x="429" y="258" type="curve" smooth="yes"/>
      <point x="417" y="266"/>
      <point x="405" y="272"/>
      <point x="351" y="294" type="curve" smooth="yes"/>
      <point x="265" y="330" type="line" smooth="yes"/>
      <point x="213" y="352"/>
      <point x="185" y="369"/>
      <point x="165" y="391" type="curve" smooth="yes"/>
      <point x="135" y="424"/>
      <point x="118" y="468"/>
      <point x="118" y="513" type="curve" smooth="yes"/>
      <point x="118" y="639"/>
      <point x="223" y="737"/>
      <point x="358" y="737" type="curve" smooth="yes"/>
      <point x="431" y="737"/>
      <point x="488" y="714"/>
      <point x="540" y="663" type="curve"/>
      <point x="594" y="715" type="line"/>
      <point x="632" y="715" type="line"/>
      <point x="578" y="454" type="line"/>
      <point x="536" y="461" type="line"/>
      <point x="537" y="470"/>
      <point x="537" y="478"/>
      <point x="537" y="481" type="curve" smooth="yes"/>
      <point x="537" y="613"/>
      <point x="471" y="694"/>
      <point x="365" y="694" type="curve" smooth="yes"/>
      <point x="276" y="694"/>
      <point x="209" y="637"/>
      <point x="209" y="563" type="curve" smooth="yes"/>
      <point x="209" y="512"/>
      <point x="244" y="475"/>
      <point x="323" y="444" type="curve" smooth="yes"/>
      <point x="408" y="410" type="line" smooth="yes"/>
      <point x="527" y="363"/>
      <point x="569" y="312"/>
      <point x="569" y="214" type="curve" smooth="yes"/>
      <point x="569" y="81"/>
      <point x="458" y="-14"/>
    </contour>
  </outline>
</glyph>
<glyph name="scedilla" format="1">
  <advance width="444"/>
  <unicode hex="015F"/>
  <outline>
    <contour>
      <point x="169" y="-15" type="curve"/>
      <point x="140" y="-64" type="line"/>
      <point x="154" y="-62"/>
      <point x="160" y="-61"/>
      <point x="169" y="-61" type="curve" smooth="yes"/>
      <point x="218" y="-61"/>
      <point x="251" y="-89"/>
      <point x="251" y="-129" type="curve" smooth="yes"/>
      <point x="251" y="-181"/>
      <point x="202" y="-216"/>
      <point x="127" y="-216" type="curve" smooth="yes"/>
      <point x="94" y="-216"/>
      <point x="67" y="-211"/>
      <point x="39" y="-199" type="curve"/>
      <point x="57" y="-166" type="line"/>
      <point x="81" y="-174"/>
      <point x="99" y="-178"/>
      <point x="119" y="-178" type="curve" smooth="yes"/>
      <point x="152" y="-178"/>
      <point x="175" y="-162"/>
      <point x="175" y="-138" type="curve" smooth="yes"/>
      <point x="175" y="-114"/>
      <point x="156" y="-99"/>
      <point x="127" y="-99" type="curve" smooth="yes"/>
      <point x="117" y="-99"/>
      <point x="107" y="-101"/>
      <point x="93" y="-105" type="curve"/>
      <point x="85" y="-99" type="line"/>
      <point x="134" y="-14" type="line"/>
      <point x="48" y="-5"/>
      <point x="-1" y="35"/>
      <point x="-1" y="98" type="curve" smooth="yes"/>
      <point x="-1" y="137"/>
      <point x="24" y="165"/>
      <point x="57" y="165" type="curve" smooth="yes"/>
      <point x="86" y="165"/>
      <point x="108" y="143"/>
      <point x="108" y="115" type="curve" smooth="yes"/>
      <point x="108" y="97"/>
      <point x="105" y="92"/>
      <point x="87" y="72" type="curve" smooth="yes"/>
      <point x="83" y="69"/>
      <point x="80" y="62"/>
      <point x="80" y="57" type="curve" smooth="yes"/>
      <point x="80" y="37"/>
      <point x="116" y="23"/>
      <point x="167" y="23" type="curve" smooth="yes"/>
      <point x="236" y="23"/>
      <point x="281" y="58"/>
      <point x="281" y="111" type="curve" smooth="yes"/>
      <point x="281" y="145"/>
      <point x="267" y="160"/>
      <point x="210" y="183" type="curve" smooth="yes"/>
      <point x="169" y="199"/>
      <point x="148" y="209"/>
      <point x="132" y="217" type="curve" smooth="yes"/>
      <point x="88" y="240"/>
      <point x="63" y="277"/>
      <point x="63" y="319" type="curve" smooth="yes"/>
      <point x="63" y="405"/>
      <point x="140" y="470"/>
      <point x="241" y="470" type="curve" smooth="yes"/>
      <point x="330" y="470"/>
      <point x="392" y="428"/>
      <point x="392" y="366" type="curve" smooth="yes"/>
      <point x="392" y="330"/>
      <point x="369" y="305"/>
      <point x="335" y="305" type="curve" smooth="yes"/>
      <point x="305" y="305"/>
      <point x="283" y="324"/>
      <point x="283" y="351" type="curve" smooth="yes"/>
      <point x="283" y="366"/>
      <point x="285" y="371"/>
      <point x="299" y="391" type="curve" smooth="yes"/>
      <point x="302" y="396"/>
      <point x="304" y="401"/>
      <point x="304" y="405" type="curve" smooth="yes"/>
      <point x="304" y="421"/>
      <point x="277" y="432"/>
      <point x="239" y="432" type="curve" smooth="yes"/>
      <point x="181" y="432"/>
      <point x="137" y="398"/>
      <point x="137" y="352" type="curve" smooth="yes"/>
      <point x="137" y="313"/>
      <point x="154" y="297"/>
      <point x="219" y="274" type="curve" smooth="yes"/>
      <point x="274" y="254"/>
      <point x="284" y="249"/>
      <point x="306" y="235" type="curve" smooth="yes"/>
      <point x="338" y="213"/>
      <point x="356" y="178"/>
      <point x="356" y="139" type="curve" smooth="yes"/>
      <point x="356" y="50"/>
      <point x="281" y="-12"/>
    </contour>
  </outline>
</glyph>
<glyph name="tcommaaccent" format="1">
  <advance width="352"/>
  <unicode hex="0163"/>
  <outline>
    <contour>
      <point x="268" y="621" type="line"/>
      <point x="219" y="455" type="line"/>
      <point x="329" y="455" type="line"/>
      <point x="315" y="408" type="line"/>
      <point x="205" y="408" type="line"/>
      <point x="111" y="89" type="line" smooth="yes"/>
      <point x="108" y="81"/>
      <point x="107" y="72"/>
      <point x="107" y="66" type="curve" smooth="yes"/>
      <point x="107" y="49"/>
      <point x="116" y="38"/>
      <point x="130" y="38" type="curve" smooth="yes"/>
      <point x="163" y="38"/>
      <point x="192" y="66"/>
      <point x="255" y="160" type="curve"/>
      <point x="285" y="140" type="line"/>
      <point x="259" y="98"/>
      <point x="249" y="82"/>
      <point x="234" y="63" type="curve" smooth="yes"/>
      <point x="199" y="16"/>
      <point x="144" y="-15"/>
      <point x="96" y="-15" type="curve" smooth="yes"/>
      <point x="56" y="-15"/>
      <point x="24" y="19"/>
      <point x="24" y="61" type="curve" smooth="yes"/>
      <point x="24" y="83"/>
      <point x="28" y="100"/>
      <point x="44" y="156" type="curve" smooth="yes"/>
      <point x="119" y="408" type="line"/>
      <point x="25" y="408" type="line"/>
      <point x="38" y="455" type="line"/>
      <point x="133" y="455" type="line"/>
      <point x="182" y="621" type="line"/>
    </contour>
    <contour>
      <point x="7" y="-288" type="curve"/>
      <point x="-5" y="-260" type="line"/>
      <point x="62" y="-230"/>
      <point x="102" y="-188"/>
      <point x="109" y="-143" type="curve"/>
      <point x="94" y="-144" type="line"/>
      <point x="64" y="-144"/>
      <point x="44" y="-125"/>
      <point x="44" y="-96" type="curve" smooth="yes"/>
      <point x="44" y="-65"/>
      <point x="70" y="-40"/>
      <point x="104" y="-40" type="curve" smooth="yes"/>
      <point x="140" y="-40"/>
      <point x="167" y="-70"/>
      <point x="167" y="-112" type="curve" smooth="yes"/>
      <point x="167" y="-181"/>
      <point x="104" y="-251"/>
    </contour>
  </outline>
</glyph>
<glyph name="tcaron" format="1">
  <advance width="368"/>
  <unicode hex="0165"/>
  <outline>
    <contour>
      <point x="269" y="621" type="line"/>
      <point x="220" y="455" type="line"/>
      <point x="329" y="455" type="line"/>
      <point x="315" y="408" type="line"/>
      <point x="206" y="408" type="line"/>
      <point x="111" y="89" type="line" smooth="yes"/>
      <point x="109" y="81"/>
      <point x="108" y="74"/>
      <point x="108" y="66" type="curve" smooth="yes"/>
      <point x="108" y="49"/>
      <point x="117" y="38"/>
      <point x="131" y="38" type="curve" smooth="yes"/>
      <point x="164" y="38"/>
      <point x="193" y="66"/>
      <point x="255" y="160" type="curve"/>
      <point x="285" y="140" type="line"/>
      <point x="259" y="98"/>
      <point x="249" y="82"/>
      <point x="235" y="63" type="curve" smooth="yes"/>
      <point x="200" y="16"/>
      <point x="144" y="-15"/>
      <point x="97" y="-15" type="curve" smooth="yes"/>
      <point x="57" y="-15"/>
      <point x="25" y="19"/>
      <point x="25" y="61" type="curve" smooth="yes"/>
      <point x="25" y="83"/>
      <point x="30" y="106"/>
      <point x="44" y="156" type="curve" smooth="yes"/>
      <point x="119" y="408" type="line"/>
      <point x="25" y="408" type="line"/>
      <point x="39" y="455" type="line"/>
      <point x="133" y="455" type="line"/>
      <point x="182" y="621" type="line"/>
    </contour>
    <contour>
      <point x="268" y="461" type="curve"/>
      <point x="256" y="489" type="line"/>
      <point x="323" y="519"/>
      <point x="363" y="561"/>
      <point x="370" y="606" type="curve"/>
      <point x="355" y="605" type="line"/>
      <point x="325" y="605"/>
      <point x="305" y="624"/>
      <point x="305" y="653" type="curve" smooth="yes"/>
      <point x="305" y="684"/>
      <point x="331" y="709"/>
      <point x="365" y="709" type="curve" smooth="yes"/>
      <point x="401" y="709"/>
      <point x="428" y="679"/>
      <point x="428" y="637" type="curve" smooth="yes"/>
      <point x="428" y="568"/>
      <point x="365" y="498"/>
    </contour>
  </outline>
</glyph>
<glyph name="tbar" format="1">
  <advance width="352"/>
  <unicode hex="0167"/>
  <outline>
    <contour>
      <point x="80" y="276" type="line"/>
      <point x="-10" y="276" type="line"/>
      <point x="1" y="327" type="line"/>
      <point x="95" y="327" type="line"/>
      <point x="119" y="408" type="line"/>
      <point x="25" y="408" type="line"/>
      <point x="39" y="455" type="line"/>
      <point x="133" y="455" type="line"/>
      <point x="182" y="621" type="line"/>
      <point x="269" y="621" type="line"/>
      <point x="220" y="455" type="line"/>
      <point x="329" y="455" type="line"/>
      <point x="315" y="408" type="line"/>
      <point x="206" y="408" type="line"/>
      <point x="182" y="327" type="line"/>
      <point x="302" y="327" type="line"/>
      <point x="291" y="276" type="line"/>
      <point x="167" y="276" type="line"/>
      <point x="111" y="89" type="line" smooth="yes"/>
      <point x="109" y="81"/>
      <point x="108" y="74"/>
      <point x="108" y="66" type="curve" smooth="yes"/>
      <point x="108" y="49"/>
      <point x="117" y="38"/>
      <point x="131" y="38" type="curve" smooth="yes"/>
      <point x="164" y="38"/>
      <point x="193" y="66"/>
      <point x="255" y="160" type="curve"/>
      <point x="285" y="140" type="line"/>
      <point x="259" y="98"/>
      <point x="249" y="82"/>
      <point x="235" y="63" type="curve" smooth="yes"/>
      <point x="200" y="16"/>
      <point x="144" y="-15"/>
      <point x="97" y="-15" type="curve" smooth="yes"/>
      <point x="57" y="-15"/>
      <point x="25" y="19"/>
      <point x="25" y="61" type="curve" smooth="yes"/>
      <point x="25" y="83"/>
      <point x="30" y="106"/>
      <point x="44" y="156" type="curve" smooth="yes"/>
    </contour>
  </outline>
</glyph>
<glyph name="Umacron" format="1">
  <advance width="815"/>
  <unicode hex="016A"/>
  <outline>
    <contour>
      <point x="100" y="675" type="line"/>
      <point x="105" y="722" type="line"/>
      <point x="423" y="722" type="line"/>
      <point x="417" y="675" type="line"/>
      <point x="413" y="675" type="line" smooth="yes"/>
      <point x="364" y="675"/>
      <point x="340" y="671"/>
      <point x="330" y="661" type="curve" smooth="yes"/>
      <point x="321" y="653"/>
      <point x="321" y="653"/>
      <point x="307" y="599" type="curve" smooth="yes"/>
      <point x="217" y="266" type="line" smooth="yes"/>
      <point x="210" y="238"/>
      <point x="203" y="189"/>
      <point x="203" y="163" type="curve" smooth="yes"/>
      <point x="203" y="78"/>
      <point x="262" y="28"/>
      <point x="364" y="28" type="curve" smooth="yes"/>
      <point x="441" y="28"/>
      <point x="499" y="56"/>
      <point x="538" y="112" type="curve" smooth="yes"/>
      <point x="562" y="146"/>
      <point x="574" y="179"/>
      <point x="603" y="290" type="curve" smooth="yes"/>
      <point x="661" y="505" type="line"/>
      <point x="683" y="594"/>
      <point x="684" y="598"/>
      <point x="684" y="620" type="curve" smooth="yes"/>
      <point x="684" y="658"/>
      <point x="655" y="676"/>
      <point x="591" y="675" type="curve"/>
      <point x="597" y="722" type="line"/>
      <point x="860" y="722" type="line"/>
      <point x="855" y="675" type="line"/>
      <point x="767" y="671"/>
      <point x="758" y="660"/>
      <point x="715" y="505" type="curve"/>
      <point x="659" y="294" type="line" smooth="yes"/>
      <point x="632" y="192"/>
      <point x="632" y="192"/>
      <point x="618" y="157" type="curve" smooth="yes"/>
      <point x="587" y="76"/>
      <point x="548" y="33"/>
      <point x="483" y="8" type="curve" smooth="yes"/>
      <point x="444" y="-7"/>
      <point x="394" y="-15"/>
      <point x="343" y="-15" type="curve" smooth="yes"/>
      <point x="180" y="-15"/>
      <point x="93" y="52"/>
      <point x="93" y="176" type="curve" smooth="yes"/>
      <point x="93" y="210"/>
      <point x="97" y="236"/>
      <point x="113" y="294" type="curve" smooth="yes"/>
      <point x="195" y="599" type="line" smooth="yes"/>
      <point x="200" y="619"/>
      <point x="204" y="640"/>
      <point x="204" y="648" type="curve" smooth="yes"/>
      <point x="204" y="670"/>
      <point x="190" y="675"/>
      <point x="125" y="675" type="curve" smooth="yes"/>
    </contour>
    <contour>
      <point x="408" y="877" type="line"/>
      <point x="709" y="877" type="line"/>
      <point x="698" y="823" type="line"/>
      <point x="397" y="823" type="line"/>
    </contour>
  </outline>
</glyph>
<glyph name="uring" format="1">
  <advance width="611"/>
  <unicode hex="016F"/>
  <outline>
    <contour>
      <point x="509" y="455" type="line"/>
      <point x="410" y="123" type="line" smooth="yes"/>
      <point x="402" y="94"/>
      <point x="398" y="75"/>
      <point x="398" y="64" type="curve" smooth="yes"/>
      <point x="398" y="51"/>
      <point x="407" y="40"/>
      <point x="417" y="40" type="curve" smooth="yes"/>
      <point x="437" y="40"/>
      <point x="477" y="81"/>
      <point x="526" y="153" type="curve"/>
      <point x="556" y="135" type="line"/>
      <point x="485" y="25"/>
      <point x="436" y="-15"/>
      <point x="375" y="-15" type="curve" smooth="yes"/>
      <point x="338" y="-15"/>
      <point x="311" y="13"/>
      <point x="311" y="51" type="curve" smooth="yes"/>
      <point x="311" y="70"/>
      <point x="313" y="84"/>
      <point x="323" y="119" type="curve"/>
      <point x="264" y="27"/>
      <point x="207" y="-14"/>
      <point x="137" y="-14" type="curve" smooth="yes"/>
      <point x="81" y="-14"/>
      <point x="42" y="23"/>
      <point x="42" y="78" type="curve" smooth="yes"/>
      <point x="42" y="109"/>
      <point x="42" y="109"/>
      <point x="73" y="209" type="curve"/>
      <point x="113" y="344" type="line" smooth="yes"/>
      <point x="118" y="362"/>
      <point x="121" y="378"/>
      <point x="121" y="387" type="curve" smooth="yes"/>
      <point x="121" y="410"/>
      <point x="106" y="419"/>
      <point x="65" y="419" type="curve" smooth="yes"/>
      <point x="41" y="419" type="line"/>
      <point x="44" y="455" type="line"/>
      <point x="237" y="470" type="line"/>
      <point x="139" y="142" type="line" smooth="yes"/>
      <point x="131" y="115"/>
      <point x="128" y="97"/>
      <point x="128" y="85" type="curve" smooth="yes"/>
      <point x="128" y="61"/>
      <point x="147" y="42"/>
      <point x="171" y="42" type="curve" smooth="yes"/>
      <point x="242" y="42"/>
      <point x="334" y="156"/>
      <point x="375" y="295" type="curve" smooth="yes"/>
      <point x="422" y="455" type="line"/>
    </contour>
    <contour>
      <point x="369" y="712" type="curve" smooth="yes"/>
      <point x="423" y="712"/>
      <point x="468" y="667"/>
      <point x="468" y="613" type="curve" smooth="yes"/>
      <point x="468" y="557"/>
      <point x="423" y="513"/>
      <point x="367" y="513" type="curve" smooth="yes"/>
      <point x="314" y="513"/>
      <point x="269" y="559"/>
      <point x="269" y="613" type="curve" smooth="yes"/>
      <point x="269" y="667"/>
      <point x="314" y="712"/>
    </contour>
    <contour>
      <point x="369" y="676" type="curve" smooth="yes"/>
      <point x="334" y="676"/>
      <point x="305" y="647"/>
      <point x="305" y="613" type="curve" smooth="yes"/>
      <point x="305" y="578"/>
      <point x="334" y="549"/>
      <point x="368" y="549" type="curve" smooth="yes"/>
      <point x="404" y="549"/>
      <point x="432" y="577"/>
      <point x="432" y="613" type="curve" smooth="yes"/>
      <point x="432" y="647"/>
      <point x="403" y="676"/>
    </contour>
  </outline>
</glyph>
<glyph name="Uhungarumlaut" format="1">
  <advance width="815"/>
  <unicode hex="0170"/>
  <outline>
    <contour>
      <point x="100" y="675" type="line"/>
      <point x="105" y="722" type="line"/>
      <point x="423" y="722" type="line"/>
      <point x="417" y="675" type="line"/>
      <point x="413" y="675" type="line" smooth="yes"/>
      <point x="364" y="675"/>
      <point x="340" y="671"/>
      <point x="330" y="661" type="curve" smooth="yes"/>
      <point x="321" y="653"/>
      <point x="321" y="653"/>
      <point x="307" y="599" type="curve" smooth="yes"/>
      <point x="217" y="266" type="line" smooth="yes"/>
      <point x="210" y="238"/>
      <point x="203" y="189"/>
      <point x="203" y="163" type="curve" smooth="yes"/>
      <point x="203" y="78"/>
      <point x="262" y="28"/>
      <point x="364" y="28" type="curve" smooth="yes"/>
      <point x="441" y="28"/>
      <point x="499" y="56"/>
      <point x="538" y="112" type="curve" smooth="yes"/>
      <point x="562" y="146"/>
      <point x="574" y="179"/>
      <point x="603" y="290" type="curve" smooth="yes"/>
      <point x="661" y="505" type="line"/>
      <point x="683" y="594"/>
      <point x="684" y="598"/>
      <point x="684" y="620" type="curve" smooth="yes"/>
      <point x="684" y="658"/>
      <point x="655" y="676"/>
      <point x="591" y="675" type="curve"/>
      <point x="597" y="722" type="line"/>
      <point x="860" y="722" type="line"/>
      <point x="855" y="675" type="line"/>
      <point x="767" y="671"/>
      <point x="758" y="660"/>
      <point x="715" y="505" type="curve"/>
      <point x="659" y="294" type="line" smooth="yes"/>
      <point x="632" y="192"/>
      <point x="632" y="192"/>
      <point x="618" y="157" type="curve" smooth="yes"/>
      <point x="587" y="76"/>
      <point x="548" y="33"/>
      <point x="483" y="8" type="curve" smooth="yes"/>
      <point x="444" y="-7"/>
      <point x="394" y="-15"/>
      <point x="343" y="-15" type="curve" smooth="yes"/>
      <point x="180" y="-15"/>
      <point x="93" y="52"/>
      <point x="93" y="176" type="curve" smooth="yes"/>
      <point x="93" y="210"/>
      <point x="97" y="236"/>
      <point x="113" y="294" type="curve" smooth="yes"/>
      <point x="195" y="599" type="line" smooth="yes"/>
      <point x="200" y="619"/>
      <point x="204" y="640"/>
      <point x="204" y="648" type="curve" smooth="yes"/>
      <point x="204" y="670"/>
      <point x="190" y="675"/>
      <point x="125" y="675" type="curve" smooth="yes"/>
    </contour>
    <contour>
      <point x="391" y="774" type="line"/>
      <point x="531" y="917" type="line" smooth="yes"/>
      <point x="553" y="939"/>
      <point x="566" y="947"/>
      <point x="581" y="947" type="curve" smooth="yes"/>
      <point x="600" y="947"/>
      <point x="616" y="931"/>
      <point x="616" y="913" type="curve" smooth="yes"/>
      <point x="616" y="899"/>
      <point x="606" y="884"/>
      <point x="591" y="874" type="curve" smooth="yes"/>
      <point x="432" y="774" type="line"/>
    </contour>
    <contour>
      <point x="552" y="774" type="line"/>
      <point x="692" y="917" type="line" smooth="yes"/>
      <point x="714" y="939"/>
      <point x="727" y="947"/>
      <point x="742" y="947" type="curve" smooth="yes"/>
      <point x="761" y="947"/>
      <point x="777" y="932"/>
      <point x="777" y="913" type="curve" smooth="yes"/>
      <point x="777" y="898"/>
      <point x="767" y="884"/>
      <point x="752" y="874" type="curve" smooth="yes"/>
      <point x="593" y="774" type="line"/>
    </contour>
  </outline>
</glyph>
